<svg xmlns="http://www.w3.org/2000/svg">
<defs>
<font
       style="font-variant:normal;font-weight:400"
       vert-adv-y="90"
       vert-origin-y="90"
       vert-origin-x="45"
       horiz-origin-y="0"
       horiz-origin-x="0"
       font-weight="400"
       font-style="normal,italic"
       font-variant="normal"
       horiz-adv-x="559"
       id="FontID0">
      <font-face
         id="font-face7"
         font-family="Gentium Plus" />
      <missing-glyph
         id="missing-glyph9">
        <path
           id="path11"
           d="M0 0z" />
      </missing-glyph>
      <glyph
         id="glyph13"
         horiz-adv-x="311"
         unicode="f">
        <path
           id="path15"
           d="M399.008 710.173c0,-2.67717 -2.34646,-6.50394 -7.00787,-11.6693 -4.83465,-5.33858 -10.3307,-10.6772 -16.8346,-16.1732 -6.50394,-5.49606 -13.3386,-10.6614 -20.3307,-15.6693 -7.00787,-4.83465 -13.0079,-8.33071 -17.8268,-10.6614 -7.84252,6.83465 -15.6693,12.6614 -23.6693,17.8268 -8,5.00787 -15.6693,9.1811 -23.0079,12.3465 -7.32283,3.32283 -14.1575,5.82677 -20.5039,7.32283 -6.33071,1.66929 -11.6535,2.50394 -15.8268,2.50394 -8.50394,0 -17.4961,-2.83465 -27.1654,-8.50394 -9.49606,-5.82677 -18.5039,-16.1575 -26.8346,-31.1654 -8.33071,-14.9921 -15.1654,-35.3228 -20.6614,-60.9921 -5.51181,-25.8425 -8.33071,-58.8346 -8.33071,-99.3386l0 -42 126 0 14.1575 -14.3307c-2.99213,-4.66142 -6.66142,-9.66929 -10.9921,-14.8346 -4.50394,-5.33858 -8.83465,-10.1732 -13.1654,-14.8346 -4.50394,-4.66142 -8.67717,-8.83465 -13.0079,-12.5039 -4.17323,-3.82677 -7.82677,-6.33071 -10.6614,-7.66929 -7.51181,4 -18.3307,7.84252 -32.3307,11.5118 -14,3.82677 -34,5.66929 -60,5.66929l0 -357.339c0,-1.84252 1.65354,-3.84252 5.16535,-5.84252 3.32283,-2 9.16535,-4 17.3228,-6 8.17323,-2.15748 18.6772,-4.66142 31.5118,-7.32283 12.8189,-2.83465 28.8189,-6 48,-9.49606l0 -21.0079 -243.339 0 0 21.0079c22.5039,3.82677 39.4961,8.66142 50.9921,14.3307 11.5118,5.66929 17.3386,10.4882 17.3386,14.3307l0 357.339 -65.4961 0 -10.1732 13.8268 38 33.1654 37.6693 0 0 15.1654c0,38.5039 2.66142,70.8346 7.82677,97.0079 5.1811,26.1575 12.1732,48.3307 21.1811,66.4882 8.8189,18 19.1654,33.1654 30.8189,45.3386 11.6693,12.3307 24,23.6693 37.1811,34 8.66142,7.16535 18.3307,13.4961 28.6614,19.1654 10.5039,5.49606 20.8346,10.1732 30.9921,14.1732 10.3465,3.82677 20.1732,6.83465 29.3386,8.66142 9.33858,2 17.0079,3.00787 23.1654,3.00787 10.1732,0 20.5039,-2 31.3386,-5.84252 10.6614,-4 20.5039,-8.33071 29.4961,-13.4961 9.00787,-5.00787 16.3307,-10.1732 22.1732,-15.3386 6,-5.16535 8.83465,-9.16535 8.83465,-12.1575z" />
      </glyph>
      <glyph
         id="glyph17"
         horiz-adv-x="653"
         unicode="U">
        <path
           id="path19"
           d="M622.836 594.005c-22.1695,-4.50004 -39.4964,-9.6733 -52.0043,-15.1655 -12.4962,-5.50398 -18.8269,-10.5001 -18.8269,-15.1773l0 -308.164c0,-42.6618 -5.17327,-80.6699 -15.6734,-114.166 -10.3347,-33.4963 -25.3348,-61.8312 -45.0004,-84.9928 -19.5002,-23.1734 -43.335,-40.8428 -71.3273,-53.0083 -28.0042,-12.1655 -59.6698,-18.3309 -94.8315,-18.3309 -33.5081,0 -64.3352,4.66539 -92.5047,13.9962 -28.3349,9.16543 -52.5004,23.3388 -72.8392,42.3429 -20.4923,19.1576 -36.331,43.1578 -47.6579,72.1659 -11.504,28.9963 -17.1734,63.3312 -17.1734,102.993l0 347.164c0,4.00397 -6.00005,8.83472 -17.8348,14.6694 -11.8229,5.83469 -29.4924,11.1733 -52.9965,15.6734l0 21.0002 219.663 0 0 -21.0002c-22.1577,-4.50004 -39.4964,-9.6733 -51.9925,-15.1655 -12.508,-5.50398 -18.8387,-10.5001 -18.8387,-15.1773l0 -322.833c0,-31.3231 3.67326,-59.3272 11.008,-84.0007 7.32289,-24.827 18.3309,-45.6618 32.8231,-62.8233 14.5041,-17.1734 32.5042,-30.1656 53.6697,-39.3428 21.1655,-9.16543 45.8389,-13.6655 73.9966,-13.6655 23.1734,0 43.6775,5.66934 61.6777,16.8427 17.9883,11.3269 33.1656,25.9963 45.3311,44.1618 12.3308,18.3309 21.4962,39.0003 27.9923,62.3273 6.34257,23.3388 9.50795,47.0082 9.50795,71.1738l0 328.16c0,4.00397 -6.00005,8.83472 -17.8348,14.6694 -11.8347,5.83469 -29.5042,11.1733 -52.9965,15.6734l0 21.0002 204.663 0 0 -21.0002z" />
      </glyph>
      <glyph
         id="glyph21"
         horiz-adv-x="496"
         unicode="É">
        <path
           id="path23"
           d="M465.5 119.174c-2.66931,-28.016 -6.00005,-52.5122 -9.9922,-73.5124 -4.18114,-21.0002 -7.51187,-36.1656 -10.0158,-45.6618l-421.326 0 0 21.0002c22.1577,4.48822 39.4964,9.49614 51.9925,14.8348 12.5198,5.33862 18.8505,10.3229 18.8505,15.0001l0 513.004c0,3.8268 -6.00005,8.66936 -17.8348,14.5041 -11.8347,5.83469 -29.5042,11.1497 -53.0083,15.6615l0 21.0002 393.499 0 15.9923 -12.1655c-0.496067,-8.504 -1.4882,-17.8348 -2.83467,-28.016 -1.32285,-9.9922 -3.00002,-20.1498 -4.81894,-30.1656 -2.00789,-10.1576 -3.99216,-19.6537 -6.1654,-28.8191 -2.17325,-9.16543 -4.18114,-16.8427 -6.1654,-23.0081l-21.8506 0c-0.661423,15.0001 -2.14962,27.4963 -4.15751,37.6775 -2.17325,9.9922 -4.84256,18.1655 -8.17329,24.1655 -3.16538,6.00005 -7.15754,10.1576 -12.0001,12.6615 -4.65358,2.50396 -9.9922,3.66145 -15.8269,3.66145l-178.655 0 0 -211.986 197.813 0 12.6851 -13.6773c-2.66931,-4.51185 -5.83469,-9.49614 -9.49614,-14.6694 -3.85042,-5.17327 -7.67723,-10.3229 -11.8347,-15.3308 -4.01578,-5.00791 -8.17329,-9.66149 -12.1655,-14.008 -4.01578,-4.15751 -7.84258,-7.6536 -11.504,-10.1576 -4.84256,4.84256 -10.1812,9.00007 -15.8505,12.1655 -5.64571,3.33073 -12.1655,6.00005 -19.4883,8.33865 -7.32289,2.3386 -15.9923,3.8268 -25.8427,4.81894 -9.9922,1.01576 -21.8269,1.51182 -35.4806,1.51182l-68.8352 0 0 -242.671c0,-5.00791 1.15749,-9.33078 3.33073,-12.9922 2.31498,-3.85042 6.99218,-7.0158 14.1497,-9.85047 7.18116,-2.64569 17.3387,-4.81894 30.3546,-6.33076 12.9922,-1.4882 30.3309,-2.14962 51.8272,-2.14962l63.0005 0c14.8348,0 27.6616,0.826778 38.3389,2.48033 10.4883,1.51182 19.8191,5.17327 27.9923,11.008 8.17329,5.66934 15.4962,14.008 22.1577,24.9923 6.66147,11.1733 13.5119,26.3388 20.3387,45.52l21.0002 -8.83472zm-285.168 547.823c-5.50398,2.3386 -9.49614,5.00791 -11.8347,8.00794 -2.50396,3.16538 -5.83469,7.81896 -9.9922,13.9844l188.836 155.009c3.33073,-2.00789 7.6536,-4.48822 13.3229,-7.48825 5.50398,-3.16538 11.1733,-6.51974 17.008,-9.85047 5.83469,-3.49609 11.1497,-6.82683 16.1576,-9.9922 4.84256,-3.33073 8.504,-6.1654 11.1733,-8.83472l4.48822 -21.9923 -229.159 -118.843z" />
      </glyph>
      <glyph
         id="glyph25"
         horiz-adv-x="344"
         unicode="t">
        <path
           id="path27"
           d="M329.837 56.339c-15.9923,-11.6694 -31.6774,-22.0159 -47.339,-30.8506 -15.6615,-8.81109 -30.4963,-16.323 -44.6696,-22.323 -14.1733,-6.00005 -27.3309,-10.4883 -39.331,-13.4883 -12.0001,-3.16538 -22.323,-4.6772 -30.827,-4.6772 -11.3387,0 -22.1813,2.17325 -32.3388,6.33076 -10.1576,4.18114 -19.1576,11.1733 -27.0002,20.6695 -7.84258,9.66149 -14.008,22.323 -18.4962,37.8428 -4.51185,15.6615 -6.82683,34.8192 -6.82683,57.6619l0 299.506 -63.0005 0 -10.1812 13.819 38.0082 33.1656 35.1735 0 0 120.166 57.8272 50.835 15.1655 -12.1655 0 -158.836 159.663 0 14.1733 -14.3387c-3.00002,-4.65358 -6.66147,-9.66149 -11.008,-14.8348 -4.32287,-5.315 -8.83472,-10.1576 -13.4883,-14.8111 -4.51185,-4.6772 -9.00007,-8.83472 -13.3466,-12.5198 -4.32287,-3.8268 -8.14967,-6.33076 -11.504,-7.6536 -7.81896,3.99216 -19.6537,7.81896 -35.6459,11.504 -16.0159,3.8268 -37.016,5.66934 -63.5202,5.66934l-25.323 0 0 -257.837c0,-19.6773 0.826778,-35.8349 2.66931,-48.8508 1.81891,-13.1576 4.81894,-23.4805 9.00007,-31.1577 4.32287,-7.48825 9.66149,-12.9922 16.323,-16.323 6.85045,-3.16538 15.0001,-4.84256 24.6616,-4.84256 11.504,0 25.8427,2.3386 43.0161,6.82683 17.3387,4.51185 38.6696,13.3466 63.9926,26.3388l14.1733 -24.827z" />
      </glyph>
      <glyph
         id="glyph29"
         horiz-adv-x="437"
         unicode="c">
        <path
           id="path31"
           d="M409.822 92.0086c-21.1655,-25.1813 -39.8271,-44.6696 -55.8193,-58.843 -16.1812,-14.008 -30.9924,-24.6616 -44.6696,-32.0081 -13.6773,-7.15754 -27.1656,-11.6458 -40.1578,-13.4883 -13.0159,-1.84253 -27.1656,-2.66931 -42.52,-2.66931 -23.6459,0 -46.8193,5.33862 -69.4966,15.8269 -22.6537,10.6772 -42.6618,25.8427 -60.1658,45.8508 -17.6694,19.8191 -31.6538,44.15 -42.1657,72.8273 -10.4883,28.6538 -15.8269,60.9926 -15.8269,97.1582 0,35.3389 6.33076,68.1738 19.1576,98.8354 12.8505,30.6617 30.3309,57.3312 52.6776,80.0085 22.323,22.4884 48.4964,40.4885 78.8274,53.6697 30.1656,13.1576 63.0005,19.8191 98.174,19.8191 10.6536,0 21.6616,-0.826778 32.8349,-2.66931 11.3387,-1.81891 21.9923,-4.48822 32.3388,-7.81896 10.1576,-3.49609 19.6537,-7.51187 28.3231,-12.3308 8.504,-4.6772 15.6615,-10.0158 21.1655,-16.0159 0.661423,-3.8268 0.165356,-9.49614 -1.4882,-16.6537 -1.51182,-7.18116 -3.85042,-14.6694 -6.85045,-22.6773 -2.83467,-8.00794 -6.1654,-15.6615 -9.66149,-23.0081 -3.66145,-7.32289 -6.82683,-13.1576 -9.82685,-17.8112l-18.0001 4.98429c-2.66931,5.83469 -6.85045,12.1655 -12.6615,19.0159 -6.00005,6.82683 -13.5119,13.3229 -22.8427,19.4883 -9.16543,6.1654 -20.3387,11.3387 -33.1656,15.3308 -12.8269,4.18114 -27.4963,6.1654 -44.1736,6.1654 -17.3387,0 -33.827,-3.8268 -49.4886,-11.504 -15.8505,-7.6536 -29.8349,-19.1576 -42.0003,-34.4885 -12.3308,-15.3308 -22.0159,-34.3467 -29.3388,-57.1658 -7.32289,-22.8427 -11.008,-49.6776 -11.008,-80.3392 0,-27.6616 4.18114,-53.0083 12.4962,-75.662 8.17329,-22.6773 19.3466,-42.0003 33.1892,-57.9926 13.819,-15.8505 29.8113,-28.1813 47.8114,-36.8507 18.0001,-8.66936 36.8507,-12.9922 56.339,-12.9922 9.16543,0 17.6694,0.330711 25.512,1.15749 7.81896,0.8504 16.323,3.33073 25.6537,7.67723 9.16543,4.15751 20.008,10.4883 32.1735,18.9923 12.1655,8.504 27.3309,20.5041 45.6618,36.1656l18.9923 -19.9844z" />
      </glyph>
      <glyph
         id="glyph33"
         horiz-adv-x="437"
         unicode="č">
        <path
           id="path35"
           d="M409.827 92c-21.1654,-25.1654 -39.8268,-44.6614 -55.8268,-58.8346 -16.1732,-14 -30.9921,-24.6614 -44.6614,-32 -13.6693,-7.16535 -27.1654,-11.6693 -40.1732,-13.4961 -12.9921,-1.84252 -27.1654,-2.67717 -42.5039,-2.67717 -23.6535,0 -46.8346,5.33858 -69.4961,15.8425 -22.6614,10.6614 -42.6614,25.8268 -60.1575,45.8268 -17.6693,19.8425 -31.6693,44.1732 -42.1732,72.8346 -10.5039,28.6772 -15.8268,61.0079 -15.8268,97.1654 0,35.3386 6.33071,68.1732 19.1654,98.8346 12.8346,30.6772 30.3307,57.3386 52.6614,80 22.3307,22.5039 48.5039,40.5039 78.8346,53.6693 30.1575,13.1654 62.9921,19.8425 98.1575,19.8425 10.6772,0 21.6693,-0.834646 32.8346,-2.67717 11.3386,-1.82677 22,-4.50394 32.3465,-7.82677 10.1575,-3.49606 19.6535,-7.49606 28.3307,-12.3307 8.48819,-4.67717 15.6693,-10 21.1654,-16 0.661417,-3.84252 0.15748,-9.51181 -1.49606,-16.6772 -1.51181,-7.16535 -3.84252,-14.6614 -6.83465,-22.6614 -2.83465,-8 -6.17323,-15.6693 -9.66929,-23.0079 -3.66929,-7.32283 -6.83465,-13.1654 -9.84252,-17.8268l-18 5.00787c-2.66142,5.82677 -6.83465,12.1575 -12.6614,18.9921 -6,6.83465 -13.4961,13.3386 -22.8346,19.4961 -9.16535,6.17323 -20.3307,11.3386 -33.1654,15.3386 -12.8346,4.17323 -27.4961,6.17323 -44.1732,6.17323 -17.3228,0 -33.8268,-3.84252 -49.4961,-11.5118 -15.8268,-7.66929 -29.8268,-19.1654 -42,-34.4882 -12.3307,-15.3386 -22,-34.3465 -29.3228,-57.1811 -7.33858,-22.8189 -11.0079,-49.6535 -11.0079,-80.3307 0,-27.6693 4.17323,-52.9921 12.5039,-75.6693 8.15748,-22.6614 19.3228,-42 33.1654,-58 13.8268,-15.8268 29.8268,-28.1575 47.8268,-36.8189 18,-8.67717 36.8346,-13.0079 56.3307,-13.0079 9.1811,0 17.6693,0.330709 25.5118,1.16535 7.82677,0.834646 16.3307,3.33858 25.6693,7.66929 9.16535,4.17323 20,10.5039 32.1575,18.9921 12.1732,8.50394 27.3386,20.5039 45.6693,36.1732l18.9921 -20zm-144.488 431.008l-52.1732 0 -128.992 174c2.33071,3.32283 4.33071,6.15748 6,8.33071 1.49606,2.33071 3.16535,4.33071 4.48819,5.82677 1.51181,1.66929 3.16535,3.16535 5.00787,4.50394 1.82677,1.16535 4,2.66142 6.50394,4.33071l134.331 -122.504 131.827 122.504c5.49606,-2.99213 9.49606,-5.82677 11.6693,-8.83465 2.33071,-2.83465 5.49606,-7.66929 9.33858,-14.1575l-128 -174z" />
      </glyph>
      <glyph
         id="glyph37"
         horiz-adv-x="595"
         unicode="A">
        <path
           id="path39"
           d="M370.172 261.002l-86.0086 250.998 -83.4928 -250.998 169.501 0zm-184.171 -43.9964l-54.1658 -162.84c-3.16538,-10.1694 1.1693,-17.5041 13.1694,-22.0041 12.0001,-4.50004 31.5002,-8.32684 58.1579,-11.1615l0 -21.0002 -203.163 0 0 21.0002c22.1695,3.83861 39.6617,7.99613 52.6658,12.1655 13.1694,4.33468 21.1655,11.3387 24.4963,21.0002l181.667 549.831c7.50006,8.00794 16.6655,15.508 27.8388,22.1695 10.9961,6.66147 20.8348,12.3308 29.327,16.8308l205.006 -588.831c1.66537,-4.50004 3.83861,-8.66936 6.83864,-12.1655 3.00002,-3.66145 6.82683,-6.66147 11.6576,-9.33078 5.00791,-2.50396 11.1733,-4.83075 18.6734,-6.83864 7.50006,-1.83072 16.3348,-3.49609 26.8349,-4.83075l0 -21.0002 -206.175 0 0 21.0002c25.5002,1.66537 43.0043,4.83075 52.8311,9.66149 9.6733,5.00791 12.8387,12.6733 9.34259,23.5041l-55.6658 162.84 -199.336 0z" />
      </glyph>
      <glyph
         id="glyph41"
         horiz-adv-x="525"
         unicode="R">
        <path
           id="path43"
           d="M525.996 53.0083c-12.6615,-8.33865 -25.1577,-16.3466 -37.6538,-23.6695 -12.3308,-7.34651 -23.6695,-13.6773 -34.1814,-19.0159 -10.3229,-5.315 -19.6537,-9.66149 -27.9923,-12.6615 -8.33865,-3.16538 -14.6694,-4.65358 -18.8269,-4.65358 -5.50398,0 -10.8426,0.826778 -15.8505,2.50396 -4.98429,1.65356 -10.1576,4.81894 -15.1655,9.66149 -4.98429,4.65358 -10.3229,11.1497 -15.8269,19.4883 -5.50398,8.33865 -11.504,19.1813 -17.6694,32.5042l-110.339 230.506c-9.33078,0.661423 -19.1576,1.4882 -28.9845,2.83467 -10.0158,1.32285 -19.0159,3.00002 -27.1656,4.81894l-33.1656 -244.49c-1.01576,-3.99216 3.66145,-8.83472 13.9844,-14.5041 10.1812,-5.66934 25.512,-10.8426 46.0161,-15.3308l-2.83467 -21.0002 -200.175 0 2.83467 21.0002c20.5041,4.48822 36.9924,9.49614 49.3232,15.0001 12.3544,5.33862 18.8505,10.3229 19.512,14.8348l72.8273 532.162c-12.6615,-1.65356 -25.323,-3.49609 -37.8192,-5.66934 -12.5198,-1.98427 -25.1813,-4.32287 -37.8428,-6.99218l0 29.1735c14.6694,4.15751 29.3388,8.14967 44.1736,11.8347 14.8348,3.66145 30.3309,6.99218 46.6539,9.66149 16.1812,2.83467 33.6617,4.98429 52.1815,6.49611 18.4962,1.67718 39.0003,2.50396 60.9926,2.50396 28.6538,0 54.6618,-3.33073 78.0006,-10.0158 23.1734,-6.66147 43.1578,-16.6537 59.8351,-29.8113 16.4883,-13.1812 29.3388,-29.5042 38.5042,-48.8508 9.16543,-19.323 13.6537,-41.835 13.6537,-67.158 0,-12.6615 -2.83467,-28.3467 -8.504,-46.6775 -5.66934,-18.3309 -15.0001,-36.6617 -27.827,-54.6618 -12.8269,-18.1655 -29.6695,-34.6538 -50.5043,-49.8193 -20.8348,-15.1655 -46.6539,-25.6774 -77.1502,-31.5121l114.166 -201.828c5.83469,-10.3465 11.4804,-18.3309 16.819,-23.8348 5.33862,-5.50398 11.8347,-9.00007 19.1813,-10.3465 7.15754,-1.32285 16.323,-0.496067 27.0002,2.50396 10.819,2.83467 24.4963,7.51187 40.9846,13.6773l8.83472 -18.6616zm-274.986 536.319l-17.6694 0c-5.83469,0 -11.504,-0.165356 -17.008,-0.330711l-35.1735 -257.341c9.33078,-2.48033 18.6852,-4.48822 28.016,-5.81107 9.33078,-1.34647 18.4962,-2.00789 27.6616,-2.00789 20.5041,0 40.1578,2.83467 59.0083,8.504 18.8269,5.83469 35.4806,14.1497 49.8193,25.4884 14.3387,11.1733 25.8427,25.3467 34.3467,42.4964 8.64574,17.008 12.9922,37.1814 12.9922,60.3312 0,24.0002 -4.51185,44.3389 -13.5119,60.6855 -8.83472,16.4883 -20.3151,29.6459 -34.1577,39.8271 -13.8426,10.1576 -29.0081,17.3387 -45.8271,21.6616 -16.8427,4.34649 -33.0003,6.49611 -48.4964,6.49611z" />
      </glyph>
      <glyph
         id="glyph45"
         horiz-adv-x="515"
         unicode="q">
        <path
           id="path47"
           d="M237.829 48.0004c11.008,0 22.0159,2.3386 32.6695,6.82683 10.8426,4.6772 21.3309,10.5119 31.8428,17.8348 10.4883,7.34651 20.8348,15.8269 30.9924,25.1813 10.3229,9.49614 20.5041,19.1576 30.6617,28.9845l0 229.514c-10.819,18.4962 -25.9845,33.0003 -45.4964,43.3232 -19.4883,10.1576 -41.1736,15.3308 -64.6541,15.3308 -18.1891,0 -35.8349,-3.8268 -52.8429,-11.504 -16.8427,-7.6536 -32.0081,-19.1576 -45.1657,-34.4885 -13.1576,-15.3308 -23.8348,-34.3467 -31.8428,-57.1658 -7.98431,-22.8427 -12.0001,-49.6776 -12.0001,-80.3392 0,-27.6616 4.01578,-53.0083 12.0001,-75.662 8.00794,-22.6773 18.1655,-42.0003 30.4963,-57.9926 12.5198,-15.8505 26.1734,-28.1813 41.0082,-36.8507 14.8348,-8.66936 28.8427,-12.9922 42.331,-12.9922zm43.1814 -282.002l0 21.0002c30.6617,4.51185 51.9925,9.33078 64.4887,14.3387 12.3308,5.17327 18.4962,10.3229 18.4962,15.9923l-0.165356 264.002c-12.4962,-15.0001 -24.6616,-28.4884 -36.6617,-40.3232 -12.0001,-11.6694 -24.4963,-21.8506 -37.3231,-30.1656 -13.0159,-8.33865 -26.5041,-14.8348 -40.6775,-19.1813 -14.1733,-4.48822 -29.5042,-6.66147 -46.1578,-6.66147 -18.1655,0 -36.8507,5.33862 -56.0083,15.8269 -19.323,10.6772 -36.9924,25.8427 -53.0083,45.8508 -16.1576,19.8191 -29.3152,44.15 -39.6617,72.8273 -10.1576,28.6538 -15.3308,60.9926 -15.3308,97.1582 0,28.6774 4.48822,55.1815 13.6773,79.3471 9.16543,24.0002 20.3151,45.4964 33.4963,64.158 13.1576,18.8269 27.1656,34.6538 42.1657,47.6697 15.0001,13.1576 28.1577,22.8191 39.6617,29.3388 18.4962,10.1576 36.8271,18.0001 55.1579,23.4805 18.1655,5.50398 33.4963,8.33865 45.8508,8.33865 8.83472,0 17.6458,-0.496067 26.3152,-1.65356 8.83472,-1.18111 17.8348,-3.33073 26.8349,-6.68509 9.16543,-3.16538 18.6616,-7.81896 28.3467,-13.6537 9.82685,-5.83469 20.3151,-13.6773 31.3231,-23.3388 4.84256,2.83467 9.82685,6.33076 15.1655,10.5119 5.17327,3.99216 10.1812,7.98431 15.1655,12.1655 4.84256,3.99216 9.49614,8.14967 13.8426,12.1655 4.32287,3.99216 8.00794,7.48825 11.008,10.4883l15.1655 -14.6694c-3.00002,-9.16543 -5.50398,-18.9923 -7.84258,-29.8349 -2.00789,-9.33078 -3.66145,-20.4805 -5.17327,-33.1656 -1.4882,-12.6615 -2.14962,-26.3152 -2.14962,-40.9846l0 -533.012c0,-5.33862 4.98429,-10.4883 15.1655,-15.6615 9.9922,-5.17327 27.6616,-10.1576 52.654,-14.6694l0 -21.0002 -223.821 0z" />
      </glyph>
      <glyph
         id="glyph49"
         horiz-adv-x="600"
         unicode="O">
        <path
           id="path51"
           d="M478.976 307.514c-0.0944889,22.5356 -2.05513,44.7759 -6.2717,66.7328 -4.06302,21.886 -9.81504,42.7917 -17.4096,62.4454 -7.37014,19.7009 -16.7364,37.8546 -27.5908,54.7327 -10.9253,16.7245 -23.138,31.1223 -36.9452,43.3468 -13.6655,12.1418 -28.5475,21.7325 -44.8822,28.6892 -16.3466,6.96856 -33.6499,10.4646 -52.1579,10.4292 -28.9372,0.0354333 -54.8744,-6.17721 -77.7053,-18.4844 -22.9726,-12.2245 -42.3665,-29.6813 -57.9453,-52.2878 -15.8151,-22.6773 -27.7916,-50.15 -36.331,-82.3825 -8.30321,-32.1735 -12.4489,-68.1856 -12.4253,-108.024 0.0236222,-36.4019 5.11421,-70.8667 15.071,-103.442 9.95677,-32.5751 23.2915,-61.1225 40.146,-85.7133 16.7127,-24.5081 36.4019,-43.9964 58.8548,-58.1579 22.3703,-14.3033 46.2405,-21.4372 71.2328,-21.3781 27.0829,0.0472445 51.7091,5.6339 74.351,16.9017 22.6301,11.2796 42.0003,27.9923 58.4532,50.1146 16.3112,22.2049 29.1262,49.7957 38.0672,82.7605 9.08275,32.8821 13.5237,70.8195 13.4883,113.717zm75.5085 9.02369c0.0590556,-44.2444 -7.11029,-86.3865 -21.7088,-126.131 -14.5277,-39.957 -34.3703,-75.0833 -59.528,-105.343 -25.1695,-30.2601 -54.2485,-54.5437 -87.3786,-72.3785 -33.0711,-18.0592 -68.1501,-27.012 -105.296,-27.0002 -38.9531,-0.141733 -73.7959,8.504 -104.328,25.6183 -30.6735,17.197 -56.4099,40.2287 -77.4809,69.2486 -21.0002,28.7955 -36.9688,62.221 -48.1185,99.8512 -11.0788,37.772 -16.7127,77.103 -16.8427,118.135 -0.0590556,44.2444 6.96856,86.4692 21.3545,126.521 14.1497,39.9806 33.4845,75.1896 58.2642,105.473 24.6498,30.3546 53.6461,54.4847 86.8708,72.473 33.3546,17.9057 69.0242,26.9057 107.375,26.9884 40.4413,0.0708667 75.8037,-8.66936 106.383,-26.386 30.579,-17.7049 56.2918,-41.1027 77.2093,-70.4179 20.9057,-29.3152 36.6381,-62.8115 47.1972,-100.489 10.7009,-37.7483 15.9214,-76.4652 16.0277,-116.162z" />
      </glyph>
      <glyph
         id="glyph53"
         horiz-adv-x="476"
         unicode="L">
        <path
           id="path55"
           d="M460.666 119.168c-2.66339,-28.3347 -6.00001,-52.8367 -9.99805,-73.6655 -4.1693,-20.8347 -7.50001,-36.0001 -10.1693,-45.5021l-416.333 0 0 21c22.1693,4.50001 39.502,9.50199 52.004,14.8347 12.4961,5.33269 18.8327,10.3347 18.8327,15l0 513.001c0,3.83268 -6.00001,8.6634 -17.8347,14.4981 -11.8347,5.83466 -29.4981,11.1673 -53.0021,15.6674l0 21 219.668 0 0 -21c-22.1693,-4.50001 -39.502,-9.50199 -51.9981,-15.1654 -12.502,-5.50395 -18.8327,-10.5 -18.8327,-15l0 -483.668c0,-5.83466 1.32874,-11.002 4.16339,-15.502 2.6693,-4.33465 7.50001,-7.99608 14.3327,-11.1673 6.83269,-3.00001 16.1693,-5.49804 27.8327,-6.99805 11.8347,-1.66536 26.6693,-2.49804 44.504,-2.49804l69.8328 0c15,0 27.4961,0.832679 37.8308,2.49804 10.1693,1.5 19.3347,5.16733 27.0001,11.002 7.83663,5.6634 15,13.9961 21.3367,24.9981 6.33072,11.1673 12.9981,26.3327 19.8307,45.5021l21 -8.83466z" />
      </glyph>
      <glyph
         id="glyph57"
         horiz-adv-x="551"
         unicode="n">
        <path
           id="path59"
           d="M327.669 0l0 21.0079c23.3386,6.15748 40.6614,11.6535 51.6693,16.1575 11.1654,4.50394 16.6614,9.16535 16.6614,13.6693l0 258.835c0,19.8268 -1.16535,36 -3.49606,48.3307 -2.17323,12.5039 -5.84252,22.1732 -10.6772,29.3386 -4.99213,7.32283 -11.3228,12.1575 -19.4961,14.8346 -8,2.48819 -17.6693,3.82677 -29.1654,3.82677 -10,0 -21.3386,-2.50394 -33.8268,-7.33858 -12.3307,-4.83465 -25.6693,-12.6614 -39.8425,-23.4961 -14.3307,-10.6614 -29.1654,-24.8346 -44.6614,-42.3307 -15.4961,-17.3386 -31.1654,-38.8346 -46.8346,-64.3307l0 -217.669c0,-4.83465 6.17323,-9.82677 18.3307,-15.1654 12.1732,-5.16535 28.8346,-10 50,-14.6614l0 -21.0079 -209.669 0 0 21.0079c21.5118,5.65354 38.1732,10.4882 50.3465,14.9921 12,4.33071 18,9.33858 18,14.8346l0 296.992c0,12.8346 -0.503937,22.8346 -1.51181,30.3465 -0.992126,7.49606 -3.66929,13.4961 -8,17.6535 -4.33071,4.17323 -11.1654,7.33858 -20.3307,9.33858 -8.99213,2 -22,3.84252 -38.5039,5.84252l0 19.3228c22.1732,3.49606 42.6772,8.67717 61.5118,15.1654 18.8346,6.67717 37.3228,14.5039 55.4961,23.5118l16.9921 -17.1811 5.33858 -121.496c14.3307,21.6693 30.1732,41.1654 47.4961,58.3307 17.3386,17.0079 34.6772,31.5118 52.3307,43.5118 17.6693,11.8268 34.6772,20.9921 51.1811,27.3228 16.4882,6.33071 31.1654,9.51181 43.8268,9.51181 14,0 27.4961,-2.17323 40.6614,-6.34646 13.0079,-4.33071 24.5039,-10.8346 34.5039,-19.4961 9.82677,-8.83465 17.8268,-20 24,-33.4961 6,-13.4961 9.00787,-29.3386 9.00787,-47.6693l0 -311.165c0,-4.50394 4.99213,-9.00787 14.8189,-13.4961 10,-4.33071 27.8425,-9.84252 53.5118,-16.3307l0 -21.0079 -209.669 0z" />
      </glyph>
      <glyph
         id="glyph61"
         horiz-adv-x="396"
         unicode="ř">
        <path
           id="path63"
           d="M375.499 450.996c3.00002,-1.81891 4.32287,-7.6536 4.15751,-16.9844 -0.165356,-9.3544 -1.4882,-20.1734 -3.8268,-32.5042 -2.50396,-12.3308 -5.66934,-25.0159 -9.49614,-38.1735 -3.99216,-12.9922 -7.84258,-23.8348 -11.8347,-32.6695l-21.0002 0c-1.84253,12.9922 -4.65358,24.1655 -8.33865,33.1656 -3.49609,9.16543 -7.6536,16.3466 -12.3308,21.8269 -4.81894,5.33862 -9.9922,9.16543 -15.6615,11.6694 -5.66934,2.50396 -11.6694,3.68507 -17.8348,3.68507 -7.15754,0 -15.4962,-3.00002 -25.1577,-9.00007 -9.51976,-6.00005 -19.512,-15.5198 -29.5042,-28.3467 -10.1812,-12.9922 -20.1734,-29.5042 -30.0002,-49.4886 -10.0158,-20.008 -18.8269,-43.8429 -26.6695,-71.6699l0 -191.671c0,-4.84256 6.1654,-9.9922 18.3309,-15.1655 12.1655,-5.17327 33.6617,-9.9922 64.158,-14.6694l0 -21.0002 -223.821 0 0 21.0002c21.4962,4.84256 38.1735,9.66149 50.339,14.3387 12.0001,4.81894 18.0001,9.9922 18.0001,15.4962l0 284.341c0,10.6536 -0.330711,19.8191 -1.01576,27.1656 -0.661423,7.32289 -1.4882,13.1576 -2.50396,17.8348 -0.826778,4.48822 -2.14962,7.98431 -3.66145,10.6536 -1.32285,2.66931 -2.83467,4.6772 -3.99216,6.33076 -2.3386,2.3386 -4.84256,4.18114 -7.67723,5.66934 -2.66931,1.51182 -6.33076,2.66931 -10.6536,3.66145 -4.51185,1.01576 -9.66149,1.67718 -15.8269,2.17325 -6.35438,0.496067 -13.8426,0.992134 -23.0081,1.67718l0 19.6537c21.1655,5.50398 41.835,11.008 62.1737,16.8427 20.3151,5.66934 38.646,12.9922 54.8272,22.1577l17.008 -17.1734 6.33076 -110.812c8.83472,18.0001 18.3309,34.6538 28.6538,50.3154 10.1812,15.6852 21.1655,29.1735 32.8349,40.8428 11.8347,11.504 24.0002,20.5041 36.8271,27.0002 13.0159,6.49611 26.3388,9.82685 40.3468,9.82685 10.4883,0 21.6616,-1.32285 33.6617,-3.8268 12.1655,-2.66931 24.1655,-7.34651 36.1656,-14.1733zm-129.166 72.0006l-52.1579 0 -129.001 174.001c2.31498,3.33073 4.32287,6.1654 6.00005,8.33865 1.4882,2.3386 3.16538,4.32287 4.48822,5.83469 1.51182,1.65356 3.16538,3.16538 5.00791,4.48822 1.81891,1.18111 3.99216,2.66931 6.49611,4.34649l134.34 -122.505 131.836 122.505c5.48036,-3.00002 9.49614,-5.83469 11.6694,-8.83472 2.31498,-2.83467 5.48036,-7.67723 9.33078,-14.1733l-128.009 -174.001z" />
      </glyph>
      <glyph
         id="glyph65"
         horiz-adv-x="487"
         unicode="k">
        <path
           id="path67"
           d="M14.6694 0l0 21.0002c21.4962,5.50398 38.1735,10.3229 50.339,14.6694 12.0001,4.15751 18.0001,9.33078 18.0001,15.1655l0 582.17c0,15.0001 -0.8504,26.5041 -2.66931,34.6538 -1.84253,8.17329 -5.17327,14.1733 -10.3465,18.3309 -4.98429,4.01578 -12.0001,6.68509 -21.0002,8.00794 -8.83472,1.34647 -20.3151,2.83467 -34.3231,4.34649l0 19.6537c22.4884,4.51185 44.5043,9.82685 66.1659,15.8269 21.4962,6.00005 40.6539,13.6773 57.1658,23.1734l18.0001 -16.6537 0 -481.516 150.332 131.174c10.8426,9.49614 17.3387,17.008 19.6773,22.8191 2.14962,5.66934 1.81891,10.0158 -1.34647,12.8505 -3.00002,3.00002 -8.33865,4.81894 -15.6615,5.83469 -7.15754,0.992134 -15.1655,1.4882 -23.6695,1.4882l0 21.0002 185.175 0 0 -21.0002c-14.3387,-1.65356 -27.4963,-4.32287 -39.6854,-7.98431 -12.0001,-3.85042 -24.827,-11.1733 -38.4806,-22.3466l-166.513 -133.159 183.663 -215.506c4.51185,-5.17327 9.16543,-9.49614 14.008,-12.8269 5.00791,-3.49609 10.3229,-6.1654 16.1576,-8.00794 5.83469,-2.00789 12.5198,-3.33073 19.8427,-3.66145 7.32289,-0.496067 15.6615,-0.496067 25.1577,0.165356l2.83467 -21.0002c-9.33078,-2.3386 -18.6616,-4.18114 -27.9923,-5.83469 -9.33078,-1.67718 -18.0001,-3.00002 -25.8427,-4.15751 -7.98431,-1.18111 -15.1655,-2.00789 -21.4962,-2.66931 -6.33076,-0.685045 -11.1497,-1.01576 -14.5041,-1.01576 -13.6537,0 -24.6616,2.00789 -33.0003,5.83469 -8.14967,4.01578 -15.9923,10.6772 -23.1498,20.008l-185.505 234.002 0 -204.002c0,-2.66931 0.496067,-5.00791 1.67718,-6.82683 1.15749,-2.00789 3.49609,-4.01578 7.15754,-6.1654 3.49609,-2.17325 8.83472,-4.51185 15.9923,-7.0158 7.18116,-2.66931 16.8427,-6.00005 28.8427,-9.82685l0 -21.0002 -195.002 0z" />
      </glyph>
      <glyph
         id="glyph69"
         horiz-adv-x="551"
         unicode="ň">
        <path
           id="path71"
           d="M327.664 0l0 21.0002c23.3388,6.1654 40.6775,11.6694 51.6618,16.1576 11.1733,4.51185 16.6773,9.16543 16.6773,13.6773l0 258.829c0,19.8427 -1.18111,36.0003 -3.49609,48.3311 -2.17325,12.4962 -5.83469,22.1813 -10.6772,29.3388 -5.00791,7.32289 -11.3387,12.1655 -19.4883,14.8348 -8.00794,2.50396 -17.6694,3.8268 -29.1735,3.8268 -9.9922,0 -21.3309,-2.50396 -33.827,-7.32289 -12.3308,-4.84256 -25.6774,-12.6615 -39.8507,-23.5041 -14.3151,-10.6772 -29.1498,-24.827 -44.646,-42.331 -15.5198,-17.3387 -31.1813,-38.835 -46.8429,-64.347l0 -217.655c0,-4.84256 6.1654,-9.82685 18.3309,-15.1655 12.1655,-5.17327 28.8427,-9.9922 50.0083,-14.6694l0 -21.0002 -209.671 0 0 21.0002c21.4962,5.66934 38.1735,10.4883 50.339,15.0001 12.0001,4.32287 18.0001,9.33078 18.0001,14.8348l0 297.002c0,12.8269 -0.519689,22.8191 -1.51182,30.3309 -0.992134,7.48825 -3.66145,13.4883 -8.00794,17.6694 -4.32287,4.15751 -11.1497,7.32289 -20.3151,9.33078 -9.00007,2.00789 -22.0159,3.8268 -38.5042,5.83469l0 19.323c22.1577,3.49609 42.6618,8.66936 61.4887,15.1655 18.8505,6.68509 37.3468,14.5041 55.5122,23.5041l17.008 -17.1734 5.315 -121.489c14.3387,21.6616 30.1656,41.1736 47.5043,58.3233 17.3387,17.008 34.6774,31.5121 52.3469,43.5122 17.6458,11.8347 34.6538,21.0002 51.1658,27.3309 16.4883,6.33076 31.1577,9.49614 43.8192,9.49614 14.008,0 27.4963,-2.17325 40.6775,-6.33076 12.9922,-4.32287 24.4963,-10.8426 34.4885,-19.4883 9.82685,-8.83472 17.8348,-20.008 24.0002,-33.5199 6.00005,-13.4883 9.00007,-29.3152 9.00007,-47.646l0 -311.176c0,-4.51185 5.00791,-9.00007 14.8348,-13.5119 9.9922,-4.32287 27.827,-9.82685 53.5044,-16.323l0 -21.0002 -209.671 0zm-19.323 522.996l-52.1815 0 -129.001 174.001c2.3386,3.33073 4.34649,6.1654 6.00005,8.33865 1.51182,2.3386 3.16538,4.32287 4.51185,5.83469 1.4882,1.65356 3.16538,3.16538 5.00791,4.48822 1.81891,1.18111 3.99216,2.66931 6.49611,4.34649l134.316 -122.505 131.836 122.505c5.50398,-3.00002 9.49614,-5.83469 11.6694,-8.83472 2.3386,-2.83467 5.50398,-7.67723 9.33078,-14.1733l-127.985 -174.001z" />
      </glyph>
      <glyph
         id="glyph73"
         horiz-adv-x="297"
         unicode="I">
        <path
           id="path75"
           d="M34.1696 0l0 21.0002c22.1695,4.50004 39.4964,9.49614 51.9925,14.8348 12.508,5.32681 18.8387,10.3347 18.8387,15.0001l0 513.004c0,3.8268 -6.00005,8.65755 -17.8348,14.4922 -11.8347,5.83469 -29.5042,11.1733 -52.9965,15.6734l0 21.0002 219.663 0 0 -21.0002c-22.1695,-4.50004 -39.4964,-9.6733 -52.0043,-15.1655 -12.4962,-5.50398 -18.8269,-10.5001 -18.8269,-15.0001l0 -513.004c0,-4.00397 6.00005,-8.83472 17.8348,-14.5041 11.8347,-5.66934 29.4924,-10.8308 52.9965,-15.3308l0 -21.0002 -219.663 0z" />
      </glyph>
      <glyph
         id="glyph77"
         horiz-adv-x="478"
         unicode="F">
        <path
           id="path79"
           d="M24.1732 0l0 21.0079c22.1575,4.48819 39.4961,9.49606 52,14.8189 12.4882,5.33858 18.8346,10.3465 18.8346,15.0079l0 512.992c0,3.84252 -6,8.67717 -17.8425,14.5039 -11.8268,5.84252 -29.4961,11.1654 -52.9921,15.6693l0 21.0079 398.331 0 15.1654 -12.1732c-0.330709,-8.50394 -1.16535,-17.8268 -2.50394,-28 -1.33858,-10 -2.83465,-20.1732 -4.66142,-30.1732 -1.66929,-10.1575 -3.66929,-19.6535 -5.84252,-28.8346 -2,-9.16535 -4.15748,-16.8189 -6,-22.9921l-22.9921 0c-0.661417,14.9921 -1.84252,27.4961 -3.66929,37.6693 -1.82677,10 -4.33071,18.1575 -7.82677,24.1575 -3.33858,6 -7.51181,10.1732 -12.1732,12.6772 -4.66142,2.48819 -10.1732,3.66929 -16.3307,3.66929l-182.661 0 0 -212 182.661 0 14.1575 -13.6693c-2.99213,-4.50394 -6.33071,-9.51181 -10.3307,-14.6772 -3.82677,-5.16535 -8,-10.3307 -12.1575,-15.3228 -4.17323,-5.00787 -8.33071,-9.66929 -12.5039,-14 -4,-4.17323 -7.66929,-7.66929 -11.0079,-10.1732 -4.8189,4.83465 -10,9.00787 -15.4961,12.1732 -5.66929,3.32283 -12,6 -19.3228,8.33071 -7.33858,2.33071 -16,3.82677 -25.8425,4.83465 -10,0.992126 -21.8268,1.49606 -35.4961,1.49606l-54.6614 0 0 -267.165c0,-4 6.33071,-8.33071 18.8189,-13.1654 12.5039,-5.00787 34.6772,-10.5039 66.6772,-16.6614l0 -21.0079 -234.331 0z" />
      </glyph>
      <glyph
         id="glyph81"
         horiz-adv-x="493"
         unicode="y">
        <path
           id="path83"
           d="M482.835 433.008c-9.66929,-2.34646 -17.6693,-4.34646 -23.8268,-6.34646 -6.17323,-2 -11.1811,-4.15748 -15.1811,-6.66142 -3.82677,-2.33071 -6.8189,-5.16535 -8.99213,-8.17323 -2.17323,-3.16535 -4,-7.16535 -5.66929,-12l-162.992 -439.827c-13.6693,-36.1732 -29.0079,-67.0079 -45.6693,-92.6614 -16.8346,-25.6693 -34.1732,-46.8346 -52.3307,-63.3386 -18,-16.3307 -36.1732,-28.5039 -54.3465,-36.3307 -18.3307,-7.84252 -35.4961,-11.6693 -51.8268,-11.6693 -12.3307,0 -23.8268,0.834646 -34.1732,2.50394 -10.4882,1.49606 -19.3228,3.66929 -26.8189,6 -7.51181,2.48819 -13.3386,5.32283 -17.6693,8.33071 -4.17323,3.16535 -6.34646,6.15748 -6.34646,8.99213 0,2 2,5.84252 5.84252,11.8425 4,5.82677 8.83465,12.1575 14.6614,19.1654 5.84252,6.99213 12.1732,13.8268 18.8346,20.3307 6.67717,6.50394 12.6772,11.3386 17.8425,14.6614 15.6535,-9.16535 31.1654,-14 46.6614,-14.6614 15.4961,-0.661417 29.1654,1.33858 41.1654,5.82677 6,2 12.8346,6.50394 20.5039,13.6693 7.82677,7.16535 15.8268,16 23.8268,26.3307 7.84252,10.5039 15.6693,22.1732 23.3386,35.3386 7.66929,13.1654 14.5039,26.8346 20.3307,40.8346l14.1732 33.6693 -160.173 410.992c-2.99213,9.1811 -8.66142,16 -17.1654,20.6772 -8.33071,4.83465 -20.8346,8.99213 -37.0079,12.5039l0 20.9921 188.504 0 0 -20.9921c-12.8346,-1.66929 -23.1654,-3.1811 -31.1654,-4.83465 -7.82677,-1.66929 -14,-3.66929 -18.5039,-6.17323 -4.33071,-2.33071 -6.83465,-5.33858 -7.49606,-8.99213 -0.661417,-3.51181 0,-8 1.84252,-13.1811l120.157 -310.992 112.835 310.992c1.66929,4.83465 1.82677,9.00787 0.661417,12.5039 -1.16535,3.33858 -3.82677,6.33071 -8.33071,8.67717 -4.33071,2.48819 -10.5039,4.66142 -18.5039,6.33071 -8,1.82677 -18,3.66929 -30,5.66929l0 20.9921 163.008 0 0 -20.9921z" />
      </glyph>
      <glyph
         id="glyph85"
         horiz-adv-x="280"
         unicode="ł">
        <path
           id="path87"
           d="M34.8428 0l0 21.0002c13.9844,2.3386 25.6537,4.6772 34.9845,7.15754 9.49614,2.3386 17.008,4.84256 22.512,7.18116 5.50398,2.50396 9.49614,4.98429 12.0001,7.6536 2.50396,2.66931 3.66145,5.17327 3.66145,7.84258l0 279.829 -69.3313 -48.8272 -11.6694 8.33865c0.661423,4.15751 1.15749,7.6536 1.84253,10.1576 0.661423,2.66931 1.4882,5.33862 2.31498,8.17329 0.685045,2.66931 1.84253,6.1654 3.33073,10.1576 1.51182,3.99216 3.51971,9.49614 6.18903,16.3466l67.3234 46.9846 0 251.01c0,14.6694 -0.992134,25.9845 -3.00002,34.1577 -1.84253,8.17329 -5.50398,14.1733 -10.6772,18.3309 -5.14965,4.01578 -12.1655,6.85045 -21.0002,8.33865 -8.83472,1.32285 -19.9844,3.00002 -33.6617,4.51185l0 19.6537c23.3388,4.51185 44.835,9.49614 64.347,15.0001 19.4883,5.66934 39.331,13.6773 59.4808,24.0002l17.5041 -16.6537 0 -307.68 71.8352 50.339 11.1733 -7.84258c-0.992134,-5.50398 -1.84253,-9.82685 -2.66931,-13.1576 -0.826778,-3.16538 -1.67718,-6.33076 -2.66931,-9.00007 -0.992134,-2.83467 -2.17325,-5.83469 -3.49609,-9.00007 -1.15749,-3.33073 -3.00002,-7.67723 -5.33862,-13.1812l-68.8352 -48.8272 0 -331.16c0,-5.00791 5.50398,-9.9922 16.6773,-15.1655 10.9843,-5.17327 29.8349,-10.1812 56.5044,-14.6694l0 -21.0002 -219.332 0z" />
      </glyph>
      <glyph
         id="glyph89"
         horiz-adv-x="529"
         unicode="þ">
        <path
           id="path91"
           d="M425.008 199.339c0,32.3307 -3.33858,61.3228 -10,86.9921 -6.67717,25.6693 -15.6693,47.6693 -26.6772,65.6693 -11.1654,18.1732 -24,32 -38.6614,41.6693 -14.6614,9.49606 -29.8425,14.3307 -45.4961,14.3307 -6,0 -13.6693,-1.82677 -23.0079,-5.33858 -9.49606,-3.65354 -20.3307,-9.65354 -32.3307,-18.1575 -12.1732,-8.50394 -25.0079,-19.6693 -38.6614,-33.8425 -13.8425,-14.1575 -27.8425,-31.6535 -42.1732,-52.6614l0 -193.827c25.1654,-19.6693 49.1654,-34.5039 72,-44.8346 22.8346,-10.1732 45.4961,-15.3386 68,-15.3386 18.6614,0 35.1654,4.33071 49.4961,13.1654 14.3307,8.83465 26.5039,20.5039 36.6772,35.1654 10.1575,14.6772 17.8268,31.3386 22.9921,49.8425 5.16535,18.6614 7.84252,37.6535 7.84252,57.1654zm66 40.8346c0,-18.8346 -2.50394,-38.3465 -7.66929,-58.1732 -5.00787,-19.8268 -12,-39.1654 -21.1654,-58.1732 -9.16535,-18.8189 -20.1732,-36.8189 -32.8346,-53.8268 -12.6772,-16.8346 -26.8346,-31.6693 -42.5039,-44.1732 -15.6693,-12.4882 -32.6614,-22.4882 -50.6614,-29.8268 -18.1732,-7.33858 -37.0079,-11.0079 -56.6772,-11.0079 -5.16535,0 -11.6693,0.834646 -19.6693,2.67717 -8,1.82677 -16.9921,4.83465 -26.6614,8.83465 -9.82677,4.15748 -20.3307,9.32283 -31.3386,15.8268 -11.1654,6.33071 -22.3307,14.3307 -33.8268,23.8425l0 -219.008c0,-5.16535 6.17323,-10.3307 18.5039,-15.4961 12.5039,-5.33858 33.8268,-10.1732 64.5039,-14.6772l0 -20.9921 -224.346 0 0 20.9921c21.5118,5.1811 38.1732,10.1732 50.3465,14.8346 12,4.83465 18,9.84252 18,15.5118l0 815.669c0,14.6614 -1.00787,26 -3.00787,34.1575 -1.82677,8.17323 -5.33858,14.1732 -10.5039,18.3307 -4.99213,4 -12,6.83465 -20.9921,8.33071 -8.83465,1.51181 -20.1732,3.00787 -33.8425,4.67717l0 19.4961c23.3386,4.50394 45.0079,9.49606 64.6772,15.0079 19.6693,5.65354 39.1654,13.6535 58.6614,24l18 -16.6772 0.330709 -382.157c16.6772,19.8268 33.0079,36.8346 49.3386,50.8346 16.3307,14 31.6693,25.3228 46.1575,34.3307 14.5039,8.99213 28,15.4961 40.3465,19.4961 12.4882,4.17323 23.3228,6.17323 32.8346,6.17323 22.1575,0 42.6614,-5.1811 61.6535,-15.6693 18.8346,-10.3307 35.1654,-25.5118 48.8346,-45.1654 13.6693,-19.6693 24.3307,-43.8425 32,-72.1732 7.66929,-28.3307 11.5118,-60.3307 11.5118,-95.8268z" />
      </glyph>
      <glyph
         id="glyph93"
         horiz-adv-x="493"
         unicode="v">
        <path
           id="path95"
           d="M482.835 433.008c-9.66929,-2.34646 -17.6693,-4.34646 -23.8268,-6.34646 -6.17323,-2 -11.1811,-4.15748 -15.1811,-6.66142 -3.82677,-2.33071 -6.8189,-5.16535 -8.99213,-8.33071 -2.17323,-3.00787 -4,-7.00787 -5.66929,-11.8425l-138.157 -371.323c-2.83465,-7.16535 -7.1811,-13.3386 -12.6772,-18.3307 -5.49606,-5.00787 -11.4961,-9.33858 -18,-12.6772 -6.66142,-3.49606 -12.9921,-6.15748 -19.3228,-8.15748 -6.34646,-1.84252 -11.6693,-3.33858 -15.8425,-4.34646l-161.165 414.835c-2.99213,9.00787 -8.66142,16 -17.1654,20.6772 -8.33071,4.83465 -20.8346,8.99213 -37.0079,12.5039l0 20.9921 188.504 0 0 -20.9921c-12.8346,-1.66929 -23.1654,-3.33858 -31.1654,-4.83465 -7.82677,-1.66929 -14,-3.66929 -18.5039,-6.17323 -4.33071,-2.50394 -6.83465,-5.49606 -7.49606,-8.99213 -0.661417,-3.66929 0,-8 1.84252,-13.1811l120.157 -313.165 112.835 313.165c1.66929,4.83465 2.17323,9.00787 1.66929,12.3465 -0.503937,3.49606 -2.66142,6.33071 -6.50394,8.83465 -4,2.48819 -9.66929,4.66142 -16.8346,6.33071 -7.32283,1.82677 -17.1654,3.66929 -29.1654,5.66929l0 20.9921 157.669 0 0 -20.9921z" />
      </glyph>
      <glyph
         id="glyph97"
         horiz-adv-x="461"
         unicode="e">
        <path
           id="path99"
           d="M242.173 418c-17.0079,0 -32.5039,-3.33858 -46.6772,-9.82677 -14.1575,-6.50394 -26.8346,-15.8425 -37.6693,-27.6693 -10.9921,-12 -20,-26.1732 -27.4961,-42.8346 -7.32283,-16.5039 -12.3307,-34.6614 -15.3228,-54.6614l209.323 0c7.49606,0 12.5039,1.16535 15.0079,3.65354 2.48819,2.50394 3.66929,7.16535 3.66929,14 0,8.83465 -1.1811,19.8425 -3.66929,33.1654 -2.50394,13.1811 -7.33858,26.1732 -14.6772,38.8346 -7.32283,12.5039 -17.6535,23.1654 -30.8346,32 -13.1654,8.83465 -30.4882,13.3386 -51.6535,13.3386zm180.835 -146.173c-5.84252,-6.48819 -13.6693,-12.6614 -23.5118,-18.1575 -9.66929,-5.49606 -19.8268,-10.5039 -30.3307,-14.6614l-257.165 0c0.330709,-25.5118 3.82677,-49.6693 10.5039,-72.6772 6.66142,-22.9921 16.3307,-43.3228 28.8346,-60.8346 12.4882,-17.4961 27.6693,-31.3228 45.4961,-41.8268 17.8268,-10.5039 37.6693,-15.6693 59.8268,-15.6693 10.1732,0 20,0.661417 29.6693,2 9.49606,1.33858 20,4.17323 31.0079,8.66142 10.9921,4.67717 23.3228,11.3386 36.8346,20.1732 13.6535,8.66142 29.4961,20.6614 47.6535,35.4961 4.34646,-2.15748 8,-5.49606 11.0079,-9.66929 3.16535,-4.33071 5.49606,-7.65354 7.16535,-10.3307 -21.8268,-23.6693 -40.9921,-42.8346 -57.3386,-57.1654 -16.4882,-14.5039 -32,-25.4961 -46.4882,-33.3386 -14.5039,-7.65354 -28.8346,-12.8346 -43.0079,-15.1654 -14.1575,-2.48819 -29.4961,-3.66929 -46.1575,-3.66929 -25.0079,0 -48.8346,5.33858 -71.5118,16.1732 -22.6614,10.6614 -42.4882,26 -59.8268,45.6693 -17.3386,19.6693 -31.0079,43.4961 -41.3386,71.3386 -10.1575,28 -15.3228,59.1654 -15.3228,93.6535 0,21.8425 2.48819,43.3386 7.32283,64.5039 4.83465,21.1654 12,41.3386 21.1654,60.1732 9.33858,18.8346 20.6772,36.3307 34,52.3307 13.3386,16 28.5039,29.8268 45.5118,41.4961 7.16535,5.00787 15.1654,9.66929 24.1575,14.5039 9.00787,4.66142 18.3307,8.83465 28.1732,12.5039 9.66929,3.49606 19.3228,6.33071 28.9921,8.48819 9.66929,2.17323 18.8346,3.1811 27.6693,3.1811 21.1654,0 40,-3.00787 56.6614,-8.83465 16.5039,-5.84252 31.0079,-13.8425 43.3386,-23.6693 12.5039,-10 22.8346,-21.4961 31.3386,-34.8346 8.48819,-13.1654 15.3228,-27.1654 20.8346,-41.8425 5.32283,-14.6614 9.16535,-29.4961 11.3228,-44.6614 2.33071,-15.1654 3.51181,-29.6693 3.51181,-43.3386z" />
      </glyph>
      <glyph
         id="glyph101"
         horiz-adv-x="536"
         unicode="C">
        <path
           id="path103"
           d="M497.165 103.005c-20.8348,-22.0041 -40.6657,-40.6657 -59.8351,-55.843 -18.9923,-15.1655 -37.3349,-27.4963 -55.1579,-36.6617 -17.6694,-9.16543 -35.1735,-15.6615 -52.1697,-19.6655 -17.1734,-3.83861 -34.1696,-5.83469 -51.0004,-5.83469 -30.3309,0 -60.0005,6.83864 -89.1739,20.5041 -29.1616,13.6655 -55.3233,33.331 -78.4967,59.1619 -23.1616,25.6656 -41.835,57.1658 -55.9965,94.5007 -14.1733,37.3349 -21.3309,79.666 -21.3309,126.828 0,52.1697 7.99613,99.3433 23.8348,141.674 15.8269,42.331 37.3231,78.4967 64.3233,108.497 27.0002,30.0002 58.5005,53.1618 94.3354,69.3313 35.8349,16.3348 73.6659,24.5081 113.67,24.5081 35.1617,0 66.0005,-4.6772 92.67,-14.1733 26.4923,-9.49614 48.1657,-21.1655 65.1619,-34.9963 1.83072,-1.50001 1.33466,-4.83075 -1.50001,-9.6733 -3.00002,-4.9961 -7.00399,-10.5001 -12.0001,-16.6655 -4.9961,-6.1654 -10.3347,-12.3308 -16.1694,-18.4962 -5.66934,-6.1654 -10.5001,-11.3387 -14.3269,-15.1655l-17.1734 3.00002c-16.5001,15.1655 -36.1656,27.827 -58.9965,37.5003 -22.8309,9.82685 -49.0043,14.6694 -78.662,14.6694 -11.008,0 -23.1734,-2.00789 -36.3428,-6.1654 -13.1576,-4.00397 -26.4923,-10.5001 -39.8271,-19.1694 -13.3348,-8.83472 -26.1734,-20.3387 -38.5042,-34.5003 -12.3308,-14.1733 -23.327,-31.3349 -33.0003,-51.5083 -9.66149,-20.1616 -17.3269,-43.5003 -22.9962,-69.9927 -5.66934,-26.5041 -8.504,-56.6697 -8.504,-90.4968 0,-43.335 6.33076,-81.166 18.8387,-113.67 12.4962,-32.6695 28.6656,-59.6698 48.3311,-81.3313 19.6655,-21.6734 41.6696,-37.831 65.8352,-48.839 24.3309,-10.8308 48.0004,-16.3348 71.162,-16.3348 17.5041,0 40.5003,6.00005 68.8352,18.0001 28.3349,12.1655 60.3312,33.1656 96.1661,63.0005 1.66537,-0.661423 3.33073,-1.99608 5.17327,-4.16932 1.66537,-1.99608 3.49609,-4.32287 4.9961,-6.49611 1.66537,-2.32679 3.16538,-4.50004 4.50004,-6.66147 1.33466,-2.00789 2.32679,-3.67326 3.33073,-4.66539z" />
      </glyph>
      <glyph
         id="glyph105"
         horiz-adv-x="520"
         unicode="T">
        <path
           id="path107"
           d="M333.995 0l-217.821 0 3.00002 21.0002c27.9923,6.1654 47.835,12.4962 59.3154,18.8269 11.504,6.33076 17.6694,11.8347 18.3545,16.3466l71.6462 514.823 -132.332 0c-4.15751,0 -8.14967,-0.826778 -11.8347,-2.66931 -3.8268,-1.81891 -7.98431,-5.66934 -12.4962,-11.504 -4.48822,-5.83469 -9.9922,-14.3151 -16.1576,-25.6537 -6.1654,-11.1733 -13.6773,-26.1734 -22.3466,-45.1657l-18.1655 9.33078c1.01576,8.504 2.50396,18.0001 4.6772,28.4884 2.17325,10.6772 4.48822,21.3545 7.32289,32.3388 2.66931,10.8426 5.66934,21.3309 8.83472,31.5121 3.00002,10.1576 6.00005,19.323 9.00007,27.3309l450.169 0 10.6772 -12.1655c-1.18111,-7.67723 -2.83467,-16.5119 -4.84256,-26.3388 -2.00789,-9.82685 -4.15751,-20.008 -6.82683,-30.3309 -2.50396,-10.5119 -5.33862,-20.6695 -8.00794,-30.827 -2.83467,-10.0158 -5.50398,-19.1813 -8.17329,-27.3309l-19.9844 0c-0.661423,16.323 -1.51182,29.8113 -2.83467,40.4885 -1.34647,10.8426 -3.16538,19.323 -5.66934,25.6774 -2.50396,6.33076 -5.66934,10.6536 -9.82685,13.1576 -4.01578,2.50396 -9.33078,3.66145 -15.8505,3.66145l-125.481 0 -70.347 -514.823c-0.496067,-4.18114 4.18114,-9.68512 14.1733,-16.1812 10.1576,-6.49611 28.3231,-12.8269 54.8272,-18.9923l-3.00002 -21.0002z" />
      </glyph>
      <glyph
         id="glyph109"
         horiz-adv-x="386"
         unicode="s">
        <path
           id="path111"
           d="M342.003 138.001c0,-23.1734 -3.33073,-42.8271 -9.82685,-59.339 -6.51974,-16.4883 -14.8348,-30.4963 -25.3467,-41.835 -10.3229,-11.3387 -21.9923,-20.5041 -34.6538,-27.3309 -12.6851,-6.82683 -25.1813,-12.1655 -37.5121,-15.6615 -12.4962,-3.66145 -24.0002,-6.00005 -35.0081,-7.15754 -10.819,-1.18111 -19.4883,-1.67718 -25.6537,-1.67718 -15.4962,0 -34.3231,3.00002 -56.339,8.83472 -21.9923,5.83469 -43.8192,14.8348 -65.6698,27.0002 -2.31498,0.826778 -3.8268,6.1654 -4.65358,15.8269 -0.8504,9.66149 -1.01576,20.6695 -0.496067,33.1656 0.496067,12.6615 1.4882,25.1813 3.00002,37.8428 1.4882,12.8269 3.16538,22.8191 5.14965,30.3309l21.0002 -5.33862c0.685045,-13.6537 4.34649,-26.5041 10.8426,-38.6696 6.49611,-12.0001 15.3308,-22.323 26.1734,-31.1577 10.9843,-8.83472 23.8348,-15.8269 38.3153,-21.0002 14.5041,-5.17327 30.3309,-7.84258 47.339,-7.84258 11.6694,0 22.512,1.84253 32.3388,5.66934 9.82685,3.66145 18.3309,8.83472 25.4884,15.6615 7.18116,6.68509 12.6851,14.6694 16.6773,24.1655 3.8268,9.3544 5.83469,19.8427 5.83469,31.1813 0,13.1576 -3.49609,24.6616 -10.5119,34.8192 -6.99218,10.0158 -16.1576,19.1813 -27.6616,27.5199 -11.3387,8.31503 -24.3309,16.1576 -38.835,23.4805 -14.5041,7.34651 -29.3388,15.0001 -44.3153,22.6773 -13.6773,6.82683 -26.8349,14.1733 -39.6854,21.9923 -12.6615,7.84258 -24.0002,16.6773 -33.9924,26.5041 -9.82685,9.66149 -17.8348,20.6695 -24.0002,32.6695 -6.00005,12.1655 -9.00007,26.0081 -9.00007,41.6696 0,20.1734 3.99216,38.1735 12.1655,54.0004 8.17329,15.6615 18.9923,29.0081 32.5042,39.8271 13.4883,10.6772 29.0081,18.8269 46.3232,24.6616 17.5041,5.66934 35.5042,8.504 54.0004,8.504 10.1812,0 21.3309,-0.826778 33.4963,-2.66931 12.1655,-1.81891 24.1655,-4.32287 36.1656,-7.6536 11.8347,-3.16538 23.0081,-7.18116 33.3546,-11.6694 10.4883,-4.51185 18.9923,-9.82685 25.4884,-15.6615 1.84253,-2.00789 2.17325,-6.33076 0.661423,-13.1812 -1.4882,-6.82683 -3.66145,-14.3387 -6.82683,-22.4884 -3.00002,-8.17329 -6.33076,-15.8505 -9.9922,-23.0081 -3.49609,-7.15754 -6.33076,-12.0001 -8.33865,-14.5041l-18.9923 3.85042c-15.6852,23.4805 -31.8428,39.8271 -48.6854,48.9925 -16.819,9.33078 -33.331,14.008 -49.3232,14.008 -10.6772,0 -20.3387,-1.84253 -28.8427,-5.33862 -8.48038,-3.66145 -15.8269,-8.33865 -21.8269,-14.008 -6.00005,-5.66934 -10.4883,-12.0001 -13.6537,-18.8269 -3.189,-6.82683 -4.6772,-13.6773 -4.6772,-20.5041 0,-10.5119 3.16538,-19.8427 9.33078,-28.1577 6.1654,-8.33865 14.3387,-16.0159 24.4963,-23.3388 10.0158,-7.34651 21.4962,-14.5041 34.5121,-21.1655 12.8269,-6.66147 26.1498,-13.5119 39.8271,-20.6695 14.008,-7.15754 28.1577,-14.8348 42.4964,-23.0081 14.3387,-8.14967 27.3309,-17.5041 38.6696,-28.1577 11.504,-10.5119 20.6695,-22.6773 27.827,-36.1656 7.18116,-13.5119 10.8426,-29.3388 10.8426,-47.6697z" />
      </glyph>
      <glyph
         id="glyph113"
         horiz-adv-x="600"
         unicode="Q">
        <path
           id="path115"
           d="M480 307.339c0,22.4882 -2,44.6614 -6.17323,66.6614 -4,22 -9.82677,42.8346 -17.3228,62.5039 -7.33858,19.6693 -16.6772,38 -27.4961,54.6614 -10.8346,16.8346 -23.1811,31.3386 -36.8346,43.4961 -13.6693,12.1732 -28.6772,21.8425 -45.0079,28.8346 -16.1575,7.00787 -33.6693,10.5039 -52.1575,10.5039 -29.0079,0 -54.8346,-6.17323 -77.8425,-18.3307 -22.9921,-12.1732 -42.3307,-29.6693 -58.1575,-52.3307 -15.6693,-22.5039 -27.8425,-50 -36.3465,-82.1732 -8.48819,-32.3307 -12.6614,-68.3307 -12.6614,-108 0,-36.5039 5.00787,-70.9921 14.8346,-103.496 10,-32.6614 23.3386,-61.1654 40,-85.8425 16.8346,-24.4882 36.5039,-44 58.8346,-58.3307 22.5039,-14.3307 46.3307,-21.4961 71.3386,-21.4961 26.9921,0 51.8268,5.66929 74.4882,16.8346 22.5039,11.3386 42,28 58.5039,50.1732 16.5039,22 29.1654,49.6535 38.3307,82.4882 9.16535,32.8346 13.6693,70.8346 13.6693,113.843zm146.173 -364.346c-7.84252,-14.3307 -15.8425,-27.1654 -24,-38.3307 -8.17323,-11.3228 -16,-20.9921 -23.8425,-28.9921 -7.82677,-8 -15.3228,-14 -22.3307,-18.3307 -6.99213,-4.17323 -12.8346,-6.34646 -17.6693,-6.34646 -20.3307,0 -40.1575,5.00787 -59.8268,15.0079 -19.8425,9.82677 -39.3386,22 -58.8346,36.1732 -19.6693,14.1575 -39.0079,28.9921 -58.5039,44.4882 -19.3386,15.5118 -38.8346,29.0079 -58.3307,40.3307 -7.49606,-1.32283 -14.8346,-2 -22,-2 -35.8268,0 -69.0079,8.34646 -99.1654,25.0079 -30.3307,16.5039 -56.5039,39.0079 -78.3307,67.3386 -21.8425,28.3307 -38.8346,61.6693 -51.0079,99.6693 -12.1575,38.1575 -18.3307,78.6614 -18.3307,121.654 0,44.3465 7.16535,86.5039 21.4961,126.677 14.3307,40 33.8425,75.1654 58.6772,105.496 24.8346,30.3307 53.8268,54.3307 87.1654,72.3307 33.4961,17.8425 69.3228,26.8346 107.827,26.8346 40.3307,0 76,-8.83465 106.504,-26.6614 30.6614,-17.6693 56.5039,-41.1654 77.3386,-70.5039 20.8189,-29.3386 36.4882,-62.8346 47.1654,-100.504 10.4882,-37.8268 15.8268,-76.5039 15.8268,-116.331 0,-34.5039 -4.50394,-67.8268 -13.6693,-100 -9.16535,-32.3307 -21.8268,-62 -38.1575,-89.1654 -16.3465,-27.1654 -35.5118,-51.1654 -57.8425,-72 -22.3307,-20.8346 -46.5039,-37.1654 -72.6614,-48.8346 14.9921,-7.82677 29.8268,-16.6614 44.6614,-26.3307 14.8346,-9.84252 29.3386,-18.8346 43.4961,-27.3386 14.1732,-8.50394 27.8425,-15.6693 41.3386,-21.4961 13.3386,-5.84252 26,-8.83465 38,-8.83465 3.84252,0 8,0.661417 12.5039,2 4.33071,1.33858 9.33858,3.33858 14.8346,6.33071 5.49606,2.83465 11.8268,6.83465 18.9921,11.6693 7.16535,4.83465 15.6693,10.9921 25.5118,18.1732l13.1654 -17.1811z" />
      </glyph>
      <glyph
         id="glyph117"
         horiz-adv-x="386"
         unicode="š">
        <path
           id="path119"
           d="M342 138c0,-23.1654 -3.33858,-42.8346 -9.82677,-59.3386 -6.50394,-16.4882 -14.8346,-30.4882 -25.3386,-41.8268 -10.3307,-11.3386 -22,-20.5039 -34.6614,-27.3386 -12.6772,-6.83465 -25.1654,-12.1575 -37.5118,-15.6693 -12.4882,-3.65354 -24,-6 -34.9921,-7.16535 -10.8346,-1.16535 -19.4961,-1.66929 -25.6693,-1.66929 -15.4961,0 -34.3307,3.00787 -56.3307,8.83465 -22,5.84252 -43.8425,14.8346 -65.6693,27.0079 -2.33071,0.834646 -3.82677,6.17323 -4.66142,15.8268 -0.834646,9.66929 -1.00787,20.6772 -0.503937,33.1654 0.503937,12.6772 1.49606,25.1811 2.99213,37.8425 1.51181,12.8346 3.1811,22.8346 5.1811,30.3307l20.9921 -5.33858c0.661417,-13.6535 4.33071,-26.4882 10.8346,-38.6614 6.50394,-12 15.3386,-22.3307 26.1732,-31.1654 10.9921,-8.83465 23.8268,-15.8268 38.3307,-21.0079 14.4882,-5.16535 30.3307,-7.82677 47.3228,-7.82677 11.6693,0 22.5039,1.82677 32.3465,5.66929 9.82677,3.66929 18.3307,8.83465 25.4961,15.6693 7.16535,6.66142 12.6614,14.6614 16.6614,24.1575 3.84252,9.33858 5.84252,19.8425 5.84252,31.1654 0,13.1654 -3.51181,24.6772 -10.5039,34.8346 -7.00787,10 -16.1732,19.1654 -27.6693,27.5118 -11.3386,8.33071 -24.3307,16.1575 -38.8346,23.4961 -14.5039,7.32283 -29.3386,14.9921 -44.3307,22.6614 -13.6693,6.83465 -26.8346,14.1732 -39.6693,22 -12.6614,7.84252 -24,16.6614 -34,26.5039 -9.82677,9.66929 -17.8268,20.6614 -24,32.6614 -6,12.1732 -8.99213,26 -8.99213,41.6693 0,20.1732 4,38.1732 12.1575,54 8.17323,15.6693 19.0079,29.0079 32.5039,39.8268 13.4961,10.6772 28.9921,18.8346 46.3307,24.6772 17.4961,5.66929 35.4961,8.50394 54,8.50394 10.1732,0 21.3386,-0.834646 33.4961,-2.67717 12.1732,-1.82677 24.1732,-4.33071 36.1732,-7.66929 11.8268,-3.16535 22.9921,-7.16535 33.3386,-11.6535 10.4882,-4.50394 18.9921,-9.84252 25.4961,-15.6693 1.82677,-2 2.15748,-6.33071 0.661417,-13.1654 -1.49606,-6.83465 -3.66929,-14.3465 -6.83465,-22.5039 -2.99213,-8.17323 -6.33071,-15.8425 -10,-23.0079 -3.49606,-7.16535 -6.33071,-12 -8.33071,-14.4882l-18.9921 3.82677c-15.6693,23.4961 -31.8425,39.8268 -48.6772,49.0079 -16.8346,9.32283 -33.3228,14 -49.3228,14 -10.6772,0 -20.3465,-1.84252 -28.8346,-5.33858 -8.50394,-3.66929 -15.8425,-8.33071 -21.8425,-14 -6,-5.66929 -10.5039,-12 -13.6693,-18.8346 -3.16535,-6.83465 -4.66142,-13.6693 -4.66142,-20.5039 0,-10.5039 3.16535,-19.8268 9.33858,-28.1575 6.15748,-8.34646 14.3307,-16 24.4882,-23.3386 10,-7.33858 21.5118,-14.5039 34.5039,-21.1654 12.8346,-6.66142 26.1732,-13.4961 39.8425,-20.6614 14,-7.1811 28.1575,-14.8346 42.4882,-23.0079 14.3465,-8.17323 27.3386,-17.4961 38.6772,-28.1732 11.4961,-10.4882 20.6614,-22.6614 27.8268,-36.1575 7.16535,-13.4961 10.8346,-29.3386 10.8346,-47.6693zm-121.669 385.008l-52.1575 0 -129.008 174c2.33071,3.32283 4.33071,6.15748 6,8.33071 1.49606,2.33071 3.16535,4.33071 4.50394,5.82677 1.49606,1.66929 3.16535,3.16535 4.99213,4.50394 1.84252,1.16535 4,2.66142 6.50394,4.33071l134.331 -122.504 131.843 122.504c5.49606,-2.99213 9.49606,-5.82677 11.6693,-8.83465 2.33071,-2.83465 5.49606,-7.66929 9.32283,-14.1575l-128 -174z" />
      </glyph>
      <glyph
         id="glyph121"
         horiz-adv-x="536"
         unicode="Č">
        <path
           id="path123"
           d="M497.165 103.005c-20.8348,-22.0041 -40.6657,-40.6657 -59.8351,-55.843 -18.9923,-15.1655 -37.3349,-27.4963 -55.1579,-36.6617 -17.6694,-9.16543 -35.1735,-15.6615 -52.1697,-19.6655 -17.1734,-3.83861 -34.1696,-5.83469 -51.0004,-5.83469 -30.3309,0 -60.0005,6.83864 -89.1739,20.5041 -29.1616,13.6655 -55.3233,33.331 -78.4967,59.1619 -23.1616,25.6656 -41.835,57.1658 -55.9965,94.5007 -14.1733,37.3349 -21.3309,79.666 -21.3309,126.828 0,52.1697 7.99613,99.3433 23.8348,141.674 15.8269,42.331 37.3231,78.4967 64.3233,108.497 27.0002,30.0002 58.5005,53.1618 94.3354,69.3313 35.8349,16.3348 73.6659,24.5081 113.67,24.5081 35.1617,0 66.0005,-4.6772 92.67,-14.1733 26.4923,-9.49614 48.1657,-21.1655 65.1619,-34.9963 1.83072,-1.50001 1.33466,-4.83075 -1.50001,-9.6733 -3.00002,-4.9961 -7.00399,-10.5001 -12.0001,-16.6655 -4.9961,-6.1654 -10.3347,-12.3308 -16.1694,-18.4962 -5.66934,-6.1654 -10.5001,-11.3387 -14.3269,-15.1655l-17.1734 3.00002c-16.5001,15.1655 -36.1656,27.827 -58.9965,37.5003 -22.8309,9.82685 -49.0043,14.6694 -78.662,14.6694 -11.008,0 -23.1734,-2.00789 -36.3428,-6.1654 -13.1576,-4.00397 -26.4923,-10.5001 -39.8271,-19.1694 -13.3348,-8.83472 -26.1734,-20.3387 -38.5042,-34.5003 -12.3308,-14.1733 -23.327,-31.3349 -33.0003,-51.5083 -9.66149,-20.1616 -17.3269,-43.5003 -22.9962,-69.9927 -5.66934,-26.5041 -8.504,-56.6697 -8.504,-90.4968 0,-43.335 6.33076,-81.166 18.8387,-113.67 12.4962,-32.6695 28.6656,-59.6698 48.3311,-81.3313 19.6655,-21.6734 41.6696,-37.831 65.8352,-48.839 24.3309,-10.8308 48.0004,-16.3348 71.162,-16.3348 17.5041,0 40.5003,6.00005 68.8352,18.0001 28.3349,12.1655 60.3312,33.1656 96.1661,63.0005 1.66537,-0.661423 3.33073,-1.99608 5.17327,-4.16932 1.66537,-1.99608 3.49609,-4.32287 4.9961,-6.49611 1.66537,-2.32679 3.16538,-4.50004 4.50004,-6.66147 1.33466,-2.00789 2.32679,-3.67326 3.33073,-4.66539zm-170.836 575.993l-52.1579 0 -129.001 150.001c2.32679,3.33073 4.33468,6.00005 6.00005,8.33865 1.50001,2.32679 3.16538,4.15751 4.50004,5.83469 1.50001,1.66537 3.16538,3.16538 4.9961,4.50004 1.83072,1.15749 4.00397,2.6575 6.49611,4.32287l134.34 -102.993 131.836 102.993c5.49217,-3.00002 9.49614,-5.82288 11.6576,-8.8229 2.3386,-2.83467 5.50398,-7.67723 9.34259,-14.1733l-128.009 -150.001z" />
      </glyph>
      <glyph
         id="glyph125"
         horiz-adv-x="502"
         unicode="ø">
        <path
           id="path127"
           d="M389.011 222.167c0,19.4883 -2.50396,38.5042 -7.67723,56.8351 -5.17327,18.4962 -12.0001,35.5042 -20.3387,51.0004l-187.159 -247.514c13.1576,-13.6537 26.8349,-24.3309 41.1736,-31.9845 14.1497,-7.67723 27.9923,-11.504 40.9846,-11.504 23.0081,0 43.0161,4.32287 59.8351,12.9922 16.6773,8.504 30.4963,20.8348 41.3389,36.8507 10.8426,15.9923 18.9923,35.1499 24.1655,57.6619 5.17327,22.323 7.67723,47.6697 7.67723,75.662zm-275.01 8.66936c0,-19.8427 2.66931,-38.835 8.00794,-56.8351 5.315,-18.0001 12.4962,-35.0081 21.4962,-50.5043l187.49 248.01c-12.6615,13.6537 -26.1498,24.3309 -40.6539,31.9845 -14.5041,7.67723 -29.0081,11.504 -43.3468,11.504 -24.6616,0 -45.4964,-4.65358 -62.5044,-14.1733 -16.819,-9.49614 -30.6617,-22.323 -41.1499,-38.8113 -10.5119,-16.5119 -18.0001,-35.8349 -22.512,-58.3469 -4.48822,-22.4884 -6.82683,-46.6539 -6.82683,-72.8273zm348.003 233.175l-49.8429 -66.0005c16.6773,-20.5041 29.3388,-44.5043 38.3389,-71.8352 9.00007,-27.3309 13.5119,-57.1658 13.5119,-89.5046 0,-21.8269 -2.83467,-43.1814 -8.33865,-64.0163 -5.50398,-20.8112 -13.1812,-40.4885 -23.0081,-59.1501 -9.66149,-18.4962 -21.4962,-35.6696 -35.1735,-51.4965 -13.6537,-15.8505 -28.6538,-29.5042 -45.1657,-40.8428 -16.4883,-11.3387 -33.9924,-20.3387 -52.4886,-26.6695 -18.6616,-6.33076 -37.8428,-9.49614 -57.6619,-9.49614 -22.512,0 -43.3468,3.16538 -62.6698,9.33078 -19.1813,6.1654 -36.4964,14.8348 -52.1815,26.3388l-9.33078 -12.1655c-3.00002,-2.66931 -6.99218,-5.66934 -12.4962,-9.16543 -5.33862,-3.33073 -10.819,-6.82683 -16.6537,-10.1812 -5.83469,-3.33073 -11.6694,-6.49611 -17.3387,-9.16543 -5.66934,-2.66931 -10.5119,-4.65358 -14.3387,-6.00005l-14.1733 16.0159 48.8508 64.4887c-17.008,20.5041 -30.0002,44.5043 -39.1657,72.1659 -9.18905,27.4963 -13.6773,57.4965 -13.6773,90.1661 0,21.4962 2.66931,42.6618 8.00794,63.4966 5.48036,20.8348 12.8269,40.6775 22.4884,59.339 9.66149,18.8269 21.1655,36.0003 34.6774,51.8272 13.4883,15.8505 28.4884,29.5042 44.835,40.8428 16.4883,11.504 34.1577,20.3387 53.3154,26.8349 19.0159,6.49611 38.5042,9.82685 58.6776,9.82685 22.4884,0 43.4885,-3.16538 62.8351,-9.49614 19.323,-6.33076 36.9924,-15.3308 52.9847,-27.1656l10.1812 13.6773c4.32287,3.00002 8.83472,6.1654 14.008,9.49614 4.98429,3.49609 10.1576,6.82683 15.3308,9.9922 5.315,3.33073 10.4883,6.1654 15.8269,8.83472 5.17327,2.50396 9.9922,4.32287 14.6694,5.66934l15.1655 -15.9923z" />
      </glyph>
      <glyph
         id="glyph129"
         horiz-adv-x="529"
         unicode="p">
        <path
           id="path131"
           d="M425.011 207.663c0,28.3467 -3.35436,54.8272 -10.0158,79.3471 -6.66147,24.4963 -15.6615,45.6618 -26.6695,63.6619 -11.1497,18.0001 -24.0002,31.9845 -38.6696,42.1657 -14.6458,10.1576 -29.8113,15.1655 -45.4964,15.1655 -6.00005,0 -13.6537,-1.84253 -22.9844,-5.33862 -9.51976,-3.66145 -20.3387,-9.66149 -32.3388,-18.1655 -12.1655,-8.504 -24.9923,-19.8427 -38.6696,-33.9924 -13.8426,-14.3387 -27.827,-31.8428 -42.1657,-52.6776l0 -194.505c14.6694,-11.1497 28.3231,-20.1498 40.8428,-27.4963 12.6615,-7.15754 24.3309,-12.6615 35.3152,-16.819 10.8426,-4.01578 21.1655,-7.0158 31.016,-8.504 9.82685,-1.67718 19.1576,-2.50396 27.9923,-2.50396 17.5041,0 33.827,3.49609 48.6618,10.3229 14.8348,6.85045 27.6616,17.008 38.3389,30.3546 10.8426,13.3229 19.323,30.0002 25.4884,49.9846 6.1654,19.8427 9.3544,42.8271 9.3544,69.0005zm66.0005 32.5042c0,-18.8269 -2.50396,-38.3389 -7.34651,-58.1579 -4.84256,-19.8427 -11.6694,-39.1657 -20.008,-58.1816 -8.48038,-18.8269 -18.6616,-36.8271 -30.3309,-53.8351 -11.8347,-16.819 -24.6616,-31.6538 -38.5042,-44.15 -13.819,-12.5198 -28.4884,-22.512 -43.8192,-29.8349 -15.3308,-7.34651 -30.9924,-11.008 -47.0082,-11.008 -19.1576,0 -40.8192,5.33862 -64.9848,15.9923 -24.1655,10.6772 -47.835,26.0081 -71.0084,46.0161l0 -230.01c0,-5.17327 6.1654,-10.3229 18.3309,-15.4962 12.1655,-5.17327 33.6617,-9.9922 64.158,-14.6694l0 -20.8348 -223.821 0 0 21.0002c21.4962,5.17327 38.1735,10.1576 50.339,14.8348 12.0001,4.6772 18.0001,9.82685 18.0001,15.3308l0 529.847c0,12.1655 -0.685045,21.9923 -2.00789,29.8113 -1.32285,7.84258 -4.32287,14.008 -9.00007,18.8505 -4.6772,4.65358 -11.504,7.98431 -20.5041,10.1576 -9.00007,2.17325 -21.1655,3.49609 -36.8271,4.18114l0 19.6537c11.008,2.3386 21.6616,4.84256 31.6538,7.67723 10.1812,2.66931 19.8427,5.66934 29.3388,8.83472 9.49614,3.16538 18.8269,6.49611 28.016,10.3229 9.16543,3.66145 18.4962,7.84258 27.9923,12.4962l17.008 -17.1734 4.32287 -96.4968c16.323,19.512 32.6695,36.331 49.1579,50.6697 16.5119,14.3387 32.1735,26.1734 47.339,35.3389 15.0001,9.33078 28.8427,16.323 41.835,20.8348 12.8269,4.48822 24.0002,6.82683 33.4963,6.82683 22.1813,0 42.6618,-5.17327 61.6777,-15.6615 18.8269,-10.3229 35.1499,-25.512 48.9925,-45.1657 13.6773,-19.6773 24.3309,-43.8429 32.0081,-72.1659 7.6536,-28.3467 11.504,-60.3312 11.504,-95.8354z" />
      </glyph>
      <glyph
         id="glyph133"
         horiz-adv-x="648"
         unicode="N">
        <path
           id="path135"
           d="M24.1655 0l0 21.0002c24.1655,2.83467 42.0003,7.50006 53.5044,13.6655 11.4922,6.1654 17.3269,11.504 17.3269,16.1694l0 510.004c-10.6654,9.9922 -21.9923,17.6576 -33.9924,22.6655 -11.8347,4.9961 -24.1655,8.49219 -36.8389,10.5001l0 21.0002 103.501 0c4.83075,0 8.83472,-0.342522 12.0001,-1.1693 3.00002,-0.838589 6.1654,-2.50396 9.49614,-5.17327 3.16538,-2.6575 6.67328,-6.49611 10.5001,-11.4922 3.67326,-5.00791 8.66936,-11.8347 14.8348,-20.3387l320.506 -442.326 0 429.157c0,4.00397 -5.33862,9.17724 -15.8387,15.508 -10.6654,6.33076 -28.9963,11.3269 -55.0044,14.8348l0 21.0002 200.671 0 0 -21.0002c-23.5041,-3.34255 -41.1617,-8.00794 -52.9965,-14.1733 -11.8347,-6.1654 -17.8348,-11.4922 -17.8348,-16.1694l0 -578.662c-16.5001,1.99608 -29.5042,5.16146 -39.0003,9.83866 -9.33078,4.50004 -16.0041,9.49614 -19.9962,15.0001l-340.999 474.831 0 -433.834c0,-4.00397 5.49217,-9.00007 16.323,-15.1655 11.008,-6.1654 29.0081,-11.1733 54.5083,-14.6694l0 -21.0002 -200.671 0z" />
      </glyph>
      <glyph
         id="glyph137"
         horiz-adv-x="578"
         unicode="K">
        <path
           id="path139"
           d="M24.1655 0l0 21.0002c22.1577,4.48822 39.4964,9.49614 51.9925,14.8348 12.5198,5.33862 18.8505,10.3229 18.8505,15.0001l0 513.004c0,3.8268 -6.00005,8.66936 -17.8348,14.5041 -11.8347,5.83469 -29.5042,11.1497 -53.0083,15.6615l0 21.0002 219.663 0 0 -21.0002c-22.1577,-4.51185 -39.4964,-9.66149 -51.9925,-15.1655 -12.4962,-5.50398 -18.8269,-10.5119 -18.8269,-15.1655l0 -248.506 199.655 235.325c7.51187,8.83472 12.1655,15.8505 14.1733,21.0002 1.98427,5.33862 1.32285,9.33078 -2.00789,12.3308 -3.16538,2.83467 -8.83472,5.00791 -17.008,6.51974 -8.14967,1.4882 -18.4962,2.64569 -31.3231,3.66145l0 21.0002 205.159 0 0 -21.0002c-10.4883,-1.34647 -19.6537,-2.66931 -27.827,-3.8268 -8.17329,-1.34647 -15.4962,-3.00002 -21.9923,-5.17327 -6.49611,-2.17325 -12.4962,-4.84256 -17.8348,-8.17329 -5.33862,-3.16538 -10.5119,-7.48825 -15.3308,-13.1576l-213.828 -236.175 235.821 -265.656c5.83469,-6.51974 12.0001,-11.504 18.6616,-15.1655 6.85045,-3.51971 13.8426,-6.00005 21.4962,-7.51187 7.67723,-1.4882 15.6852,-2.17325 23.6695,-2.00789 8.17329,0.165356 16.5119,0.685045 25.0159,1.67718l3.33073 -21.0002c-19.1813,-6.1654 -38.5042,-11.8347 -57.8508,-17.008 -19.323,-5.14965 -36.8271,-7.81896 -52.4886,-7.81896 -9.33078,0 -17.8348,1.4882 -25.1577,4.32287 -7.18116,3.00002 -14.1733,8.504 -20.6695,16.6773l-243.663 297.829 0 -261.002c0,-3.99216 5.83469,-8.83472 17.4805,-14.5041 11.8347,-5.66934 29.5042,-10.8426 53.339,-15.3308l0 -21.0002 -219.663 0z" />
      </glyph>
      <glyph
         id="glyph141"
         horiz-adv-x="803"
         unicode="m">
        <path
           id="path143"
           d="M579.17 0l0 21.0002c23.3388,6.1654 40.4885,11.504 51.4965,16.1576 10.8426,4.51185 16.323,9.00007 16.323,13.6773l0 258.167c0,19.8427 -0.992134,36.331 -3.16538,49.4886 -2.14962,13.1812 -5.315,23.5041 -9.82685,31.016 -4.32287,7.48825 -9.9922,12.8269 -17.008,15.8269 -7.15754,3.16538 -15.4962,4.6772 -25.323,4.6772 -10.6772,0 -22.1577,-3.00002 -34.1577,-9.00007 -12.0001,-6.00005 -24.5199,-14.6694 -37.1814,-25.8427 -12.6615,-11.3387 -25.4884,-24.9923 -38.5042,-41.0082 -12.8269,-16.1576 -25.4884,-34.3231 -37.8192,-54.4965l0 -228.829c0,-4.6772 5.00791,-9.16543 15.1655,-13.5119 9.9922,-4.32287 27.9923,-9.82685 53.6697,-16.323l0 -21.0002 -209.671 0 0 21.0002c23.3388,6.1654 40.4885,11.504 51.4965,16.1576 10.8426,4.51185 16.3466,9.00007 16.3466,13.6773l0 258.167c0,19.8427 -1.01576,36.331 -3.00002,49.4886 -1.84253,13.1812 -5.00791,23.5041 -9.51976,31.016 -4.32287,7.48825 -9.9922,12.8269 -17.1497,15.8269 -7.0158,3.16538 -15.4962,4.6772 -25.6774,4.6772 -22.1577,0 -45.3311,-11.3387 -69.662,-34.1814 -24.3309,-22.8191 -50.339,-54.8272 -78.0006,-96.1661l0 -228.829c0,-5.00791 6.1654,-9.9922 18.3309,-15.1655 12.1655,-5.17327 28.8427,-10.1812 50.0083,-14.6694l0 -21.0002 -209.671 0 0 21.0002c21.4962,5.50398 38.1735,10.4883 50.339,14.8348 12.0001,4.48822 18.0001,9.33078 18.0001,15.0001l0 296.176c0,12.9922 -0.519689,23.3151 -1.67718,30.827 -1.15749,7.48825 -4.15751,13.1576 -8.83472,17.3387 -4.65358,3.99216 -11.6694,6.99218 -20.6695,9.00007 -9.16543,1.98427 -21.4962,3.8268 -37.1578,5.83469l0 19.6537c12.3308,2.00789 23.6695,4.34649 34.1577,7.15754 10.3465,2.66931 20.3387,5.83469 29.6695,9.00007 9.49614,3.35436 18.4962,7.0158 27.1656,10.8426 8.504,3.99216 17.1734,8.00794 26.0081,12.3308l17.008 -17.1734 5.315 -111.828c14.6694,21.4962 29.5042,40.3468 44.5043,56.5044 15.0001,15.9923 29.8349,29.5042 44.5043,40.3232 14.5041,10.6772 28.6538,18.6852 42.4964,24.1892 13.6773,5.315 26.3388,7.98431 38.0082,7.98431 15.6615,0 30.0002,-1.81891 43.3232,-5.66934 13.1812,-3.66145 24.4963,-9.9922 34.1814,-18.9923 9.66149,-9.00007 17.1497,-20.8348 22.6537,-35.5042 5.50398,-14.5041 8.33865,-32.8349 8.33865,-54.6618l0.330711 -10.1576c13.6773,20.4805 27.827,38.4806 42.331,54.0004 14.6694,15.3308 29.3388,28.4884 43.6775,39.0003 14.4804,10.6536 28.6538,18.4962 42.4964,24.0002 13.819,5.315 26.8349,7.98431 38.835,7.98431 15.6615,0 30.0002,-2.17325 43.1578,-6.33076 13.1576,-4.32287 24.4963,-10.8426 34.1577,-19.4883 9.68512,-8.83472 17.1734,-20.008 22.6773,-33.5199 5.50398,-13.4883 8.33865,-29.3152 8.33865,-47.646l0 -311.176c0,-4.51185 4.98429,-9.00007 15.1655,-13.5119 9.9922,-4.32287 27.9923,-9.82685 53.6697,-16.323l0 -21.0002 -209.671 0z" />
      </glyph>
      <glyph
         id="glyph145"
         horiz-adv-x="594"
         unicode="Y">
        <path
           id="path147"
           d="M176.009 0l0 21.0002c29.4805,6.1654 50.3154,12.4962 62.1501,18.8269 11.8347,6.33076 17.8348,11.8347 17.8348,16.3466l0 206.151c-12.0001,26.3388 -25.6537,53.8351 -40.9846,82.5125 -15.3545,28.6538 -31.016,56.5044 -46.8429,83.5046 -15.9923,27.0002 -31.4884,52.1579 -46.4886,75.4967 -14.8348,23.1498 -28.1813,42.6618 -39.52,58.3233 -3.00002,3.49609 -6.33076,7.0158 -9.9922,10.1812 -3.66145,3.33073 -8.504,6.1654 -14.3387,8.64574 -6.00005,2.3386 -13.3229,4.34649 -21.9923,5.83469 -8.83472,1.51182 -20.008,2.17325 -33.6617,2.17325l-2.00789 21.0002c19.1576,2.50396 38.3389,4.84256 57.6619,6.82683 19.1813,2.17325 35.5042,3.16538 49.1815,3.16538 15.0001,0 27.6616,-6.33076 38.1499,-18.9923 12.0001,-15.6615 25.0159,-34.1577 39.0003,-55.4886 14.008,-21.3309 28.016,-43.8429 42.0003,-67.5123 14.008,-23.8348 27.6853,-48.1657 41.0082,-73.3234 13.3229,-25.0159 25.6774,-49.3468 37.1578,-72.662l130.678 229.821c5.00791,8.504 3.49609,15.1655 -4.51185,20.008 -7.98431,4.81894 -24.4963,9.00007 -49.6539,12.1655l0 21.0002 193.324 0 0 -21.0002c-22.323,-4.18114 -39.4964,-8.504 -51.4965,-13.0159 -11.8347,-4.32287 -20.008,-10.6536 -24.6616,-19.1576l-164.009 -297.829 0 -207.828c0,-2.00789 1.34647,-4.34649 4.18114,-7.18116 2.64569,-2.66931 7.32289,-5.66934 13.6537,-9.00007 6.33076,-3.16538 14.6694,-6.49611 24.827,-9.66149 10.3465,-3.33073 23.1734,-6.49611 38.3389,-9.33078l0 -21.0002 -238.986 0z" />
      </glyph>
      <glyph
         id="glyph149"
         horiz-adv-x="649"
         unicode="Ň">
        <path
           id="path151"
           d="M24.1732 0l0 21.0079c24.1575,2.8189 42,7.49606 53.4961,13.6535 11.4961,6.17323 17.3386,11.5118 17.3386,16.1732l0 510c-10.6772,10 -22,17.6693 -34,22.6614 -11.8425,5.00787 -24.1732,8.50394 -36.8346,10.5039l0 21.0079 103.496 0c4.83465,0 8.83465,-0.346457 12,-1.1811 2.99213,-0.818898 6.15748,-2.48819 9.49606,-5.16535 3.16535,-2.66142 6.66142,-6.48819 10.5039,-11.4961 3.66929,-4.99213 8.66142,-11.8268 14.8346,-20.3307l320.504 -442.331 0 429.165c0,4 -5.33858,9.16535 -15.8425,15.4961 -10.6614,6.33071 -28.9921,11.3386 -54.9921,14.8346l0 21.0079 200.661 0 0 -21.0079c-23.4961,-3.33858 -41.1654,-8 -53.0079,-14.1732 -11.8268,-6.15748 -17.8268,-11.4961 -17.8268,-16.1575l0 -578.677c-16.5039,2 -29.4961,5.1811 -38.9921,9.84252 -9.33858,4.50394 -16,9.49606 -20,14.9921l-341.008 474.835 0 -433.827c0,-4 5.49606,-9.00787 16.3307,-15.1654 11.0079,-6.17323 29.0079,-11.1654 54.5039,-14.6614l0 -21.0079 -200.661 0zm327.165 679.008l-52.1732 0 -128.992 150c2.33071,3.32283 4.33071,6 6,8.33071 1.49606,2.33071 3.16535,4.15748 4.48819,5.82677 1.51181,1.66929 3.16535,3.16535 5.00787,4.50394 1.82677,1.16535 4,2.66142 6.50394,4.33071l134.331 -102.992 131.827 102.992c5.49606,-2.99213 9.49606,-5.82677 11.6693,-8.83465 2.33071,-2.83465 5.49606,-7.66929 9.33858,-14.1575l-128 -150z" />
      </glyph>
      <glyph
         id="glyph153"
         horiz-adv-x="603"
         unicode="H">
        <path
           id="path155"
           d="M282.168 594.005c-20.5041,-4.51185 -36.8271,-9.66149 -49.3232,-15.1655 -12.3544,-5.50398 -19.0159,-10.5119 -20.008,-15.1655l-29.6695 -219.663 271.49 0 30.1656 219.663c0.685045,3.99216 -3.99216,8.83472 -14.1497,14.6694 -10.0158,5.83469 -25.3467,11.1497 -45.8508,15.6615l2.00789 21.0002 201.167 0 -3.00002 -21.0002c-20.5041,-4.51185 -36.9924,-9.66149 -49.3232,-15.1655 -12.3308,-5.50398 -18.8505,-10.5119 -19.512,-15.0001l-71.3391 -513.004c-0.661423,-3.99216 4.18114,-8.83472 14.1733,-14.5041 10.1812,-5.66934 25.6774,-10.8426 46.8429,-15.3308l-2.83467 -21.0002 -200.175 0 3.33073 21.0002c20.5041,4.48822 36.8507,9.49614 48.8508,14.8348 12.0001,5.50398 18.4962,10.4883 18.9923,15.0001l34.3231 249.167 -271.49 0 -33.827 -249.167c-0.8504,-3.99216 3.66145,-8.66936 13.9844,-14.5041 10.1812,-5.66934 25.6774,-10.8426 46.1815,-15.3308l-3.00002 -21.0002 -200.175 0 3.00002 21.0002c20.5041,4.48822 36.8271,9.49614 49.1579,14.8348 12.5198,5.33862 19.0159,10.3229 19.6773,15.0001l71.1738 513.004c0.661423,3.8268 -4.01578,8.66936 -14.1733,14.5041 -9.9922,5.83469 -25.6774,11.1497 -46.8429,15.6615l3.00002 21.0002 200.175 0 -3.00002 -21.0002z" />
      </glyph>
      <glyph
         id="glyph157"
         horiz-adv-x="522"
         unicode="Þ">
        <path
           id="path159"
           d="M23.6695 0l0 21.0002c22.1577,4.48822 39.6617,9.49614 52.3232,14.8348 12.6851,5.33862 19.0159,10.3229 19.0159,15.0001l0 513.004c0,3.8268 -6.00005,8.66936 -18.0001,14.5041 -12.1655,5.83469 -29.8349,11.1497 -53.339,15.6615l0 21.0002 234.829 0 0 -21.0002c-16.6537,-2.83467 -30.4963,-5.66934 -41.5043,-8.33865 -11.1497,-2.50396 -19.8191,-5.00791 -26.5041,-7.48825 -6.49611,-2.50396 -10.9843,-4.84256 -13.6537,-7.34651 -2.50396,-2.50396 -3.8268,-4.84256 -3.8268,-6.99218l0 -68.8352c20.4805,2.00789 45.8271,3.00002 75.8274,3.00002 35.3389,0 67.158,-3.66145 95.5047,-11.1733 28.4884,-7.48825 52.654,-18.6616 72.662,-33.331 20.1734,-14.6694 35.6696,-32.6695 46.6539,-54.1658 10.8426,-21.4962 16.3466,-46.3232 16.3466,-74.3392 0,-22.4884 -3.16538,-42.9925 -9.49614,-61.654 -6.33076,-18.4962 -14.8348,-35.0081 -25.512,-49.5122 -10.4883,-14.5041 -22.6537,-27.0002 -36.4964,-37.6538 -13.6773,-10.6772 -27.827,-19.3466 -42.6618,-26.3388 -14.8348,-6.99218 -29.6695,-12.3308 -44.5043,-15.6615 -14.8348,-3.49609 -28.6774,-5.17327 -41.3389,-5.17327 -15.0001,0 -29.1498,1.32285 -42.331,3.99216 -13.3229,2.50396 -25.323,6.68509 -36.4964,12.1655l-11.3387 35.0081c13.8426,-6.1654 26.8349,-10.1576 39.4964,-11.6694 12.5198,-1.65356 24.5199,-2.50396 35.8349,-2.50396 15.0001,0 30.6853,3.00002 47.0082,8.83472 16.1576,5.83469 31.1577,14.5041 44.835,26.0081 13.819,11.6694 24.9923,26.1734 33.827,43.4885 8.83472,17.5041 13.1812,37.6775 13.1812,60.8509 0,27.0002 -4.84256,50.15 -14.5041,69.3313 -9.49614,19.1576 -22.6773,34.8192 -39.331,47.15 -16.6773,12.1655 -36.0003,21.1655 -58.1816,26.8349 -22.323,5.66934 -45.8271,8.504 -70.9848,8.504 -16.3466,0 -32.3388,-0.330711 -48.0004,-0.992134l0 -405.169c0,-2.00789 1.32285,-3.99216 3.8268,-6.33076 2.66931,-2.3386 7.15754,-4.84256 13.4883,-7.34651 6.33076,-2.66931 15.0001,-5.14965 26.1734,-7.81896 11.008,-2.66931 24.9923,-5.33862 42.0003,-8.33865l0 -21.0002 -234.829 0z" />
      </glyph>
      <glyph
         id="glyph161"
         horiz-adv-x="487"
         unicode="g">
        <path
           id="path163"
           d="M336.995 292.845c0,17.3151 -2.83467,33.6617 -8.504,49.1579 -5.83469,15.4962 -14.1497,29.0081 -25.4884,40.6539 -11.1733,11.504 -25.1577,20.6695 -42.0003,27.3545 -16.8427,6.66147 -36.1656,9.9922 -57.9926,9.9922 -8.17329,0 -17.1734,-2.17325 -27.1656,-6.33076 -9.85047,-4.34649 -19.1813,-10.5119 -28.016,-18.6616 -8.83472,-8.17329 -16.1576,-18.3545 -21.9923,-30.8506 -5.83469,-12.3308 -8.83472,-26.5041 -8.83472,-42.4964 0,-17.3387 2.66931,-33.6617 8.00794,-49.1579 5.48036,-15.4962 13.6537,-28.8427 24.4963,-40.3468 10.9843,-11.315 24.827,-20.5041 41.5043,-27.1656 16.819,-6.66147 36.8271,-9.9922 60.0005,-9.9922 9.33078,0 19.323,2.00789 29.4805,6.1654 10.3465,3.99216 19.6773,10.1576 27.8506,18.4962 8.31503,8.33865 15.1655,18.4962 20.6695,30.6617 5.315,12.0001 7.98431,26.1734 7.98431,42.52zm-84.166 -294.853c-12.3308,1.18111 -23.8348,2.66931 -34.1577,4.34649 -10.5119,1.65356 -20.1734,3.33073 -29.3388,5.33862 -23.3388,-12.6851 -41.835,-24.0002 -55.3233,-34.1814 -13.3466,-9.9922 -23.5041,-19.1576 -30.3309,-27.1656 -6.85045,-7.81896 -11.1733,-15.1655 -13.0159,-21.6616 -1.81891,-6.49611 -2.66931,-12.3308 -2.66931,-17.5041 0,-13.6537 4.51185,-26.6695 13.6773,-38.835 9.00007,-12.3308 21.3309,-22.8191 36.4964,-31.8191 15.3308,-8.83472 33.0003,-16.0159 53.1736,-21.5199 20.1498,-5.315 41.3153,-7.98431 63.3312,-7.98431 21.8269,0 41.6696,3.00002 59.5044,8.83472 17.8348,5.83469 33.1656,13.819 45.8271,24.1655 12.6615,10.1576 22.4884,22.4884 29.5042,36.6617 6.99218,14.008 10.4883,29.6695 10.4883,46.4886 0,9.16543 -2.17325,17.5041 -6.33076,25.1813 -4.15751,7.6536 -11.8347,14.6694 -22.8427,20.8348 -11.1497,6.1654 -26.1498,11.6694 -45.1657,16.4883 -18.9923,5.00791 -43.3232,9.00007 -72.8273,12.3308zm152.174 315.168c0,-25.1577 -5.66934,-48.0004 -16.8427,-68.6698 -11.3387,-20.6458 -25.9845,-38.4806 -44.15,-53.3154 -18.3545,-14.8348 -39.0003,-26.3388 -62.0084,-34.6774 -23.1734,-8.33865 -46.6775,-12.4962 -70.347,-12.4962l-1.98427 0c-15.6615,-12.9922 -26.3388,-23.8348 -32.1735,-32.5042 -5.83469,-8.504 -8.83472,-13.819 -8.83472,-15.8269 0,-3.8268 1.67718,-7.67723 5.17327,-11.504 3.33073,-3.66145 9.66149,-7.32289 18.9923,-10.6772 9.33078,-3.49609 22.0159,-6.82683 38.3389,-10.3229 16.323,-3.33073 37.1578,-6.49611 62.5044,-9.49614 35.5042,-3.8268 64.8194,-9.66149 87.8275,-17.5041 23.1734,-7.84258 41.5043,-16.8427 54.9926,-27.1656 13.6773,-10.1576 23.1734,-21.1655 28.512,-32.8349 5.33862,-11.8347 8.00794,-23.3388 8.00794,-34.6538 0,-18.0001 -3.35436,-35.0081 -10.1812,-51.0004 -6.82683,-16.1812 -16.1576,-31.016 -27.827,-44.6696 -11.6694,-13.6773 -25.512,-26.0081 -41.5043,-37.1814 -15.8269,-10.9843 -32.8349,-20.5041 -51.0004,-28.3231 -18.3309,-7.67723 -37.1578,-13.8426 -56.6697,-18.0001 -19.323,-4.18114 -38.6696,-6.33076 -57.8272,-6.33076 -15.3308,0 -31.1577,0.992134 -47.339,3.16538 -16.1576,2.17325 -32.3388,5.50398 -48.1657,9.9922 -15.9923,4.51185 -30.9924,10.3465 -45.1657,17.3387 -14.1733,6.99218 -26.5041,15.4962 -37.3231,25.323 -10.6772,10.0158 -19.1813,21.1655 -25.512,33.8507 -6.33076,12.4962 -9.49614,26.6459 -9.49614,42.6618 0,8.504 1.4882,17.3387 4.6772,26.6695 3.00002,9.16543 9.33078,19.1576 18.6616,30.0002 9.49614,10.6536 22.6537,22.323 39.4964,34.6538 16.8427,12.3308 39.331,26.0081 67.3234,41.0082 -21.1655,7.48825 -35.8349,15.9923 -43.9846,25.323 -8.17329,9.49614 -12.1655,19.0159 -12.1655,28.8427 0,2.50396 0.826778,6.00005 2.48033,10.4883 1.51182,4.34649 4.84256,9.68512 10.0158,16.0159 4.98429,6.33076 12.1655,13.4883 21.3309,21.6616 9.33078,8.17329 21.4962,17.3387 36.331,27.827 -16.4883,4.51185 -31.4884,11.1733 -45.0004,19.8427 -13.4883,8.504 -25.1577,18.9923 -34.6774,31.1577 -9.66149,12.3308 -17.1497,26.1734 -22.4884,41.6696 -5.33862,15.3308 -8.00794,32.3388 -8.00794,50.5043 0,23.8348 5.33862,46.3232 16.1812,67.6541 10.6536,21.3545 24.827,40.0161 42.331,55.843 17.6694,15.6615 37.6538,28.3231 60.0005,37.5121 22.4884,9.33078 45.4964,13.9844 69.3313,13.9844 19.4883,0 37.8192,-2.83467 54.8272,-8.33865 17.1734,-5.48036 32.6695,-13.3229 46.6775,-23.3151 16.819,1.4882 32.1499,3.66145 45.8271,6.33076 13.6537,2.50396 26.0081,5.33862 36.8271,8.14967 10.8426,3.00002 20.6695,6.00005 29.0081,8.83472 8.504,3.00002 16.1576,5.66934 23.0081,8.33865l9.82685 -14.6694c-4.01578,-9.16543 -7.67723,-17.5041 -11.3387,-25.1577 -3.49609,-7.67723 -9.00007,-15.4962 -16.4883,-23.6695 -12.5198,-2.3386 -24.5199,-3.99216 -36.52,-5.33862 -11.8347,-1.32285 -25.1577,-2.3386 -40.1578,-3.00002 8.33865,-12.3308 15.0001,-25.4884 19.6773,-39.4964 4.65358,-14.008 6.99218,-28.8191 6.99218,-44.5043z" />
      </glyph>
      <glyph
         id="glyph165"
         horiz-adv-x="649"
         unicode="V">
        <path
           id="path167"
           d="M629.828 594.005c-21.9923,-4.16932 -39.331,-8.33865 -51.9925,-12.508 -12.4962,-3.99216 -20.3387,-10.6654 -23.6695,-19.6655l-186.994 -533.331c-2.50396,-7.16935 -7.00399,-13.3348 -13.3348,-18.3309 -6.50793,-5.00791 -13.3348,-9.33078 -20.8348,-12.6733 -7.50006,-3.49609 -14.8348,-6.1654 -22.0041,-8.16148 -7.16935,-1.83072 -12.8269,-3.33073 -16.9962,-4.33468l-214.832 576.831c-3.33073,8.33865 -10.5001,15.1655 -21.8388,20.5041 -11.1615,5.16146 -27.0002,9.00007 -47.4925,11.6694l0 21.0002 212.328 0 0 -21.0002c-25.9963,-2.00789 -43.8311,-5.33862 -53.5044,-10.004 -9.49614,-4.66539 -12.4962,-11.8347 -9.00007,-21.1655l172.336 -464 164.163 462.996c3.5079,9.33078 -0.496067,16.3348 -12.0001,20.6695 -11.6576,4.33468 -30.6617,8.16148 -57.3312,11.504l0 21.0002 202.998 0 0 -21.0002z" />
      </glyph>
      <glyph
         id="glyph169"
         horiz-adv-x="461"
         unicode="E">
        <path
           id="path171"
           d="M417.995 119.174c-6.49611,-28.3467 -13.1576,-52.8429 -19.8191,-73.6777 -6.68509,-20.8348 -11.8347,-36.0003 -15.3545,-45.4964l-382.822 0 3.00002 21.0002c20.5041,4.48822 36.8271,9.49614 49.1579,14.8348 12.5198,5.33862 19.0159,10.3229 19.6773,15.0001l71.1738 513.004c0.661423,3.8268 -4.01578,8.66936 -14.1733,14.5041 -9.9922,5.83469 -25.6774,11.1497 -46.8429,15.6615l3.00002 21.0002 359.837 0 12.1655 -12.1655c-1.65356,-8.33865 -3.66145,-17.5041 -6.00005,-27.4963 -2.50396,-10.0158 -5.33862,-20.1734 -8.33865,-30.1656 -3.16538,-10.1812 -6.33076,-19.6773 -9.49614,-28.8427 -3.33073,-9.16543 -6.33076,-16.8427 -9.33078,-23.0081l-21.0002 0c1.67718,15.0001 2.3386,27.4963 2.00789,37.3468 -0.330711,9.9922 -1.67718,18.0001 -4.01578,24.0002 -2.14962,6.00005 -5.315,10.1576 -9.16543,12.6615 -3.99216,2.50396 -8.83472,3.66145 -14.6458,3.66145l-163.678 0 -28.8427 -211.986 182.671 0 9.85047 -13.6773c-3.35436,-4.51185 -7.0158,-9.16543 -11.008,-14.1733 -4.18114,-4.81894 -8.33865,-9.66149 -12.6615,-14.3151 -4.51185,-4.6772 -8.83472,-9.18905 -13.0159,-13.1812 -4.15751,-4.15751 -7.98431,-7.6536 -11.1497,-10.4883 -5.33862,5.48036 -10.8426,9.9922 -16.6773,13.3229 -5.83469,3.49609 -13.1576,6.1654 -21.6616,8.17329 -8.66936,1.98427 -19.3466,3.33073 -31.8428,4.15751 -12.4962,0.826778 -27.827,1.18111 -46.1578,1.18111l-33.6617 0 -33.1656 -244.679c-0.685045,-5.00791 -0.165356,-9.33078 1.4882,-12.9922 1.67718,-3.85042 5.50398,-7.0158 11.6694,-9.85047 6.1654,-2.64569 15.1655,-4.81894 26.8349,-6.33076 11.8347,-1.4882 27.3309,-2.14962 46.8429,-2.14962l59.1501 0c13.6773,0 25.1813,0.826778 34.6774,2.48033 9.49614,1.51182 18.0001,5.17327 25.6537,11.008 7.67723,5.66934 15.0001,14.008 22.1813,24.9923 7.15754,11.1733 15.3308,26.3388 24.4963,45.52l18.9923 -8.83472z" />
      </glyph>
      <glyph
         id="glyph173"
         horiz-adv-x="529"
         unicode="u">
        <path
           id="path175"
           d="M522.169 39.8271c-12.0001,-7.81896 -23.5041,-15.1655 -34.6774,-21.8269 -10.9843,-6.66147 -21.3309,-12.4962 -30.6617,-17.3387 -9.49614,-4.81894 -17.8348,-8.66936 -24.9923,-11.504 -7.0158,-2.83467 -12.4962,-4.15751 -16.5119,-4.15751 -11.315,0 -20.5041,7.51187 -27.6616,22.6773 -7.15754,15.1655 -11.6694,39.6617 -13.6537,73.1581 -20.1734,-20.1734 -38.6696,-36.6617 -55.5122,-49.1579 -16.8427,-12.5198 -32.3388,-22.1813 -46.4886,-29.0081 -14.1733,-6.82683 -27.1656,-11.504 -39.1657,-14.008 -11.8347,-2.50396 -23.0081,-3.66145 -33.5199,-3.66145 -15.3308,0 -30.0002,2.17325 -43.9846,6.33076 -14.008,4.34649 -26.3388,12.0001 -37.1814,23.1734 -10.6536,11.3387 -19.323,26.6695 -25.6537,46.3232 -6.33076,19.512 -9.49614,44.6696 -9.49614,75.1659l0 211.348c0,15.4962 -0.519689,27.6616 -1.51182,36.331 -0.992134,8.66936 -3.49609,15.1655 -7.48825,19.4883 -4.18114,4.51185 -10.3465,7.51187 -18.8505,9.16543 -8.48038,1.67718 -20.1498,3.16538 -35.1499,4.84256l0 19.4883c11.6694,1.34647 22.6537,3.00002 33.0003,5.00791 10.1576,2.00789 20.1498,4.15751 29.6695,6.82683 9.66149,2.50396 19.323,5.66934 28.9845,9.00007 9.82685,3.51971 20.008,7.34651 30.6617,11.504l13.6773 -18.9923 0 -286.845c0,-22.8191 1.67718,-41.835 5.17327,-57.1658 3.33073,-15.3308 8.31503,-27.4963 14.6694,-36.6617 6.33076,-9.00007 14.1497,-15.4962 23.4805,-19.4883 9.33078,-3.85042 19.8427,-5.83469 31.6774,-5.83469 10.3229,0 21.1655,1.4882 32.0081,4.65358 10.9843,3.00002 22.323,8.00794 33.827,14.6694 11.6694,6.66147 23.8348,15.3308 36.4964,25.8427 12.6615,10.6536 26.3388,23.5041 40.6775,38.835l0 219.332c0,14.6694 -0.685045,26.3152 -2.17325,35.1499 -1.51182,8.83472 -4.6772,15.6852 -9.49614,20.5041 -5.00791,5.00791 -11.8347,8.33865 -20.8348,10.3465 -8.83472,1.98427 -20.8348,3.16538 -35.8349,3.8268l0 19.6537c23.3388,2.83467 45.8271,7.51187 67.3234,13.6773 21.4962,6.1654 41.1736,12.3308 59.339,18.4962l14.6694 -18.9923 0 -326.176c0,-20.1498 0.661423,-36.6617 2.17325,-49.3232 1.4882,-12.6615 4.48822,-20.6695 9.00007,-24.0002 3.99216,-2.66931 10.6536,-3.16538 20.1498,-1.67718 9.33078,1.51182 22.3466,5.83469 39.0003,13.0159l4.84256 -22.0159z" />
      </glyph>
      <glyph
         id="glyph177"
         horiz-adv-x="475"
         unicode="Ł">
        <path
           id="path179"
           d="M460.669 119.162c-2.66931,-28.3349 -6.00005,-52.8311 -10.004,-73.6659 -4.16932,-20.8348 -7.50006,-36.0003 -10.1694,-45.4964l-416.33 0 0 21.0002c22.1695,4.50004 39.4964,9.49614 52.0043,14.8348 12.4962,5.32681 18.8269,10.3347 18.8269,15.0001l0 209.328 -61.9966 -31.3349 -13.1694 10.8426c1.00394,3.00002 2.3386,6.49611 4.33468,10.6654 1.99608,4.33468 4.16932,8.49219 6.67328,12.8269 2.32679,4.16932 4.83075,8.00794 7.32289,11.6694 2.3386,3.49609 4.6772,6.33076 6.50793,8.33865l50.3272 25.323 0 255.345c0,3.8268 -6.00005,8.65755 -17.8348,14.4922 -11.8229,5.83469 -29.4924,11.1733 -52.9965,15.6734l0 21.0002 219.663 0 0 -21.0002c-22.1577,-4.50004 -39.4964,-9.6733 -51.9925,-15.1655 -12.508,-5.50398 -18.8387,-10.5001 -18.8387,-15.0001l0 -216.344 135.674 68.8352 12.8269 -12.1655c-2.66931,-5.83469 -6.49611,-12.9922 -11.504,-21.4962 -5.16146,-8.504 -9.82685,-15.4962 -14.4922,-21.0002l-122.505 -61.9966 0 -219.51c0,-5.82288 1.33466,-10.9961 4.16932,-15.4962 2.66931,-4.33468 7.50006,-7.99613 14.3387,-11.1615 6.82683,-3.00002 16.1576,-5.50398 27.827,-7.00399 11.8347,-1.66537 26.6695,-2.50396 44.5043,-2.50396l69.8273 0c15.0001,0 27.5081,0.838589 37.831,2.50396 10.1694,1.50001 19.3348,5.16146 27.0002,10.9961 7.84258,5.66934 15.0001,14.008 21.3427,25.0041 6.33076,11.1615 12.9922,26.327 19.8309,45.4964l21.0002 -8.83472z" />
      </glyph>
      <glyph
         id="glyph181"
         horiz-adv-x="438"
         unicode="S">
        <path
           id="path183"
           d="M425.507 584.839c1.32285,-1.01576 1.32285,-3.16538 0,-6.49611 -1.34647,-3.51971 -3.33073,-7.51187 -6.00005,-12.0001 -2.83467,-4.6772 -6.1654,-9.51976 -10.3465,-14.6694 -3.99216,-5.17327 -8.14967,-10.1812 -12.4962,-14.8348 -4.15751,-4.84256 -8.17329,-9.00007 -11.8347,-12.4962 -3.8268,-3.68507 -6.82683,-6.00005 -9.00007,-7.34651l-14.3387 2.83467c-5.48036,7.84258 -11.6694,15.3308 -18.4962,22.3466 -6.82683,6.99218 -14.3387,13.1576 -22.4884,18.8269 -8.00794,5.50398 -16.6773,9.82685 -25.512,13.1576 -9.00007,3.16538 -18.3309,4.84256 -28.1577,4.84256 -17.5041,0 -33.1656,-2.83467 -46.8429,-8.504 -13.6537,-5.66934 -25.1577,-12.9922 -34.4885,-21.9923 -9.16543,-9.00007 -16.3466,-19.0159 -21.1655,-30.0002 -4.84256,-11.1733 -7.34651,-22.0159 -7.34651,-32.6695 0,-7.18116 1.18111,-14.6694 3.49609,-22.512 2.17325,-7.81896 7.0158,-15.9923 14.1733,-24.3309 7.18116,-8.504 17.3387,-17.5041 30.4963,-27.1656 13.1812,-9.66149 30.6853,-20.008 52.5122,-30.9924 25.8191,-13.3466 47.6697,-26.0081 65.5045,-38.0082 18.0001,-12.1655 32.4806,-24.4963 43.4885,-37.3231 11.1733,-13.0159 19.1576,-26.6695 24.0002,-41.3389 4.84256,-14.6694 7.34651,-30.9924 7.34651,-49.3232 0,-30.5199 -6.35438,-59.6698 -19.0159,-87.355 -12.8269,-27.6616 -30.0002,-51.9925 -51.6618,-73.1581 -21.6616,-21.1655 -46.8429,-38.0082 -75.662,-50.5043 -28.8427,-12.4962 -59.339,-18.8269 -91.6779,-18.8269 -12.3308,0 -26.5041,2.17325 -42.1657,6.33076 -15.8269,4.18114 -30.827,9.82685 -45.0004,16.6773 -14.1497,6.82683 -25.9845,14.3151 -35.6696,22.8191 -9.49614,8.504 -14.3151,17.008 -14.3151,25.3467 0,3.99216 1.98427,9.66149 5.83469,17.1497 3.8268,7.51187 8.48038,15.0001 13.819,22.6773 5.50398,7.67723 11.1733,14.1733 17.1734,19.6773 6.00005,5.48036 11.1733,8.31503 15.3308,8.31503 3.99216,0 8.66936,-3.99216 14.1733,-12.0001 5.50398,-7.81896 12.8269,-16.6537 21.8269,-26.5041 8.83472,-9.66149 20.008,-18.6616 33.1656,-26.4805 13.1576,-8.00794 29.3388,-12.0001 48.3311,-12.0001 19.8427,0 38.1735,3.33073 55.1579,9.9922 17.008,6.66147 31.8428,15.8269 44.5043,27.3309 12.6851,11.504 22.6773,25.1577 29.8349,40.8428 7.34651,15.6615 11.008,32.5042 11.008,50.6697 0,13.4883 -2.00789,25.8191 -5.83469,37.4885 -3.8268,11.504 -10.6772,22.6773 -20.5041,33.6617 -9.66149,10.8426 -22.6537,21.6616 -38.835,32.5042 -16.1576,10.6772 -36.6617,21.8269 -61.3233,33.6617 -21.3309,10.0158 -39.0003,20.8348 -53.0083,32.3388 -14.008,11.6694 -24.827,23.3388 -32.8349,35.1735 -7.98431,12.0001 -13.4883,24.0002 -16.819,36.4964 -3.16538,12.3308 -4.84256,24.3309 -4.84256,36.1656 0,21.3309 5.00791,42.6618 14.8348,63.8273 9.9922,21.1655 24.0002,40.1814 42.0003,56.6697 18.0001,16.6773 39.8271,30.1656 65.3391,40.5121 25.6537,10.4883 54.1658,15.6615 85.6542,15.6615 23.5041,0 45.1657,-4.51185 65.1737,-13.5119 20.1734,-9.00007 38.0082,-19.4883 53.5044,-31.6538z" />
      </glyph>
      <glyph
         id="glyph185"
         horiz-adv-x="200"
         unicode=" " />
      <glyph
         id="glyph187"
         horiz-adv-x="522"
         unicode="P">
        <path
           id="path189"
           d="M24.1655 0l0 21.0002c22.1577,4.48822 39.4964,9.49614 51.9925,14.8348 12.5198,5.50398 18.8505,10.3229 18.8505,15.0001l0 530.343c-12.0001,-1.67718 -24.0002,-3.35436 -35.8349,-5.17327 -12.0001,-1.84253 -23.5041,-3.66145 -35.0081,-5.50398l-4.32287 30.1656c15.6615,4.32287 32.6459,8.17329 51.0004,11.8347 18.3309,3.49609 37.4885,6.66147 57.4965,9.16543 19.8191,2.66931 39.9924,4.6772 60.3312,6.1654 20.3387,1.51182 40.4885,2.17325 60.4965,2.17325 35.1735,0 66.9927,-3.66145 95.3393,-11.1733 28.3231,-7.48825 52.4886,-18.6616 72.662,-33.331 20.008,-14.6694 35.5042,-32.6695 46.4886,-54.1658 10.8426,-21.4962 16.3466,-46.3232 16.3466,-74.3392 0,-22.4884 -3.16538,-42.9925 -9.49614,-61.654 -6.33076,-18.5198 -14.8348,-35.0081 -25.512,-49.5122 -10.4883,-14.5041 -22.6537,-27.0002 -36.4964,-37.6538 -13.6773,-10.6772 -27.827,-19.3466 -42.6618,-26.3388 -14.8348,-6.99218 -29.6695,-12.3308 -44.5043,-15.6615 -14.8348,-3.51971 -28.6774,-5.17327 -41.3389,-5.17327 -30.6617,0 -57.0004,4.84256 -78.8274,14.6694l-11.3387 36.8271c13.8426,-6.00005 26.8349,-9.9922 39.4964,-11.8347 12.5198,-1.81891 24.5199,-2.66931 35.8349,-2.66931 15.0001,0 30.6853,3.00002 47.0082,8.83472 16.1576,5.83469 31.1577,14.6694 44.835,26.3388 13.819,11.6694 24.9923,26.1734 33.827,43.4885 8.83472,17.1734 13.1812,37.3468 13.1812,60.5202 0,26.6459 -4.84256,49.6539 -14.5041,68.8116 -9.49614,19.1813 -22.6773,34.8428 -39.331,47.1736 -16.6773,12.1655 -36.0003,21.1655 -58.1816,27.0002 -22.323,5.83469 -45.8271,8.83472 -70.9848,8.83472 -8.17329,0 -16.3466,0 -24.3545,-0.165356 -7.98431,-0.165356 -15.8269,-0.496067 -23.6459,-0.826778l0 -537.17c0,-2.00789 1.32285,-4.15751 3.8268,-6.33076 2.66931,-2.3386 7.15754,-4.84256 13.4883,-7.34651 6.33076,-2.66931 15.0001,-5.315 26.1734,-7.81896 11.008,-2.66931 24.9923,-5.33862 42.0003,-8.33865l0 -21.0002 -234.333 0z" />
      </glyph>
      <glyph
         id="glyph191"
         horiz-adv-x="476"
         unicode="Š">
        <path
           id="path193"
           d="M432 184c0,-14.6614 -2,-29.6693 -5.82677,-44.9921 -4,-15.3386 -9.84252,-30.3465 -17.8425,-45.1811 -8,-14.8189 -17.8268,-28.8189 -29.8268,-42.1575 -11.8425,-13.1654 -25.8425,-24.6614 -41.8425,-34.3307 -16.1575,-9.84252 -34.3307,-17.6693 -54.6614,-23.5118 -20.3307,-5.82677 -42.8346,-8.83465 -67.1654,-8.83465 -10.8346,0 -22.5039,1.1811 -35.1654,3.51181 -12.6614,2.15748 -25.6693,5.49606 -39.0079,9.49606 -13.3228,4.17323 -26.6614,9.16535 -39.8268,15.0079 -13.1654,6 -25.4961,12.6614 -36.8346,20.1575 -2.33071,1.33858 -4,6.83465 -5.16535,16.6614 -1.16535,9.84252 -1.66929,21.3386 -1.66929,34.5039 0,13.1654 0.503937,26.5039 1.49606,40.1732 1.00787,13.6693 2.67717,24.9921 5.33858,33.8268l20 -2.50394c7.49606,-19.1654 16.8346,-35.8268 28,-49.8268 11.3386,-14 23.6693,-25.6693 37.3386,-34.8346 13.6693,-9.33858 28.4882,-16.1575 44.1575,-20.5039 15.8425,-4.48819 32,-6.66142 48.5039,-6.66142 14.6614,0 29.4961,3.00787 44.1732,9.00787 14.8346,6 28.1575,14.3307 39.8268,24.6614 11.6693,10.5039 21.3386,22.5039 28.8346,36.3307 7.49606,13.8268 11.1654,28.6614 11.1654,44.3307 0,19.8425 -4.33071,36.8346 -13.1654,51.1654 -8.83465,14.3307 -20.3307,27.0079 -34.3307,38.1732 -14.1732,10.9921 -30.3307,20.9921 -48.6772,29.8268 -18.1575,8.67717 -36.8189,17.5118 -55.8268,26.3307 -18.9921,8.83465 -37.6693,18 -55.8268,27.8425 -18.3465,9.66929 -34.5039,21.1654 -48.6772,34.1575 -14,13.0079 -25.4961,28 -34.3307,45.1811 -8.83465,16.9921 -13.1654,37.4961 -13.1654,61.3228 0,10 1.49606,21.0079 4.33071,32.6772 3.00787,11.6535 7.66929,23.4961 14.1732,35.1654 6.66142,11.6535 14.9921,22.9921 25.1654,33.8268 10.3307,11.0079 22.6614,20.6614 37.1654,28.8346 14.5039,8.33071 31.1654,14.9921 50.1732,19.8268 18.8189,4.83465 40.1575,7.33858 64,7.33858 14.6614,0 29.3228,-1.16535 44.1575,-3.33858 14.8346,-2.33071 28.6614,-5.32283 41.4961,-9.32283 13.0079,-3.84252 24.6772,-8.50394 35.0079,-14 10.5039,-5.51181 18.5039,-11.5118 24.5039,-18 2.15748,-1.84252 2.33071,-5.66929 0.15748,-11.5118 -2.15748,-5.65354 -5.32283,-11.8268 -9.82677,-18.4882 -4.33071,-6.67717 -9.16535,-13.1654 -14.5039,-19.6693 -5.49606,-6.50394 -10.1732,-11.6693 -14,-15.1654l-17.6693 2.83465c-9.16535,10.8346 -18.6614,19.8268 -28.6614,27.1654 -9.84252,7.32283 -20,13.1654 -30.3307,17.8268 -10.3307,4.50394 -20.5039,7.84252 -30.6772,9.66929 -10,2 -19.6535,3.00787 -28.8346,3.00787 -18.3307,0 -33.8268,-2.67717 -46.8189,-8 -12.8346,-5.51181 -23.5118,-12.3465 -31.8425,-20.8346 -8.33071,-8.50394 -14.3307,-17.8425 -18.3307,-27.8425 -3.82677,-10.1575 -5.82677,-19.8268 -5.82677,-28.8346 0,-15.3228 4.33071,-28.9921 13.1654,-40.8346 8.83465,-12 20.3307,-22.8346 34.6614,-32.8346 14.5039,-10 30.8346,-19.3228 49.1654,-28.1575 18.5039,-8.66142 37.3386,-18 56.5039,-27.4961 19.1654,-9.66929 38,-20 56.5039,-31.1654 18.3307,-11.0079 34.8189,-23.6693 49.1654,-38 14.3307,-14.3465 25.8268,-30.8346 34.6614,-49.1811 8.83465,-18.4882 13.1654,-39.6535 13.1654,-63.8268zm-161.669 495.008l-52.1575 0 -129.008 150c2.33071,3.32283 4.33071,6 6,8.33071 1.49606,2.33071 3.16535,4.15748 4.50394,5.82677 1.49606,1.66929 3.16535,3.16535 4.99213,4.50394 1.84252,1.16535 4,2.66142 6.50394,4.33071l134.331 -102.992 131.843 102.992c5.49606,-2.99213 9.49606,-5.82677 11.6693,-8.83465 2.33071,-2.83465 5.49606,-7.66929 9.32283,-14.1575l-128 -150z" />
      </glyph>
      <glyph
         id="glyph195"
         horiz-adv-x="459"
         unicode="a">
        <path
           id="path197"
           d="M171.669 48c19.4961,0 40.3307,5.00787 62.3307,14.8346 22,10 45.3386,25.6693 70,47.1654l0 126.504c-27.3386,-4.50394 -49.8268,-9.00787 -67.6693,-13.1654 -17.6693,-4.33071 -32.1575,-8.50394 -43.6693,-13.0079 -11.3228,-4.33071 -20.4882,-8.99213 -27.3228,-13.8268 -6.83465,-5.00787 -12.8346,-10.1732 -18,-15.6693 -8.50394,-8.83465 -15.3386,-18.8346 -20.5039,-30 -5.16535,-11.3386 -7.82677,-24.5039 -7.82677,-39.8268 0,-13.0079 2,-23.6693 5.82677,-31.6693 4,-8.17323 8.66142,-14.6772 14.1732,-19.3386 5.49606,-4.66142 11.3228,-8 17.3228,-9.49606 6,-1.66929 11.1654,-2.50394 15.3386,-2.50394zm280 -8.66142c-27.6693,-19.1654 -50.5039,-33.0079 -68.5039,-41.5118 -18,-8.48819 -31.6693,-12.8346 -40.6614,-12.8346 -10.8346,0 -19.6693,7.51181 -26.8346,22.5039 -7.16535,15.0079 -11.0079,35.6693 -11.6693,62 -14.6614,-14.6614 -29.3386,-27.3228 -44,-38 -14.5039,-10.8346 -28.8346,-19.6693 -42.8346,-26.4882 -14,-6.83465 -27.3386,-11.8425 -39.8268,-15.1811 -12.5039,-3.16535 -24,-4.83465 -34.3307,-4.83465 -11.8425,0 -23.8425,2 -36.1732,5.84252 -12.3307,4 -23.4961,10.1732 -33.4961,18.6614 -9.84252,8.33071 -18,19.3386 -24.5039,32.6772 -6.50394,13.3228 -9.82677,29.4961 -9.82677,48.3307 0,24.8346 4.33071,45.4961 12.9921,62.1575 8.50394,16.6772 18.8346,31.0079 31.0079,43.0079 7.65354,7.82677 16.6614,15.1654 26.4882,22.1575 10,7.00787 23.1654,13.8425 39.5118,20.3465 16.4882,6.48819 36.9921,12.6614 61.8268,18.6614 24.6614,5.82677 55.8268,11.4961 93.1654,16.9921l0 69.0079c0,10.9921 -1.33858,21.3386 -3.82677,30.9921 -2.67717,9.66929 -7.00787,17.8425 -13.3386,24.8346 -6.17323,7.00787 -14.5039,12.5039 -25.0079,16.1732 -10.6614,3.82677 -23.8268,5.49606 -39.8268,5.16535 -10.5039,-0.330709 -20.6614,-2.17323 -30.8346,-5.33858 -10,-3.32283 -18.8346,-7.82677 -26.3307,-13.6535 -7.49606,-5.84252 -13.3386,-12.8346 -17.4961,-20.8346 -4.33071,-8 -6,-16.8346 -5.00787,-26.5039 0.330709,-3.00787 -2.99213,-6.33071 -10,-10 -6.99213,-3.84252 -15.3228,-7.16535 -24.8346,-10.1732 -9.66929,-2.83465 -18.9921,-5.16535 -28.3307,-6.83465 -9.33858,-1.49606 -15.8268,-1.82677 -19.8268,-0.834646l-6.83465 19.0079c7.49606,16.3307 18.8346,31.8268 34.1575,46.8346 15.3386,14.9921 32.8346,28.1575 52.5039,39.6693 19.6693,11.3228 40.5039,20.4882 62.5039,27.3228 22,6.83465 43.1654,10.3465 63.8268,10.3465 35.6693,0 63.1654,-9.33858 82.5039,-28.1732 19.3386,-18.6614 29.0079,-45.0079 29.0079,-78.5039l0 -276.157c0,-13.6693 1.82677,-23.5118 5.32283,-29.3386 3.66929,-5.82677 8.33071,-8.83465 14.1732,-8.83465 4.66142,0 10.5039,0.834646 17.6693,2.50394 7.16535,1.49606 17.1654,5.16535 30.1575,10.6614l7.33858 -21.8268z" />
      </glyph>
      <glyph
         id="glyph199"
         horiz-adv-x="396"
         unicode="r">
        <path
           id="path201"
           d="M375.496 451.008c3.00787,-1.84252 4.33071,-7.66929 4.17323,-17.0079 -0.173228,-9.33858 -1.49606,-20.1732 -3.84252,-32.5039 -2.48819,-12.3307 -5.65354,-24.9921 -9.49606,-38.1575 -4,-13.0079 -7.82677,-23.8425 -11.8268,-32.6772l-21.0079 0c-1.82677,13.0079 -4.66142,24.1732 -8.33071,33.1654 -3.49606,9.1811 -7.66929,16.3465 -12.3307,21.8425 -4.83465,5.33858 -10,9.16535 -15.6693,11.6693 -5.66929,2.48819 -11.6693,3.66929 -17.8268,3.66929 -7.16535,0 -15.5118,-3.00787 -25.1654,-9.00787 -9.51181,-6 -19.5118,-15.4961 -29.5118,-28.3307 -10.1575,-13.0079 -20.1575,-29.4961 -30,-49.4961 -10,-20 -18.8346,-43.8425 -26.6614,-71.6693l0 -191.669c0,-4.83465 6.17323,-10 18.3307,-15.1654 12.1732,-5.16535 33.6693,-10 64.1732,-14.6614l0 -21.0079 -223.843 0 0 21.0079c21.5118,4.8189 38.1732,9.65354 50.3465,14.3307 12,4.83465 18,10 18,15.4961l0 284.331c0,10.6614 -0.346457,19.8425 -1.00787,27.1654 -0.661417,7.33858 -1.49606,13.1654 -2.50394,17.8425 -0.834646,4.48819 -2.15748,8 -3.66929,10.6614 -1.32283,2.66142 -2.8189,4.66142 -4,6.33071 -2.33071,2.33071 -4.8189,4.17323 -7.65354,5.66929 -2.67717,1.49606 -6.34646,2.66142 -10.6772,3.66929 -4.48819,0.992126 -9.66929,1.66929 -15.8268,2.15748 -6.33071,0.503937 -13.8425,1.00787 -23.0079,1.66929l0 19.6693c21.1654,5.49606 41.8425,11.0079 62.1732,16.8346 20.3307,5.66929 38.6614,12.9921 54.8346,22.1732l16.9921 -17.1811 6.34646 -110.819c8.8189,18 18.3307,34.6614 28.6614,50.3307 10.1575,15.6693 21.1654,29.1654 32.8346,40.8346 11.8268,11.4961 24,20.4882 36.8346,26.9921 12.9921,6.50394 26.3307,9.84252 40.3307,9.84252 10.5039,0 21.6693,-1.33858 33.6693,-3.84252 12.1575,-2.66142 24.1575,-7.33858 36.1575,-14.1575z" />
      </glyph>
      <glyph
         id="glyph203"
         horiz-adv-x="502"
         unicode="o">
        <path
           id="path205"
           d="M387.995 222.167c0,25.6774 -4.15751,50.1736 -12.6615,73.4888 -8.504,23.1734 -19.323,43.6775 -32.6695,61.5123 -13.3229,17.6694 -28.4884,31.8428 -45.3311,42.1657 -16.8427,10.4883 -33.6617,15.6615 -50.1736,15.6615 -24.827,0 -45.4964,-4.65358 -62.5044,-14.1733 -16.819,-9.49614 -30.4963,-22.323 -40.6539,-38.8113 -10.1576,-16.5119 -17.6694,-35.8349 -22.1577,-58.3469 -4.51185,-22.4884 -6.85045,-46.6539 -6.85045,-72.8273 0,-25.6774 4.51185,-50.1736 13.6773,-73.5124 9.00007,-23.1498 20.5041,-43.6539 34.3231,-61.158 13.8426,-17.6694 29.0081,-31.4884 45.6618,-41.835 16.5119,-10.1576 32.3388,-15.3308 47.1736,-15.3308 23.1734,0 43.0161,4.32287 59.5044,12.9922 16.6773,8.504 30.3309,20.8348 41.0082,36.8507 10.6536,15.9923 18.6616,35.1499 23.8348,57.6619 5.14965,22.323 7.81896,47.6697 7.81896,75.662zm76.0163 14.6694c0,-21.8269 -2.83467,-43.1814 -8.33865,-64.1816 -5.50398,-20.8112 -13.1812,-40.4885 -23.0081,-59.1501 -9.66149,-18.4962 -21.4962,-35.6696 -35.1735,-51.4965 -13.6537,-15.8505 -28.6538,-29.5042 -45.1657,-40.8428 -16.323,-11.3387 -33.827,-20.3387 -52.4886,-26.6695 -18.4962,-6.33076 -37.6775,-9.49614 -57.6619,-9.49614 -30.8506,0 -58.843,5.83469 -83.67,17.6694 -25.0159,11.6694 -46.3468,27.827 -64.0163,48.3311 -17.8112,20.5041 -31.4884,45.0004 -41.1499,73.3234 -9.49614,28.3467 -14.3387,59.1737 -14.3387,92.3393 0,21.4962 2.66931,42.8271 8.00794,63.6619 5.48036,20.8348 12.9922,40.6775 22.4884,59.339 9.66149,18.8269 21.1655,36.0003 34.6774,51.8272 13.4883,15.8505 28.4884,29.5042 45.0004,40.8428 16.4883,11.3387 34.1577,20.3387 53.15,26.8349 19.1813,6.49611 38.6696,9.82685 59.0083,9.82685 30.4963,0 58.3233,-5.83469 83.1739,-17.6694 24.9923,-11.6694 46.3232,-27.827 63.9926,-48.4964 17.8348,-20.8348 31.5121,-45.3311 41.1736,-73.6541 9.49614,-28.3467 14.3387,-59.1737 14.3387,-92.3393z" />
      </glyph>
      <glyph
         id="glyph207"
         horiz-adv-x="737"
         unicode="M">
        <path
           id="path209"
           d="M747.998 594.005c-8.66936,0 -18.8269,-1.51182 -30.1656,-4.6772 -11.504,-3.00002 -23.0081,-7.32289 -34.6774,-12.8269l-59.1501 -525.666c-0.661423,-3.99216 4.48822,-8.83472 15.1655,-14.5041 10.6536,-5.66934 26.6695,-10.8426 47.835,-15.3308l-3.00002 -21.0002 -200.175 0 3.00002 21.0002c20.5041,4.48822 37.3468,9.49614 50.5043,14.8348 13.1576,5.33862 20.1734,10.3229 20.8348,15.0001l52.654 465.996 -263.648 -516.831 -20.008 0 -135.828 510.996 -66.3312 -460.161c-0.685045,-3.99216 3.8268,-8.83472 13.6537,-14.5041 9.82685,-5.66934 25.1813,-10.8426 46.3468,-15.3308l-2.83467 -21.0002 -180.167 0 2.83467 21.0002c21.1655,4.48822 37.6538,9.49614 49.6539,14.8348 11.8347,5.33862 18.1655,10.3229 18.8269,15.0001l76.1817 524.673c-10.1812,6.82683 -20.6695,11.6694 -31.5121,14.3151 -10.9843,2.83467 -20.6695,4.18114 -29.1498,4.18114l3.00002 21.0002 129.332 0c2.66931,0 4.81894,-0.496067 6.66147,-1.51182 1.65356,-0.992134 3.33073,-2.83467 4.81894,-5.83469 1.51182,-3.00002 3.00002,-6.99218 4.6772,-12.4962 1.67718,-5.33862 3.49609,-12.3308 5.83469,-21.1655l121.655 -436.822 224.01 436.822c4.6772,8.83472 8.504,15.8269 11.504,21.1655 3.16538,5.50398 5.83469,9.49614 8.33865,12.4962 2.50396,3.00002 4.65358,4.84256 6.82683,5.83469 2.17325,1.01576 4.6772,1.51182 7.48825,1.51182l127.017 0 -2.00789 -21.0002z" />
      </glyph>
      <glyph
         id="glyph211"
         horiz-adv-x="271"
         unicode="l">
        <path
           id="path213"
           d="M29.8268 0l0 21.0079c14,2.33071 25.6693,4.66142 35.0079,7.16535 9.49606,2.33071 16.9921,4.83465 22.5039,7.16535 5.49606,2.48819 9.49606,4.99213 12,7.66929 2.48819,2.66142 3.66929,5.16535 3.66929,7.82677l0 582.173c0,14.6614 -1.00787,26 -3.00787,34.1575 -1.82677,8.17323 -5.49606,14.1732 -10.6614,18.3307 -5.16535,4 -12.1732,6.83465 -21.0079,8.33071 -8.83465,1.33858 -20,3.00787 -33.6693,4.50394l0 19.6693c23.3386,4.50394 44.8346,9.49606 64.3465,15.0079 19.4961,5.65354 39.3228,13.6535 59.4961,24l17.4961 -16.6772 0 -689.496c0,-5.00787 5.49606,-10 16.6614,-15.1654 11.0079,-5.16535 29.8425,-10.1732 56.6772,-14.6614l0 -21.0079 -219.512 0z" />
      </glyph>
      <glyph
         id="glyph215"
         horiz-adv-x="271"
         unicode="i">
        <path
           id="path217"
           d="M34.6614 0l0 21.0079c22.1732,4.48819 39.0079,9.49606 50.8346,14.8189 11.6693,5.51181 17.5118,10.5039 17.5118,15.0079l0 276.504c0,16.6614 -0.346457,30 -1.00787,40.3307 -0.661417,10.1575 -2.99213,18.1575 -7.33858,23.8268 -4.15748,5.84252 -10.9921,9.84252 -20.1575,12.5039 -9.33858,2.66142 -22.6772,4.83465 -39.8425,6.33071l0 19.6693c10,1.82677 20.6772,4.17323 32,7.00787 11.1654,2.8189 22.3465,5.82677 33.3386,9.32283 11.1654,3.33858 21.6693,7.00787 31.6693,11.0079 10.1575,3.82677 19.3386,7.82677 27.8268,11.6693l16.5039 0 0 -418.173c0,-4 5.49606,-8.66142 16.3307,-14.5039 11.0079,-5.66929 28.3307,-10.8346 52,-15.3228l0 -21.0079 -209.669 0zm156.346 615.669c0,-9.00787 -1.51181,-17.6693 -4.34646,-25.8425 -2.99213,-8 -6.99213,-15.1654 -12,-21.1654 -4.99213,-6 -10.9921,-10.6614 -17.8268,-14.3307 -6.83465,-3.49606 -14.3307,-5.32283 -22.5039,-5.32283 -14.6614,0 -25.1654,4 -31.4961,12.1575 -6.33071,8.17323 -9.49606,19.6693 -9.49606,34.6614 0,9.00787 1.49606,17.6693 4.33071,25.6693 2.99213,8.17323 6.99213,15.3386 12.3307,21.3386 5.16535,6 11.1654,10.6614 17.8268,14 6.67717,3.49606 13.8425,5.16535 21.6693,5.16535 27.6693,0 41.5118,-15.4961 41.5118,-46.3307z" />
      </glyph>
    </font>
    <style
       id="style219"
       type="text/css"><![CDATA[
    @font-face { font-family:"Gentium Plus";src:url("#FontID0") format(svg)}
    .str5 {stroke:black;stroke-width:6.94488}
    .str4 {stroke:black;stroke-width:27.7795;stroke-linejoin:round}
    .str3 {stroke:black;stroke-width:55.5551;stroke-linejoin:round}
    .str2 {stroke:red;stroke-width:55.5551}
    .str0 {stroke:#666666;stroke-width:13.8898;stroke-dasharray:69.448819 69.448819 13.889764 41.669291 13.889764 69.448819}
    .str1 {stroke:#005682;stroke-width:55.5551;stroke-dasharray:111.110236 55.555118}
    .fil6 {fill:none}
    .fil7 {fill:black}
    .fil3 {fill:#005682}
    .fil9 {fill:#006A44}
    .fil10 {fill:#33335F}
    .fil8 {fill:#4D4D4D}
    .fil5 {fill:#679267}
    .fil0 {fill:#C6ECFF}
    .fil1 {fill:#E0E0E0}
    .fil4 {fill:white}
    .fil2 {fill:black;fill-rule:nonzero}
    .fnt3 {font-weight:normal;font-size:166.665px;font-family:'Gentium Plus'}
    .fnt2 {font-weight:normal;font-size:250px;font-family:'Gentium Plus'}
    .fnt1 {font-weight:normal;font-size:333.331px;font-family:'Gentium Plus'}
    .fnt4 {font-weight:normal;font-size:666.665px;font-family:'Gentium Plus'}
    .fnt0 {font-style:italic;font-weight:normal;font-size:166.665px;font-family:'Gentium Plus'}
   ]]></style>
    <pattern
       xlink:href="#pattern4822"
       id="pattern5437"
       patternTransform="matrix(16.561167,10.827203,-30.753339,47.03996,-17296.289,-6746.5561)" />
    <pattern
       xlink:href="#Strips1_5-704"
       id="pattern4822"
       patternTransform="matrix(1.4905049,0.97444815,-2.7678003,4.2335961,192.38751,-304.70614)" />
    <pattern
       patternUnits="userSpaceOnUse"
       width="6"
       height="1"
       patternTransform="matrix(0.58611592,0.38318527,-1.6876601,2.5814261,139.77976,-808.60931)"
       id="Strips1_5-704">
      <rect
         style="fill:#c40000;stroke:none"
         x="0"
         y="-0.5"
         width="1"
         height="2"
         id="rect6721" />
    </pattern>
    <font
       style="font-variant:normal;font-weight:400"
       id="FontID0-6"
       horiz-adv-x="559"
       font-variant="normal"
       font-style="normal,italic"
       font-weight="400"
       horiz-origin-x="0"
       horiz-origin-y="0"
       vert-origin-x="45"
       vert-origin-y="90"
       vert-adv-y="90">
      <font-face
         font-family="Gentium Plus"
         id="font-face7-5" />
      <missing-glyph
         id="missing-glyph9-2">
        <path
           d="M0 0z"
           id="path11-1" />
      </missing-glyph>
      <glyph
         unicode="f"
         horiz-adv-x="311"
         id="glyph13-8">
        <path
           d="M399.008 710.173c0,-2.67717 -2.34646,-6.50394 -7.00787,-11.6693 -4.83465,-5.33858 -10.3307,-10.6772 -16.8346,-16.1732 -6.50394,-5.49606 -13.3386,-10.6614 -20.3307,-15.6693 -7.00787,-4.83465 -13.0079,-8.33071 -17.8268,-10.6614 -7.84252,6.83465 -15.6693,12.6614 -23.6693,17.8268 -8,5.00787 -15.6693,9.1811 -23.0079,12.3465 -7.32283,3.32283 -14.1575,5.82677 -20.5039,7.32283 -6.33071,1.66929 -11.6535,2.50394 -15.8268,2.50394 -8.50394,0 -17.4961,-2.83465 -27.1654,-8.50394 -9.49606,-5.82677 -18.5039,-16.1575 -26.8346,-31.1654 -8.33071,-14.9921 -15.1654,-35.3228 -20.6614,-60.9921 -5.51181,-25.8425 -8.33071,-58.8346 -8.33071,-99.3386l0 -42 126 0 14.1575 -14.3307c-2.99213,-4.66142 -6.66142,-9.66929 -10.9921,-14.8346 -4.50394,-5.33858 -8.83465,-10.1732 -13.1654,-14.8346 -4.50394,-4.66142 -8.67717,-8.83465 -13.0079,-12.5039 -4.17323,-3.82677 -7.82677,-6.33071 -10.6614,-7.66929 -7.51181,4 -18.3307,7.84252 -32.3307,11.5118 -14,3.82677 -34,5.66929 -60,5.66929l0 -357.339c0,-1.84252 1.65354,-3.84252 5.16535,-5.84252 3.32283,-2 9.16535,-4 17.3228,-6 8.17323,-2.15748 18.6772,-4.66142 31.5118,-7.32283 12.8189,-2.83465 28.8189,-6 48,-9.49606l0 -21.0079 -243.339 0 0 21.0079c22.5039,3.82677 39.4961,8.66142 50.9921,14.3307 11.5118,5.66929 17.3386,10.4882 17.3386,14.3307l0 357.339 -65.4961 0 -10.1732 13.8268 38 33.1654 37.6693 0 0 15.1654c0,38.5039 2.66142,70.8346 7.82677,97.0079 5.1811,26.1575 12.1732,48.3307 21.1811,66.4882 8.8189,18 19.1654,33.1654 30.8189,45.3386 11.6693,12.3307 24,23.6693 37.1811,34 8.66142,7.16535 18.3307,13.4961 28.6614,19.1654 10.5039,5.49606 20.8346,10.1732 30.9921,14.1732 10.3465,3.82677 20.1732,6.83465 29.3386,8.66142 9.33858,2 17.0079,3.00787 23.1654,3.00787 10.1732,0 20.5039,-2 31.3386,-5.84252 10.6614,-4 20.5039,-8.33071 29.4961,-13.4961 9.00787,-5.00787 16.3307,-10.1732 22.1732,-15.3386 6,-5.16535 8.83465,-9.16535 8.83465,-12.1575z"
           id="path15-8" />
      </glyph>
      <glyph
         unicode="U"
         horiz-adv-x="653"
         id="glyph17-2">
        <path
           d="M622.836 594.005c-22.1695,-4.50004 -39.4964,-9.6733 -52.0043,-15.1655 -12.4962,-5.50398 -18.8269,-10.5001 -18.8269,-15.1773l0 -308.164c0,-42.6618 -5.17327,-80.6699 -15.6734,-114.166 -10.3347,-33.4963 -25.3348,-61.8312 -45.0004,-84.9928 -19.5002,-23.1734 -43.335,-40.8428 -71.3273,-53.0083 -28.0042,-12.1655 -59.6698,-18.3309 -94.8315,-18.3309 -33.5081,0 -64.3352,4.66539 -92.5047,13.9962 -28.3349,9.16543 -52.5004,23.3388 -72.8392,42.3429 -20.4923,19.1576 -36.331,43.1578 -47.6579,72.1659 -11.504,28.9963 -17.1734,63.3312 -17.1734,102.993l0 347.164c0,4.00397 -6.00005,8.83472 -17.8348,14.6694 -11.8229,5.83469 -29.4924,11.1733 -52.9965,15.6734l0 21.0002 219.663 0 0 -21.0002c-22.1577,-4.50004 -39.4964,-9.6733 -51.9925,-15.1655 -12.508,-5.50398 -18.8387,-10.5001 -18.8387,-15.1773l0 -322.833c0,-31.3231 3.67326,-59.3272 11.008,-84.0007 7.32289,-24.827 18.3309,-45.6618 32.8231,-62.8233 14.5041,-17.1734 32.5042,-30.1656 53.6697,-39.3428 21.1655,-9.16543 45.8389,-13.6655 73.9966,-13.6655 23.1734,0 43.6775,5.66934 61.6777,16.8427 17.9883,11.3269 33.1656,25.9963 45.3311,44.1618 12.3308,18.3309 21.4962,39.0003 27.9923,62.3273 6.34257,23.3388 9.50795,47.0082 9.50795,71.1738l0 328.16c0,4.00397 -6.00005,8.83472 -17.8348,14.6694 -11.8347,5.83469 -29.5042,11.1733 -52.9965,15.6734l0 21.0002 204.663 0 0 -21.0002z"
           id="path19-2" />
      </glyph>
      <glyph
         unicode="É"
         horiz-adv-x="496"
         id="glyph21-5">
        <path
           d="M465.5 119.174c-2.66931,-28.016 -6.00005,-52.5122 -9.9922,-73.5124 -4.18114,-21.0002 -7.51187,-36.1656 -10.0158,-45.6618l-421.326 0 0 21.0002c22.1577,4.48822 39.4964,9.49614 51.9925,14.8348 12.5198,5.33862 18.8505,10.3229 18.8505,15.0001l0 513.004c0,3.8268 -6.00005,8.66936 -17.8348,14.5041 -11.8347,5.83469 -29.5042,11.1497 -53.0083,15.6615l0 21.0002 393.499 0 15.9923 -12.1655c-0.496067,-8.504 -1.4882,-17.8348 -2.83467,-28.016 -1.32285,-9.9922 -3.00002,-20.1498 -4.81894,-30.1656 -2.00789,-10.1576 -3.99216,-19.6537 -6.1654,-28.8191 -2.17325,-9.16543 -4.18114,-16.8427 -6.1654,-23.0081l-21.8506 0c-0.661423,15.0001 -2.14962,27.4963 -4.15751,37.6775 -2.17325,9.9922 -4.84256,18.1655 -8.17329,24.1655 -3.16538,6.00005 -7.15754,10.1576 -12.0001,12.6615 -4.65358,2.50396 -9.9922,3.66145 -15.8269,3.66145l-178.655 0 0 -211.986 197.813 0 12.6851 -13.6773c-2.66931,-4.51185 -5.83469,-9.49614 -9.49614,-14.6694 -3.85042,-5.17327 -7.67723,-10.3229 -11.8347,-15.3308 -4.01578,-5.00791 -8.17329,-9.66149 -12.1655,-14.008 -4.01578,-4.15751 -7.84258,-7.6536 -11.504,-10.1576 -4.84256,4.84256 -10.1812,9.00007 -15.8505,12.1655 -5.64571,3.33073 -12.1655,6.00005 -19.4883,8.33865 -7.32289,2.3386 -15.9923,3.8268 -25.8427,4.81894 -9.9922,1.01576 -21.8269,1.51182 -35.4806,1.51182l-68.8352 0 0 -242.671c0,-5.00791 1.15749,-9.33078 3.33073,-12.9922 2.31498,-3.85042 6.99218,-7.0158 14.1497,-9.85047 7.18116,-2.64569 17.3387,-4.81894 30.3546,-6.33076 12.9922,-1.4882 30.3309,-2.14962 51.8272,-2.14962l63.0005 0c14.8348,0 27.6616,0.826778 38.3389,2.48033 10.4883,1.51182 19.8191,5.17327 27.9923,11.008 8.17329,5.66934 15.4962,14.008 22.1577,24.9923 6.66147,11.1733 13.5119,26.3388 20.3387,45.52l21.0002 -8.83472zm-285.168 547.823c-5.50398,2.3386 -9.49614,5.00791 -11.8347,8.00794 -2.50396,3.16538 -5.83469,7.81896 -9.9922,13.9844l188.836 155.009c3.33073,-2.00789 7.6536,-4.48822 13.3229,-7.48825 5.50398,-3.16538 11.1733,-6.51974 17.008,-9.85047 5.83469,-3.49609 11.1497,-6.82683 16.1576,-9.9922 4.84256,-3.33073 8.504,-6.1654 11.1733,-8.83472l4.48822 -21.9923 -229.159 -118.843z"
           id="path23-0" />
      </glyph>
      <glyph
         unicode="t"
         horiz-adv-x="344"
         id="glyph25-4">
        <path
           d="M329.837 56.339c-15.9923,-11.6694 -31.6774,-22.0159 -47.339,-30.8506 -15.6615,-8.81109 -30.4963,-16.323 -44.6696,-22.323 -14.1733,-6.00005 -27.3309,-10.4883 -39.331,-13.4883 -12.0001,-3.16538 -22.323,-4.6772 -30.827,-4.6772 -11.3387,0 -22.1813,2.17325 -32.3388,6.33076 -10.1576,4.18114 -19.1576,11.1733 -27.0002,20.6695 -7.84258,9.66149 -14.008,22.323 -18.4962,37.8428 -4.51185,15.6615 -6.82683,34.8192 -6.82683,57.6619l0 299.506 -63.0005 0 -10.1812 13.819 38.0082 33.1656 35.1735 0 0 120.166 57.8272 50.835 15.1655 -12.1655 0 -158.836 159.663 0 14.1733 -14.3387c-3.00002,-4.65358 -6.66147,-9.66149 -11.008,-14.8348 -4.32287,-5.315 -8.83472,-10.1576 -13.4883,-14.8111 -4.51185,-4.6772 -9.00007,-8.83472 -13.3466,-12.5198 -4.32287,-3.8268 -8.14967,-6.33076 -11.504,-7.6536 -7.81896,3.99216 -19.6537,7.81896 -35.6459,11.504 -16.0159,3.8268 -37.016,5.66934 -63.5202,5.66934l-25.323 0 0 -257.837c0,-19.6773 0.826778,-35.8349 2.66931,-48.8508 1.81891,-13.1576 4.81894,-23.4805 9.00007,-31.1577 4.32287,-7.48825 9.66149,-12.9922 16.323,-16.323 6.85045,-3.16538 15.0001,-4.84256 24.6616,-4.84256 11.504,0 25.8427,2.3386 43.0161,6.82683 17.3387,4.51185 38.6696,13.3466 63.9926,26.3388l14.1733 -24.827z"
           id="path27-8" />
      </glyph>
      <glyph
         unicode="c"
         horiz-adv-x="437"
         id="glyph29-1">
        <path
           d="M409.822 92.0086c-21.1655,-25.1813 -39.8271,-44.6696 -55.8193,-58.843 -16.1812,-14.008 -30.9924,-24.6616 -44.6696,-32.0081 -13.6773,-7.15754 -27.1656,-11.6458 -40.1578,-13.4883 -13.0159,-1.84253 -27.1656,-2.66931 -42.52,-2.66931 -23.6459,0 -46.8193,5.33862 -69.4966,15.8269 -22.6537,10.6772 -42.6618,25.8427 -60.1658,45.8508 -17.6694,19.8191 -31.6538,44.15 -42.1657,72.8273 -10.4883,28.6538 -15.8269,60.9926 -15.8269,97.1582 0,35.3389 6.33076,68.1738 19.1576,98.8354 12.8505,30.6617 30.3309,57.3312 52.6776,80.0085 22.323,22.4884 48.4964,40.4885 78.8274,53.6697 30.1656,13.1576 63.0005,19.8191 98.174,19.8191 10.6536,0 21.6616,-0.826778 32.8349,-2.66931 11.3387,-1.81891 21.9923,-4.48822 32.3388,-7.81896 10.1576,-3.49609 19.6537,-7.51187 28.3231,-12.3308 8.504,-4.6772 15.6615,-10.0158 21.1655,-16.0159 0.661423,-3.8268 0.165356,-9.49614 -1.4882,-16.6537 -1.51182,-7.18116 -3.85042,-14.6694 -6.85045,-22.6773 -2.83467,-8.00794 -6.1654,-15.6615 -9.66149,-23.0081 -3.66145,-7.32289 -6.82683,-13.1576 -9.82685,-17.8112l-18.0001 4.98429c-2.66931,5.83469 -6.85045,12.1655 -12.6615,19.0159 -6.00005,6.82683 -13.5119,13.3229 -22.8427,19.4883 -9.16543,6.1654 -20.3387,11.3387 -33.1656,15.3308 -12.8269,4.18114 -27.4963,6.1654 -44.1736,6.1654 -17.3387,0 -33.827,-3.8268 -49.4886,-11.504 -15.8505,-7.6536 -29.8349,-19.1576 -42.0003,-34.4885 -12.3308,-15.3308 -22.0159,-34.3467 -29.3388,-57.1658 -7.32289,-22.8427 -11.008,-49.6776 -11.008,-80.3392 0,-27.6616 4.18114,-53.0083 12.4962,-75.662 8.17329,-22.6773 19.3466,-42.0003 33.1892,-57.9926 13.819,-15.8505 29.8113,-28.1813 47.8114,-36.8507 18.0001,-8.66936 36.8507,-12.9922 56.339,-12.9922 9.16543,0 17.6694,0.330711 25.512,1.15749 7.81896,0.8504 16.323,3.33073 25.6537,7.67723 9.16543,4.15751 20.008,10.4883 32.1735,18.9923 12.1655,8.504 27.3309,20.5041 45.6618,36.1656l18.9923 -19.9844z"
           id="path31-0" />
      </glyph>
      <glyph
         unicode="č"
         horiz-adv-x="437"
         id="glyph33-7">
        <path
           d="M409.827 92c-21.1654,-25.1654 -39.8268,-44.6614 -55.8268,-58.8346 -16.1732,-14 -30.9921,-24.6614 -44.6614,-32 -13.6693,-7.16535 -27.1654,-11.6693 -40.1732,-13.4961 -12.9921,-1.84252 -27.1654,-2.67717 -42.5039,-2.67717 -23.6535,0 -46.8346,5.33858 -69.4961,15.8425 -22.6614,10.6614 -42.6614,25.8268 -60.1575,45.8268 -17.6693,19.8425 -31.6693,44.1732 -42.1732,72.8346 -10.5039,28.6772 -15.8268,61.0079 -15.8268,97.1654 0,35.3386 6.33071,68.1732 19.1654,98.8346 12.8346,30.6772 30.3307,57.3386 52.6614,80 22.3307,22.5039 48.5039,40.5039 78.8346,53.6693 30.1575,13.1654 62.9921,19.8425 98.1575,19.8425 10.6772,0 21.6693,-0.834646 32.8346,-2.67717 11.3386,-1.82677 22,-4.50394 32.3465,-7.82677 10.1575,-3.49606 19.6535,-7.49606 28.3307,-12.3307 8.48819,-4.67717 15.6693,-10 21.1654,-16 0.661417,-3.84252 0.15748,-9.51181 -1.49606,-16.6772 -1.51181,-7.16535 -3.84252,-14.6614 -6.83465,-22.6614 -2.83465,-8 -6.17323,-15.6693 -9.66929,-23.0079 -3.66929,-7.32283 -6.83465,-13.1654 -9.84252,-17.8268l-18 5.00787c-2.66142,5.82677 -6.83465,12.1575 -12.6614,18.9921 -6,6.83465 -13.4961,13.3386 -22.8346,19.4961 -9.16535,6.17323 -20.3307,11.3386 -33.1654,15.3386 -12.8346,4.17323 -27.4961,6.17323 -44.1732,6.17323 -17.3228,0 -33.8268,-3.84252 -49.4961,-11.5118 -15.8268,-7.66929 -29.8268,-19.1654 -42,-34.4882 -12.3307,-15.3386 -22,-34.3465 -29.3228,-57.1811 -7.33858,-22.8189 -11.0079,-49.6535 -11.0079,-80.3307 0,-27.6693 4.17323,-52.9921 12.5039,-75.6693 8.15748,-22.6614 19.3228,-42 33.1654,-58 13.8268,-15.8268 29.8268,-28.1575 47.8268,-36.8189 18,-8.67717 36.8346,-13.0079 56.3307,-13.0079 9.1811,0 17.6693,0.330709 25.5118,1.16535 7.82677,0.834646 16.3307,3.33858 25.6693,7.66929 9.16535,4.17323 20,10.5039 32.1575,18.9921 12.1732,8.50394 27.3386,20.5039 45.6693,36.1732l18.9921 -20zm-144.488 431.008l-52.1732 0 -128.992 174c2.33071,3.32283 4.33071,6.15748 6,8.33071 1.49606,2.33071 3.16535,4.33071 4.48819,5.82677 1.51181,1.66929 3.16535,3.16535 5.00787,4.50394 1.82677,1.16535 4,2.66142 6.50394,4.33071l134.331 -122.504 131.827 122.504c5.49606,-2.99213 9.49606,-5.82677 11.6693,-8.83465 2.33071,-2.83465 5.49606,-7.66929 9.33858,-14.1575l-128 -174z"
           id="path35-9" />
      </glyph>
      <glyph
         unicode="A"
         horiz-adv-x="595"
         id="glyph37-8">
        <path
           d="M370.172 261.002l-86.0086 250.998 -83.4928 -250.998 169.501 0zm-184.171 -43.9964l-54.1658 -162.84c-3.16538,-10.1694 1.1693,-17.5041 13.1694,-22.0041 12.0001,-4.50004 31.5002,-8.32684 58.1579,-11.1615l0 -21.0002 -203.163 0 0 21.0002c22.1695,3.83861 39.6617,7.99613 52.6658,12.1655 13.1694,4.33468 21.1655,11.3387 24.4963,21.0002l181.667 549.831c7.50006,8.00794 16.6655,15.508 27.8388,22.1695 10.9961,6.66147 20.8348,12.3308 29.327,16.8308l205.006 -588.831c1.66537,-4.50004 3.83861,-8.66936 6.83864,-12.1655 3.00002,-3.66145 6.82683,-6.66147 11.6576,-9.33078 5.00791,-2.50396 11.1733,-4.83075 18.6734,-6.83864 7.50006,-1.83072 16.3348,-3.49609 26.8349,-4.83075l0 -21.0002 -206.175 0 0 21.0002c25.5002,1.66537 43.0043,4.83075 52.8311,9.66149 9.6733,5.00791 12.8387,12.6733 9.34259,23.5041l-55.6658 162.84 -199.336 0z"
           id="path39-6" />
      </glyph>
      <glyph
         unicode="R"
         horiz-adv-x="525"
         id="glyph41-1">
        <path
           d="M525.996 53.0083c-12.6615,-8.33865 -25.1577,-16.3466 -37.6538,-23.6695 -12.3308,-7.34651 -23.6695,-13.6773 -34.1814,-19.0159 -10.3229,-5.315 -19.6537,-9.66149 -27.9923,-12.6615 -8.33865,-3.16538 -14.6694,-4.65358 -18.8269,-4.65358 -5.50398,0 -10.8426,0.826778 -15.8505,2.50396 -4.98429,1.65356 -10.1576,4.81894 -15.1655,9.66149 -4.98429,4.65358 -10.3229,11.1497 -15.8269,19.4883 -5.50398,8.33865 -11.504,19.1813 -17.6694,32.5042l-110.339 230.506c-9.33078,0.661423 -19.1576,1.4882 -28.9845,2.83467 -10.0158,1.32285 -19.0159,3.00002 -27.1656,4.81894l-33.1656 -244.49c-1.01576,-3.99216 3.66145,-8.83472 13.9844,-14.5041 10.1812,-5.66934 25.512,-10.8426 46.0161,-15.3308l-2.83467 -21.0002 -200.175 0 2.83467 21.0002c20.5041,4.48822 36.9924,9.49614 49.3232,15.0001 12.3544,5.33862 18.8505,10.3229 19.512,14.8348l72.8273 532.162c-12.6615,-1.65356 -25.323,-3.49609 -37.8192,-5.66934 -12.5198,-1.98427 -25.1813,-4.32287 -37.8428,-6.99218l0 29.1735c14.6694,4.15751 29.3388,8.14967 44.1736,11.8347 14.8348,3.66145 30.3309,6.99218 46.6539,9.66149 16.1812,2.83467 33.6617,4.98429 52.1815,6.49611 18.4962,1.67718 39.0003,2.50396 60.9926,2.50396 28.6538,0 54.6618,-3.33073 78.0006,-10.0158 23.1734,-6.66147 43.1578,-16.6537 59.8351,-29.8113 16.4883,-13.1812 29.3388,-29.5042 38.5042,-48.8508 9.16543,-19.323 13.6537,-41.835 13.6537,-67.158 0,-12.6615 -2.83467,-28.3467 -8.504,-46.6775 -5.66934,-18.3309 -15.0001,-36.6617 -27.827,-54.6618 -12.8269,-18.1655 -29.6695,-34.6538 -50.5043,-49.8193 -20.8348,-15.1655 -46.6539,-25.6774 -77.1502,-31.5121l114.166 -201.828c5.83469,-10.3465 11.4804,-18.3309 16.819,-23.8348 5.33862,-5.50398 11.8347,-9.00007 19.1813,-10.3465 7.15754,-1.32285 16.323,-0.496067 27.0002,2.50396 10.819,2.83467 24.4963,7.51187 40.9846,13.6773l8.83472 -18.6616zm-274.986 536.319l-17.6694 0c-5.83469,0 -11.504,-0.165356 -17.008,-0.330711l-35.1735 -257.341c9.33078,-2.48033 18.6852,-4.48822 28.016,-5.81107 9.33078,-1.34647 18.4962,-2.00789 27.6616,-2.00789 20.5041,0 40.1578,2.83467 59.0083,8.504 18.8269,5.83469 35.4806,14.1497 49.8193,25.4884 14.3387,11.1733 25.8427,25.3467 34.3467,42.4964 8.64574,17.008 12.9922,37.1814 12.9922,60.3312 0,24.0002 -4.51185,44.3389 -13.5119,60.6855 -8.83472,16.4883 -20.3151,29.6459 -34.1577,39.8271 -13.8426,10.1576 -29.0081,17.3387 -45.8271,21.6616 -16.8427,4.34649 -33.0003,6.49611 -48.4964,6.49611z"
           id="path43-3" />
      </glyph>
      <glyph
         unicode="q"
         horiz-adv-x="515"
         id="glyph45-0">
        <path
           d="M237.829 48.0004c11.008,0 22.0159,2.3386 32.6695,6.82683 10.8426,4.6772 21.3309,10.5119 31.8428,17.8348 10.4883,7.34651 20.8348,15.8269 30.9924,25.1813 10.3229,9.49614 20.5041,19.1576 30.6617,28.9845l0 229.514c-10.819,18.4962 -25.9845,33.0003 -45.4964,43.3232 -19.4883,10.1576 -41.1736,15.3308 -64.6541,15.3308 -18.1891,0 -35.8349,-3.8268 -52.8429,-11.504 -16.8427,-7.6536 -32.0081,-19.1576 -45.1657,-34.4885 -13.1576,-15.3308 -23.8348,-34.3467 -31.8428,-57.1658 -7.98431,-22.8427 -12.0001,-49.6776 -12.0001,-80.3392 0,-27.6616 4.01578,-53.0083 12.0001,-75.662 8.00794,-22.6773 18.1655,-42.0003 30.4963,-57.9926 12.5198,-15.8505 26.1734,-28.1813 41.0082,-36.8507 14.8348,-8.66936 28.8427,-12.9922 42.331,-12.9922zm43.1814 -282.002l0 21.0002c30.6617,4.51185 51.9925,9.33078 64.4887,14.3387 12.3308,5.17327 18.4962,10.3229 18.4962,15.9923l-0.165356 264.002c-12.4962,-15.0001 -24.6616,-28.4884 -36.6617,-40.3232 -12.0001,-11.6694 -24.4963,-21.8506 -37.3231,-30.1656 -13.0159,-8.33865 -26.5041,-14.8348 -40.6775,-19.1813 -14.1733,-4.48822 -29.5042,-6.66147 -46.1578,-6.66147 -18.1655,0 -36.8507,5.33862 -56.0083,15.8269 -19.323,10.6772 -36.9924,25.8427 -53.0083,45.8508 -16.1576,19.8191 -29.3152,44.15 -39.6617,72.8273 -10.1576,28.6538 -15.3308,60.9926 -15.3308,97.1582 0,28.6774 4.48822,55.1815 13.6773,79.3471 9.16543,24.0002 20.3151,45.4964 33.4963,64.158 13.1576,18.8269 27.1656,34.6538 42.1657,47.6697 15.0001,13.1576 28.1577,22.8191 39.6617,29.3388 18.4962,10.1576 36.8271,18.0001 55.1579,23.4805 18.1655,5.50398 33.4963,8.33865 45.8508,8.33865 8.83472,0 17.6458,-0.496067 26.3152,-1.65356 8.83472,-1.18111 17.8348,-3.33073 26.8349,-6.68509 9.16543,-3.16538 18.6616,-7.81896 28.3467,-13.6537 9.82685,-5.83469 20.3151,-13.6773 31.3231,-23.3388 4.84256,2.83467 9.82685,6.33076 15.1655,10.5119 5.17327,3.99216 10.1812,7.98431 15.1655,12.1655 4.84256,3.99216 9.49614,8.14967 13.8426,12.1655 4.32287,3.99216 8.00794,7.48825 11.008,10.4883l15.1655 -14.6694c-3.00002,-9.16543 -5.50398,-18.9923 -7.84258,-29.8349 -2.00789,-9.33078 -3.66145,-20.4805 -5.17327,-33.1656 -1.4882,-12.6615 -2.14962,-26.3152 -2.14962,-40.9846l0 -533.012c0,-5.33862 4.98429,-10.4883 15.1655,-15.6615 9.9922,-5.17327 27.6616,-10.1576 52.654,-14.6694l0 -21.0002 -223.821 0z"
           id="path47-3" />
      </glyph>
      <glyph
         unicode="O"
         horiz-adv-x="600"
         id="glyph49-5">
        <path
           d="M478.976 307.514c-0.0944889,22.5356 -2.05513,44.7759 -6.2717,66.7328 -4.06302,21.886 -9.81504,42.7917 -17.4096,62.4454 -7.37014,19.7009 -16.7364,37.8546 -27.5908,54.7327 -10.9253,16.7245 -23.138,31.1223 -36.9452,43.3468 -13.6655,12.1418 -28.5475,21.7325 -44.8822,28.6892 -16.3466,6.96856 -33.6499,10.4646 -52.1579,10.4292 -28.9372,0.0354333 -54.8744,-6.17721 -77.7053,-18.4844 -22.9726,-12.2245 -42.3665,-29.6813 -57.9453,-52.2878 -15.8151,-22.6773 -27.7916,-50.15 -36.331,-82.3825 -8.30321,-32.1735 -12.4489,-68.1856 -12.4253,-108.024 0.0236222,-36.4019 5.11421,-70.8667 15.071,-103.442 9.95677,-32.5751 23.2915,-61.1225 40.146,-85.7133 16.7127,-24.5081 36.4019,-43.9964 58.8548,-58.1579 22.3703,-14.3033 46.2405,-21.4372 71.2328,-21.3781 27.0829,0.0472445 51.7091,5.6339 74.351,16.9017 22.6301,11.2796 42.0003,27.9923 58.4532,50.1146 16.3112,22.2049 29.1262,49.7957 38.0672,82.7605 9.08275,32.8821 13.5237,70.8195 13.4883,113.717zm75.5085 9.02369c0.0590556,-44.2444 -7.11029,-86.3865 -21.7088,-126.131 -14.5277,-39.957 -34.3703,-75.0833 -59.528,-105.343 -25.1695,-30.2601 -54.2485,-54.5437 -87.3786,-72.3785 -33.0711,-18.0592 -68.1501,-27.012 -105.296,-27.0002 -38.9531,-0.141733 -73.7959,8.504 -104.328,25.6183 -30.6735,17.197 -56.4099,40.2287 -77.4809,69.2486 -21.0002,28.7955 -36.9688,62.221 -48.1185,99.8512 -11.0788,37.772 -16.7127,77.103 -16.8427,118.135 -0.0590556,44.2444 6.96856,86.4692 21.3545,126.521 14.1497,39.9806 33.4845,75.1896 58.2642,105.473 24.6498,30.3546 53.6461,54.4847 86.8708,72.473 33.3546,17.9057 69.0242,26.9057 107.375,26.9884 40.4413,0.0708667 75.8037,-8.66936 106.383,-26.386 30.579,-17.7049 56.2918,-41.1027 77.2093,-70.4179 20.9057,-29.3152 36.6381,-62.8115 47.1972,-100.489 10.7009,-37.7483 15.9214,-76.4652 16.0277,-116.162z"
           id="path51-6" />
      </glyph>
      <glyph
         unicode="L"
         horiz-adv-x="476"
         id="glyph53-2">
        <path
           d="M460.666 119.168c-2.66339,-28.3347 -6.00001,-52.8367 -9.99805,-73.6655 -4.1693,-20.8347 -7.50001,-36.0001 -10.1693,-45.5021l-416.333 0 0 21c22.1693,4.50001 39.502,9.50199 52.004,14.8347 12.4961,5.33269 18.8327,10.3347 18.8327,15l0 513.001c0,3.83268 -6.00001,8.6634 -17.8347,14.4981 -11.8347,5.83466 -29.4981,11.1673 -53.0021,15.6674l0 21 219.668 0 0 -21c-22.1693,-4.50001 -39.502,-9.50199 -51.9981,-15.1654 -12.502,-5.50395 -18.8327,-10.5 -18.8327,-15l0 -483.668c0,-5.83466 1.32874,-11.002 4.16339,-15.502 2.6693,-4.33465 7.50001,-7.99608 14.3327,-11.1673 6.83269,-3.00001 16.1693,-5.49804 27.8327,-6.99805 11.8347,-1.66536 26.6693,-2.49804 44.504,-2.49804l69.8328 0c15,0 27.4961,0.832679 37.8308,2.49804 10.1693,1.5 19.3347,5.16733 27.0001,11.002 7.83663,5.6634 15,13.9961 21.3367,24.9981 6.33072,11.1673 12.9981,26.3327 19.8307,45.5021l21 -8.83466z"
           id="path55-2" />
      </glyph>
      <glyph
         unicode="n"
         horiz-adv-x="551"
         id="glyph57-9">
        <path
           d="M327.669 0l0 21.0079c23.3386,6.15748 40.6614,11.6535 51.6693,16.1575 11.1654,4.50394 16.6614,9.16535 16.6614,13.6693l0 258.835c0,19.8268 -1.16535,36 -3.49606,48.3307 -2.17323,12.5039 -5.84252,22.1732 -10.6772,29.3386 -4.99213,7.32283 -11.3228,12.1575 -19.4961,14.8346 -8,2.48819 -17.6693,3.82677 -29.1654,3.82677 -10,0 -21.3386,-2.50394 -33.8268,-7.33858 -12.3307,-4.83465 -25.6693,-12.6614 -39.8425,-23.4961 -14.3307,-10.6614 -29.1654,-24.8346 -44.6614,-42.3307 -15.4961,-17.3386 -31.1654,-38.8346 -46.8346,-64.3307l0 -217.669c0,-4.83465 6.17323,-9.82677 18.3307,-15.1654 12.1732,-5.16535 28.8346,-10 50,-14.6614l0 -21.0079 -209.669 0 0 21.0079c21.5118,5.65354 38.1732,10.4882 50.3465,14.9921 12,4.33071 18,9.33858 18,14.8346l0 296.992c0,12.8346 -0.503937,22.8346 -1.51181,30.3465 -0.992126,7.49606 -3.66929,13.4961 -8,17.6535 -4.33071,4.17323 -11.1654,7.33858 -20.3307,9.33858 -8.99213,2 -22,3.84252 -38.5039,5.84252l0 19.3228c22.1732,3.49606 42.6772,8.67717 61.5118,15.1654 18.8346,6.67717 37.3228,14.5039 55.4961,23.5118l16.9921 -17.1811 5.33858 -121.496c14.3307,21.6693 30.1732,41.1654 47.4961,58.3307 17.3386,17.0079 34.6772,31.5118 52.3307,43.5118 17.6693,11.8268 34.6772,20.9921 51.1811,27.3228 16.4882,6.33071 31.1654,9.51181 43.8268,9.51181 14,0 27.4961,-2.17323 40.6614,-6.34646 13.0079,-4.33071 24.5039,-10.8346 34.5039,-19.4961 9.82677,-8.83465 17.8268,-20 24,-33.4961 6,-13.4961 9.00787,-29.3386 9.00787,-47.6693l0 -311.165c0,-4.50394 4.99213,-9.00787 14.8189,-13.4961 10,-4.33071 27.8425,-9.84252 53.5118,-16.3307l0 -21.0079 -209.669 0z"
           id="path59-4" />
      </glyph>
      <glyph
         unicode="ř"
         horiz-adv-x="396"
         id="glyph61-7">
        <path
           d="M375.499 450.996c3.00002,-1.81891 4.32287,-7.6536 4.15751,-16.9844 -0.165356,-9.3544 -1.4882,-20.1734 -3.8268,-32.5042 -2.50396,-12.3308 -5.66934,-25.0159 -9.49614,-38.1735 -3.99216,-12.9922 -7.84258,-23.8348 -11.8347,-32.6695l-21.0002 0c-1.84253,12.9922 -4.65358,24.1655 -8.33865,33.1656 -3.49609,9.16543 -7.6536,16.3466 -12.3308,21.8269 -4.81894,5.33862 -9.9922,9.16543 -15.6615,11.6694 -5.66934,2.50396 -11.6694,3.68507 -17.8348,3.68507 -7.15754,0 -15.4962,-3.00002 -25.1577,-9.00007 -9.51976,-6.00005 -19.512,-15.5198 -29.5042,-28.3467 -10.1812,-12.9922 -20.1734,-29.5042 -30.0002,-49.4886 -10.0158,-20.008 -18.8269,-43.8429 -26.6695,-71.6699l0 -191.671c0,-4.84256 6.1654,-9.9922 18.3309,-15.1655 12.1655,-5.17327 33.6617,-9.9922 64.158,-14.6694l0 -21.0002 -223.821 0 0 21.0002c21.4962,4.84256 38.1735,9.66149 50.339,14.3387 12.0001,4.81894 18.0001,9.9922 18.0001,15.4962l0 284.341c0,10.6536 -0.330711,19.8191 -1.01576,27.1656 -0.661423,7.32289 -1.4882,13.1576 -2.50396,17.8348 -0.826778,4.48822 -2.14962,7.98431 -3.66145,10.6536 -1.32285,2.66931 -2.83467,4.6772 -3.99216,6.33076 -2.3386,2.3386 -4.84256,4.18114 -7.67723,5.66934 -2.66931,1.51182 -6.33076,2.66931 -10.6536,3.66145 -4.51185,1.01576 -9.66149,1.67718 -15.8269,2.17325 -6.35438,0.496067 -13.8426,0.992134 -23.0081,1.67718l0 19.6537c21.1655,5.50398 41.835,11.008 62.1737,16.8427 20.3151,5.66934 38.646,12.9922 54.8272,22.1577l17.008 -17.1734 6.33076 -110.812c8.83472,18.0001 18.3309,34.6538 28.6538,50.3154 10.1812,15.6852 21.1655,29.1735 32.8349,40.8428 11.8347,11.504 24.0002,20.5041 36.8271,27.0002 13.0159,6.49611 26.3388,9.82685 40.3468,9.82685 10.4883,0 21.6616,-1.32285 33.6617,-3.8268 12.1655,-2.66931 24.1655,-7.34651 36.1656,-14.1733zm-129.166 72.0006l-52.1579 0 -129.001 174.001c2.31498,3.33073 4.32287,6.1654 6.00005,8.33865 1.4882,2.3386 3.16538,4.32287 4.48822,5.83469 1.51182,1.65356 3.16538,3.16538 5.00791,4.48822 1.81891,1.18111 3.99216,2.66931 6.49611,4.34649l134.34 -122.505 131.836 122.505c5.48036,-3.00002 9.49614,-5.83469 11.6694,-8.83472 2.31498,-2.83467 5.48036,-7.67723 9.33078,-14.1733l-128.009 -174.001z"
           id="path63-1" />
      </glyph>
      <glyph
         unicode="k"
         horiz-adv-x="487"
         id="glyph65-9">
        <path
           d="M14.6694 0l0 21.0002c21.4962,5.50398 38.1735,10.3229 50.339,14.6694 12.0001,4.15751 18.0001,9.33078 18.0001,15.1655l0 582.17c0,15.0001 -0.8504,26.5041 -2.66931,34.6538 -1.84253,8.17329 -5.17327,14.1733 -10.3465,18.3309 -4.98429,4.01578 -12.0001,6.68509 -21.0002,8.00794 -8.83472,1.34647 -20.3151,2.83467 -34.3231,4.34649l0 19.6537c22.4884,4.51185 44.5043,9.82685 66.1659,15.8269 21.4962,6.00005 40.6539,13.6773 57.1658,23.1734l18.0001 -16.6537 0 -481.516 150.332 131.174c10.8426,9.49614 17.3387,17.008 19.6773,22.8191 2.14962,5.66934 1.81891,10.0158 -1.34647,12.8505 -3.00002,3.00002 -8.33865,4.81894 -15.6615,5.83469 -7.15754,0.992134 -15.1655,1.4882 -23.6695,1.4882l0 21.0002 185.175 0 0 -21.0002c-14.3387,-1.65356 -27.4963,-4.32287 -39.6854,-7.98431 -12.0001,-3.85042 -24.827,-11.1733 -38.4806,-22.3466l-166.513 -133.159 183.663 -215.506c4.51185,-5.17327 9.16543,-9.49614 14.008,-12.8269 5.00791,-3.49609 10.3229,-6.1654 16.1576,-8.00794 5.83469,-2.00789 12.5198,-3.33073 19.8427,-3.66145 7.32289,-0.496067 15.6615,-0.496067 25.1577,0.165356l2.83467 -21.0002c-9.33078,-2.3386 -18.6616,-4.18114 -27.9923,-5.83469 -9.33078,-1.67718 -18.0001,-3.00002 -25.8427,-4.15751 -7.98431,-1.18111 -15.1655,-2.00789 -21.4962,-2.66931 -6.33076,-0.685045 -11.1497,-1.01576 -14.5041,-1.01576 -13.6537,0 -24.6616,2.00789 -33.0003,5.83469 -8.14967,4.01578 -15.9923,10.6772 -23.1498,20.008l-185.505 234.002 0 -204.002c0,-2.66931 0.496067,-5.00791 1.67718,-6.82683 1.15749,-2.00789 3.49609,-4.01578 7.15754,-6.1654 3.49609,-2.17325 8.83472,-4.51185 15.9923,-7.0158 7.18116,-2.66931 16.8427,-6.00005 28.8427,-9.82685l0 -21.0002 -195.002 0z"
           id="path67-0" />
      </glyph>
      <glyph
         unicode="ň"
         horiz-adv-x="551"
         id="glyph69-4">
        <path
           d="M327.664 0l0 21.0002c23.3388,6.1654 40.6775,11.6694 51.6618,16.1576 11.1733,4.51185 16.6773,9.16543 16.6773,13.6773l0 258.829c0,19.8427 -1.18111,36.0003 -3.49609,48.3311 -2.17325,12.4962 -5.83469,22.1813 -10.6772,29.3388 -5.00791,7.32289 -11.3387,12.1655 -19.4883,14.8348 -8.00794,2.50396 -17.6694,3.8268 -29.1735,3.8268 -9.9922,0 -21.3309,-2.50396 -33.827,-7.32289 -12.3308,-4.84256 -25.6774,-12.6615 -39.8507,-23.5041 -14.3151,-10.6772 -29.1498,-24.827 -44.646,-42.331 -15.5198,-17.3387 -31.1813,-38.835 -46.8429,-64.347l0 -217.655c0,-4.84256 6.1654,-9.82685 18.3309,-15.1655 12.1655,-5.17327 28.8427,-9.9922 50.0083,-14.6694l0 -21.0002 -209.671 0 0 21.0002c21.4962,5.66934 38.1735,10.4883 50.339,15.0001 12.0001,4.32287 18.0001,9.33078 18.0001,14.8348l0 297.002c0,12.8269 -0.519689,22.8191 -1.51182,30.3309 -0.992134,7.48825 -3.66145,13.4883 -8.00794,17.6694 -4.32287,4.15751 -11.1497,7.32289 -20.3151,9.33078 -9.00007,2.00789 -22.0159,3.8268 -38.5042,5.83469l0 19.323c22.1577,3.49609 42.6618,8.66936 61.4887,15.1655 18.8505,6.68509 37.3468,14.5041 55.5122,23.5041l17.008 -17.1734 5.315 -121.489c14.3387,21.6616 30.1656,41.1736 47.5043,58.3233 17.3387,17.008 34.6774,31.5121 52.3469,43.5122 17.6458,11.8347 34.6538,21.0002 51.1658,27.3309 16.4883,6.33076 31.1577,9.49614 43.8192,9.49614 14.008,0 27.4963,-2.17325 40.6775,-6.33076 12.9922,-4.32287 24.4963,-10.8426 34.4885,-19.4883 9.82685,-8.83472 17.8348,-20.008 24.0002,-33.5199 6.00005,-13.4883 9.00007,-29.3152 9.00007,-47.646l0 -311.176c0,-4.51185 5.00791,-9.00007 14.8348,-13.5119 9.9922,-4.32287 27.827,-9.82685 53.5044,-16.323l0 -21.0002 -209.671 0zm-19.323 522.996l-52.1815 0 -129.001 174.001c2.3386,3.33073 4.34649,6.1654 6.00005,8.33865 1.51182,2.3386 3.16538,4.32287 4.51185,5.83469 1.4882,1.65356 3.16538,3.16538 5.00791,4.48822 1.81891,1.18111 3.99216,2.66931 6.49611,4.34649l134.316 -122.505 131.836 122.505c5.50398,-3.00002 9.49614,-5.83469 11.6694,-8.83472 2.3386,-2.83467 5.50398,-7.67723 9.33078,-14.1733l-127.985 -174.001z"
           id="path71-0" />
      </glyph>
      <glyph
         unicode="I"
         horiz-adv-x="297"
         id="glyph73-8">
        <path
           d="M34.1696 0l0 21.0002c22.1695,4.50004 39.4964,9.49614 51.9925,14.8348 12.508,5.32681 18.8387,10.3347 18.8387,15.0001l0 513.004c0,3.8268 -6.00005,8.65755 -17.8348,14.4922 -11.8347,5.83469 -29.5042,11.1733 -52.9965,15.6734l0 21.0002 219.663 0 0 -21.0002c-22.1695,-4.50004 -39.4964,-9.6733 -52.0043,-15.1655 -12.4962,-5.50398 -18.8269,-10.5001 -18.8269,-15.0001l0 -513.004c0,-4.00397 6.00005,-8.83472 17.8348,-14.5041 11.8347,-5.66934 29.4924,-10.8308 52.9965,-15.3308l0 -21.0002 -219.663 0z"
           id="path75-9" />
      </glyph>
      <glyph
         unicode="F"
         horiz-adv-x="478"
         id="glyph77-2">
        <path
           d="M24.1732 0l0 21.0079c22.1575,4.48819 39.4961,9.49606 52,14.8189 12.4882,5.33858 18.8346,10.3465 18.8346,15.0079l0 512.992c0,3.84252 -6,8.67717 -17.8425,14.5039 -11.8268,5.84252 -29.4961,11.1654 -52.9921,15.6693l0 21.0079 398.331 0 15.1654 -12.1732c-0.330709,-8.50394 -1.16535,-17.8268 -2.50394,-28 -1.33858,-10 -2.83465,-20.1732 -4.66142,-30.1732 -1.66929,-10.1575 -3.66929,-19.6535 -5.84252,-28.8346 -2,-9.16535 -4.15748,-16.8189 -6,-22.9921l-22.9921 0c-0.661417,14.9921 -1.84252,27.4961 -3.66929,37.6693 -1.82677,10 -4.33071,18.1575 -7.82677,24.1575 -3.33858,6 -7.51181,10.1732 -12.1732,12.6772 -4.66142,2.48819 -10.1732,3.66929 -16.3307,3.66929l-182.661 0 0 -212 182.661 0 14.1575 -13.6693c-2.99213,-4.50394 -6.33071,-9.51181 -10.3307,-14.6772 -3.82677,-5.16535 -8,-10.3307 -12.1575,-15.3228 -4.17323,-5.00787 -8.33071,-9.66929 -12.5039,-14 -4,-4.17323 -7.66929,-7.66929 -11.0079,-10.1732 -4.8189,4.83465 -10,9.00787 -15.4961,12.1732 -5.66929,3.32283 -12,6 -19.3228,8.33071 -7.33858,2.33071 -16,3.82677 -25.8425,4.83465 -10,0.992126 -21.8268,1.49606 -35.4961,1.49606l-54.6614 0 0 -267.165c0,-4 6.33071,-8.33071 18.8189,-13.1654 12.5039,-5.00787 34.6772,-10.5039 66.6772,-16.6614l0 -21.0079 -234.331 0z"
           id="path79-0" />
      </glyph>
      <glyph
         unicode="y"
         horiz-adv-x="493"
         id="glyph81-8">
        <path
           d="M482.835 433.008c-9.66929,-2.34646 -17.6693,-4.34646 -23.8268,-6.34646 -6.17323,-2 -11.1811,-4.15748 -15.1811,-6.66142 -3.82677,-2.33071 -6.8189,-5.16535 -8.99213,-8.17323 -2.17323,-3.16535 -4,-7.16535 -5.66929,-12l-162.992 -439.827c-13.6693,-36.1732 -29.0079,-67.0079 -45.6693,-92.6614 -16.8346,-25.6693 -34.1732,-46.8346 -52.3307,-63.3386 -18,-16.3307 -36.1732,-28.5039 -54.3465,-36.3307 -18.3307,-7.84252 -35.4961,-11.6693 -51.8268,-11.6693 -12.3307,0 -23.8268,0.834646 -34.1732,2.50394 -10.4882,1.49606 -19.3228,3.66929 -26.8189,6 -7.51181,2.48819 -13.3386,5.32283 -17.6693,8.33071 -4.17323,3.16535 -6.34646,6.15748 -6.34646,8.99213 0,2 2,5.84252 5.84252,11.8425 4,5.82677 8.83465,12.1575 14.6614,19.1654 5.84252,6.99213 12.1732,13.8268 18.8346,20.3307 6.67717,6.50394 12.6772,11.3386 17.8425,14.6614 15.6535,-9.16535 31.1654,-14 46.6614,-14.6614 15.4961,-0.661417 29.1654,1.33858 41.1654,5.82677 6,2 12.8346,6.50394 20.5039,13.6693 7.82677,7.16535 15.8268,16 23.8268,26.3307 7.84252,10.5039 15.6693,22.1732 23.3386,35.3386 7.66929,13.1654 14.5039,26.8346 20.3307,40.8346l14.1732 33.6693 -160.173 410.992c-2.99213,9.1811 -8.66142,16 -17.1654,20.6772 -8.33071,4.83465 -20.8346,8.99213 -37.0079,12.5039l0 20.9921 188.504 0 0 -20.9921c-12.8346,-1.66929 -23.1654,-3.1811 -31.1654,-4.83465 -7.82677,-1.66929 -14,-3.66929 -18.5039,-6.17323 -4.33071,-2.33071 -6.83465,-5.33858 -7.49606,-8.99213 -0.661417,-3.51181 0,-8 1.84252,-13.1811l120.157 -310.992 112.835 310.992c1.66929,4.83465 1.82677,9.00787 0.661417,12.5039 -1.16535,3.33858 -3.82677,6.33071 -8.33071,8.67717 -4.33071,2.48819 -10.5039,4.66142 -18.5039,6.33071 -8,1.82677 -18,3.66929 -30,5.66929l0 20.9921 163.008 0 0 -20.9921z"
           id="path83-1" />
      </glyph>
      <glyph
         unicode="ł"
         horiz-adv-x="280"
         id="glyph85-1">
        <path
           d="M34.8428 0l0 21.0002c13.9844,2.3386 25.6537,4.6772 34.9845,7.15754 9.49614,2.3386 17.008,4.84256 22.512,7.18116 5.50398,2.50396 9.49614,4.98429 12.0001,7.6536 2.50396,2.66931 3.66145,5.17327 3.66145,7.84258l0 279.829 -69.3313 -48.8272 -11.6694 8.33865c0.661423,4.15751 1.15749,7.6536 1.84253,10.1576 0.661423,2.66931 1.4882,5.33862 2.31498,8.17329 0.685045,2.66931 1.84253,6.1654 3.33073,10.1576 1.51182,3.99216 3.51971,9.49614 6.18903,16.3466l67.3234 46.9846 0 251.01c0,14.6694 -0.992134,25.9845 -3.00002,34.1577 -1.84253,8.17329 -5.50398,14.1733 -10.6772,18.3309 -5.14965,4.01578 -12.1655,6.85045 -21.0002,8.33865 -8.83472,1.32285 -19.9844,3.00002 -33.6617,4.51185l0 19.6537c23.3388,4.51185 44.835,9.49614 64.347,15.0001 19.4883,5.66934 39.331,13.6773 59.4808,24.0002l17.5041 -16.6537 0 -307.68 71.8352 50.339 11.1733 -7.84258c-0.992134,-5.50398 -1.84253,-9.82685 -2.66931,-13.1576 -0.826778,-3.16538 -1.67718,-6.33076 -2.66931,-9.00007 -0.992134,-2.83467 -2.17325,-5.83469 -3.49609,-9.00007 -1.15749,-3.33073 -3.00002,-7.67723 -5.33862,-13.1812l-68.8352 -48.8272 0 -331.16c0,-5.00791 5.50398,-9.9922 16.6773,-15.1655 10.9843,-5.17327 29.8349,-10.1812 56.5044,-14.6694l0 -21.0002 -219.332 0z"
           id="path87-9" />
      </glyph>
      <glyph
         unicode="þ"
         horiz-adv-x="529"
         id="glyph89-8">
        <path
           d="M425.008 199.339c0,32.3307 -3.33858,61.3228 -10,86.9921 -6.67717,25.6693 -15.6693,47.6693 -26.6772,65.6693 -11.1654,18.1732 -24,32 -38.6614,41.6693 -14.6614,9.49606 -29.8425,14.3307 -45.4961,14.3307 -6,0 -13.6693,-1.82677 -23.0079,-5.33858 -9.49606,-3.65354 -20.3307,-9.65354 -32.3307,-18.1575 -12.1732,-8.50394 -25.0079,-19.6693 -38.6614,-33.8425 -13.8425,-14.1575 -27.8425,-31.6535 -42.1732,-52.6614l0 -193.827c25.1654,-19.6693 49.1654,-34.5039 72,-44.8346 22.8346,-10.1732 45.4961,-15.3386 68,-15.3386 18.6614,0 35.1654,4.33071 49.4961,13.1654 14.3307,8.83465 26.5039,20.5039 36.6772,35.1654 10.1575,14.6772 17.8268,31.3386 22.9921,49.8425 5.16535,18.6614 7.84252,37.6535 7.84252,57.1654zm66 40.8346c0,-18.8346 -2.50394,-38.3465 -7.66929,-58.1732 -5.00787,-19.8268 -12,-39.1654 -21.1654,-58.1732 -9.16535,-18.8189 -20.1732,-36.8189 -32.8346,-53.8268 -12.6772,-16.8346 -26.8346,-31.6693 -42.5039,-44.1732 -15.6693,-12.4882 -32.6614,-22.4882 -50.6614,-29.8268 -18.1732,-7.33858 -37.0079,-11.0079 -56.6772,-11.0079 -5.16535,0 -11.6693,0.834646 -19.6693,2.67717 -8,1.82677 -16.9921,4.83465 -26.6614,8.83465 -9.82677,4.15748 -20.3307,9.32283 -31.3386,15.8268 -11.1654,6.33071 -22.3307,14.3307 -33.8268,23.8425l0 -219.008c0,-5.16535 6.17323,-10.3307 18.5039,-15.4961 12.5039,-5.33858 33.8268,-10.1732 64.5039,-14.6772l0 -20.9921 -224.346 0 0 20.9921c21.5118,5.1811 38.1732,10.1732 50.3465,14.8346 12,4.83465 18,9.84252 18,15.5118l0 815.669c0,14.6614 -1.00787,26 -3.00787,34.1575 -1.82677,8.17323 -5.33858,14.1732 -10.5039,18.3307 -4.99213,4 -12,6.83465 -20.9921,8.33071 -8.83465,1.51181 -20.1732,3.00787 -33.8425,4.67717l0 19.4961c23.3386,4.50394 45.0079,9.49606 64.6772,15.0079 19.6693,5.65354 39.1654,13.6535 58.6614,24l18 -16.6772 0.330709 -382.157c16.6772,19.8268 33.0079,36.8346 49.3386,50.8346 16.3307,14 31.6693,25.3228 46.1575,34.3307 14.5039,8.99213 28,15.4961 40.3465,19.4961 12.4882,4.17323 23.3228,6.17323 32.8346,6.17323 22.1575,0 42.6614,-5.1811 61.6535,-15.6693 18.8346,-10.3307 35.1654,-25.5118 48.8346,-45.1654 13.6693,-19.6693 24.3307,-43.8425 32,-72.1732 7.66929,-28.3307 11.5118,-60.3307 11.5118,-95.8268z"
           id="path91-8" />
      </glyph>
      <glyph
         unicode="v"
         horiz-adv-x="493"
         id="glyph93-3">
        <path
           d="M482.835 433.008c-9.66929,-2.34646 -17.6693,-4.34646 -23.8268,-6.34646 -6.17323,-2 -11.1811,-4.15748 -15.1811,-6.66142 -3.82677,-2.33071 -6.8189,-5.16535 -8.99213,-8.33071 -2.17323,-3.00787 -4,-7.00787 -5.66929,-11.8425l-138.157 -371.323c-2.83465,-7.16535 -7.1811,-13.3386 -12.6772,-18.3307 -5.49606,-5.00787 -11.4961,-9.33858 -18,-12.6772 -6.66142,-3.49606 -12.9921,-6.15748 -19.3228,-8.15748 -6.34646,-1.84252 -11.6693,-3.33858 -15.8425,-4.34646l-161.165 414.835c-2.99213,9.00787 -8.66142,16 -17.1654,20.6772 -8.33071,4.83465 -20.8346,8.99213 -37.0079,12.5039l0 20.9921 188.504 0 0 -20.9921c-12.8346,-1.66929 -23.1654,-3.33858 -31.1654,-4.83465 -7.82677,-1.66929 -14,-3.66929 -18.5039,-6.17323 -4.33071,-2.50394 -6.83465,-5.49606 -7.49606,-8.99213 -0.661417,-3.66929 0,-8 1.84252,-13.1811l120.157 -313.165 112.835 313.165c1.66929,4.83465 2.17323,9.00787 1.66929,12.3465 -0.503937,3.49606 -2.66142,6.33071 -6.50394,8.83465 -4,2.48819 -9.66929,4.66142 -16.8346,6.33071 -7.32283,1.82677 -17.1654,3.66929 -29.1654,5.66929l0 20.9921 157.669 0 0 -20.9921z"
           id="path95-4" />
      </glyph>
      <glyph
         unicode="e"
         horiz-adv-x="461"
         id="glyph97-2">
        <path
           d="M242.173 418c-17.0079,0 -32.5039,-3.33858 -46.6772,-9.82677 -14.1575,-6.50394 -26.8346,-15.8425 -37.6693,-27.6693 -10.9921,-12 -20,-26.1732 -27.4961,-42.8346 -7.32283,-16.5039 -12.3307,-34.6614 -15.3228,-54.6614l209.323 0c7.49606,0 12.5039,1.16535 15.0079,3.65354 2.48819,2.50394 3.66929,7.16535 3.66929,14 0,8.83465 -1.1811,19.8425 -3.66929,33.1654 -2.50394,13.1811 -7.33858,26.1732 -14.6772,38.8346 -7.32283,12.5039 -17.6535,23.1654 -30.8346,32 -13.1654,8.83465 -30.4882,13.3386 -51.6535,13.3386zm180.835 -146.173c-5.84252,-6.48819 -13.6693,-12.6614 -23.5118,-18.1575 -9.66929,-5.49606 -19.8268,-10.5039 -30.3307,-14.6614l-257.165 0c0.330709,-25.5118 3.82677,-49.6693 10.5039,-72.6772 6.66142,-22.9921 16.3307,-43.3228 28.8346,-60.8346 12.4882,-17.4961 27.6693,-31.3228 45.4961,-41.8268 17.8268,-10.5039 37.6693,-15.6693 59.8268,-15.6693 10.1732,0 20,0.661417 29.6693,2 9.49606,1.33858 20,4.17323 31.0079,8.66142 10.9921,4.67717 23.3228,11.3386 36.8346,20.1732 13.6535,8.66142 29.4961,20.6614 47.6535,35.4961 4.34646,-2.15748 8,-5.49606 11.0079,-9.66929 3.16535,-4.33071 5.49606,-7.65354 7.16535,-10.3307 -21.8268,-23.6693 -40.9921,-42.8346 -57.3386,-57.1654 -16.4882,-14.5039 -32,-25.4961 -46.4882,-33.3386 -14.5039,-7.65354 -28.8346,-12.8346 -43.0079,-15.1654 -14.1575,-2.48819 -29.4961,-3.66929 -46.1575,-3.66929 -25.0079,0 -48.8346,5.33858 -71.5118,16.1732 -22.6614,10.6614 -42.4882,26 -59.8268,45.6693 -17.3386,19.6693 -31.0079,43.4961 -41.3386,71.3386 -10.1575,28 -15.3228,59.1654 -15.3228,93.6535 0,21.8425 2.48819,43.3386 7.32283,64.5039 4.83465,21.1654 12,41.3386 21.1654,60.1732 9.33858,18.8346 20.6772,36.3307 34,52.3307 13.3386,16 28.5039,29.8268 45.5118,41.4961 7.16535,5.00787 15.1654,9.66929 24.1575,14.5039 9.00787,4.66142 18.3307,8.83465 28.1732,12.5039 9.66929,3.49606 19.3228,6.33071 28.9921,8.48819 9.66929,2.17323 18.8346,3.1811 27.6693,3.1811 21.1654,0 40,-3.00787 56.6614,-8.83465 16.5039,-5.84252 31.0079,-13.8425 43.3386,-23.6693 12.5039,-10 22.8346,-21.4961 31.3386,-34.8346 8.48819,-13.1654 15.3228,-27.1654 20.8346,-41.8425 5.32283,-14.6614 9.16535,-29.4961 11.3228,-44.6614 2.33071,-15.1654 3.51181,-29.6693 3.51181,-43.3386z"
           id="path99-1" />
      </glyph>
      <glyph
         unicode="C"
         horiz-adv-x="536"
         id="glyph101-6">
        <path
           d="M497.165 103.005c-20.8348,-22.0041 -40.6657,-40.6657 -59.8351,-55.843 -18.9923,-15.1655 -37.3349,-27.4963 -55.1579,-36.6617 -17.6694,-9.16543 -35.1735,-15.6615 -52.1697,-19.6655 -17.1734,-3.83861 -34.1696,-5.83469 -51.0004,-5.83469 -30.3309,0 -60.0005,6.83864 -89.1739,20.5041 -29.1616,13.6655 -55.3233,33.331 -78.4967,59.1619 -23.1616,25.6656 -41.835,57.1658 -55.9965,94.5007 -14.1733,37.3349 -21.3309,79.666 -21.3309,126.828 0,52.1697 7.99613,99.3433 23.8348,141.674 15.8269,42.331 37.3231,78.4967 64.3233,108.497 27.0002,30.0002 58.5005,53.1618 94.3354,69.3313 35.8349,16.3348 73.6659,24.5081 113.67,24.5081 35.1617,0 66.0005,-4.6772 92.67,-14.1733 26.4923,-9.49614 48.1657,-21.1655 65.1619,-34.9963 1.83072,-1.50001 1.33466,-4.83075 -1.50001,-9.6733 -3.00002,-4.9961 -7.00399,-10.5001 -12.0001,-16.6655 -4.9961,-6.1654 -10.3347,-12.3308 -16.1694,-18.4962 -5.66934,-6.1654 -10.5001,-11.3387 -14.3269,-15.1655l-17.1734 3.00002c-16.5001,15.1655 -36.1656,27.827 -58.9965,37.5003 -22.8309,9.82685 -49.0043,14.6694 -78.662,14.6694 -11.008,0 -23.1734,-2.00789 -36.3428,-6.1654 -13.1576,-4.00397 -26.4923,-10.5001 -39.8271,-19.1694 -13.3348,-8.83472 -26.1734,-20.3387 -38.5042,-34.5003 -12.3308,-14.1733 -23.327,-31.3349 -33.0003,-51.5083 -9.66149,-20.1616 -17.3269,-43.5003 -22.9962,-69.9927 -5.66934,-26.5041 -8.504,-56.6697 -8.504,-90.4968 0,-43.335 6.33076,-81.166 18.8387,-113.67 12.4962,-32.6695 28.6656,-59.6698 48.3311,-81.3313 19.6655,-21.6734 41.6696,-37.831 65.8352,-48.839 24.3309,-10.8308 48.0004,-16.3348 71.162,-16.3348 17.5041,0 40.5003,6.00005 68.8352,18.0001 28.3349,12.1655 60.3312,33.1656 96.1661,63.0005 1.66537,-0.661423 3.33073,-1.99608 5.17327,-4.16932 1.66537,-1.99608 3.49609,-4.32287 4.9961,-6.49611 1.66537,-2.32679 3.16538,-4.50004 4.50004,-6.66147 1.33466,-2.00789 2.32679,-3.67326 3.33073,-4.66539z"
           id="path103-6" />
      </glyph>
      <glyph
         unicode="T"
         horiz-adv-x="520"
         id="glyph105-9">
        <path
           d="M333.995 0l-217.821 0 3.00002 21.0002c27.9923,6.1654 47.835,12.4962 59.3154,18.8269 11.504,6.33076 17.6694,11.8347 18.3545,16.3466l71.6462 514.823 -132.332 0c-4.15751,0 -8.14967,-0.826778 -11.8347,-2.66931 -3.8268,-1.81891 -7.98431,-5.66934 -12.4962,-11.504 -4.48822,-5.83469 -9.9922,-14.3151 -16.1576,-25.6537 -6.1654,-11.1733 -13.6773,-26.1734 -22.3466,-45.1657l-18.1655 9.33078c1.01576,8.504 2.50396,18.0001 4.6772,28.4884 2.17325,10.6772 4.48822,21.3545 7.32289,32.3388 2.66931,10.8426 5.66934,21.3309 8.83472,31.5121 3.00002,10.1576 6.00005,19.323 9.00007,27.3309l450.169 0 10.6772 -12.1655c-1.18111,-7.67723 -2.83467,-16.5119 -4.84256,-26.3388 -2.00789,-9.82685 -4.15751,-20.008 -6.82683,-30.3309 -2.50396,-10.5119 -5.33862,-20.6695 -8.00794,-30.827 -2.83467,-10.0158 -5.50398,-19.1813 -8.17329,-27.3309l-19.9844 0c-0.661423,16.323 -1.51182,29.8113 -2.83467,40.4885 -1.34647,10.8426 -3.16538,19.323 -5.66934,25.6774 -2.50396,6.33076 -5.66934,10.6536 -9.82685,13.1576 -4.01578,2.50396 -9.33078,3.66145 -15.8505,3.66145l-125.481 0 -70.347 -514.823c-0.496067,-4.18114 4.18114,-9.68512 14.1733,-16.1812 10.1576,-6.49611 28.3231,-12.8269 54.8272,-18.9923l-3.00002 -21.0002z"
           id="path107-0" />
      </glyph>
      <glyph
         unicode="s"
         horiz-adv-x="386"
         id="glyph109-6">
        <path
           d="M342.003 138.001c0,-23.1734 -3.33073,-42.8271 -9.82685,-59.339 -6.51974,-16.4883 -14.8348,-30.4963 -25.3467,-41.835 -10.3229,-11.3387 -21.9923,-20.5041 -34.6538,-27.3309 -12.6851,-6.82683 -25.1813,-12.1655 -37.5121,-15.6615 -12.4962,-3.66145 -24.0002,-6.00005 -35.0081,-7.15754 -10.819,-1.18111 -19.4883,-1.67718 -25.6537,-1.67718 -15.4962,0 -34.3231,3.00002 -56.339,8.83472 -21.9923,5.83469 -43.8192,14.8348 -65.6698,27.0002 -2.31498,0.826778 -3.8268,6.1654 -4.65358,15.8269 -0.8504,9.66149 -1.01576,20.6695 -0.496067,33.1656 0.496067,12.6615 1.4882,25.1813 3.00002,37.8428 1.4882,12.8269 3.16538,22.8191 5.14965,30.3309l21.0002 -5.33862c0.685045,-13.6537 4.34649,-26.5041 10.8426,-38.6696 6.49611,-12.0001 15.3308,-22.323 26.1734,-31.1577 10.9843,-8.83472 23.8348,-15.8269 38.3153,-21.0002 14.5041,-5.17327 30.3309,-7.84258 47.339,-7.84258 11.6694,0 22.512,1.84253 32.3388,5.66934 9.82685,3.66145 18.3309,8.83472 25.4884,15.6615 7.18116,6.68509 12.6851,14.6694 16.6773,24.1655 3.8268,9.3544 5.83469,19.8427 5.83469,31.1813 0,13.1576 -3.49609,24.6616 -10.5119,34.8192 -6.99218,10.0158 -16.1576,19.1813 -27.6616,27.5199 -11.3387,8.31503 -24.3309,16.1576 -38.835,23.4805 -14.5041,7.34651 -29.3388,15.0001 -44.3153,22.6773 -13.6773,6.82683 -26.8349,14.1733 -39.6854,21.9923 -12.6615,7.84258 -24.0002,16.6773 -33.9924,26.5041 -9.82685,9.66149 -17.8348,20.6695 -24.0002,32.6695 -6.00005,12.1655 -9.00007,26.0081 -9.00007,41.6696 0,20.1734 3.99216,38.1735 12.1655,54.0004 8.17329,15.6615 18.9923,29.0081 32.5042,39.8271 13.4883,10.6772 29.0081,18.8269 46.3232,24.6616 17.5041,5.66934 35.5042,8.504 54.0004,8.504 10.1812,0 21.3309,-0.826778 33.4963,-2.66931 12.1655,-1.81891 24.1655,-4.32287 36.1656,-7.6536 11.8347,-3.16538 23.0081,-7.18116 33.3546,-11.6694 10.4883,-4.51185 18.9923,-9.82685 25.4884,-15.6615 1.84253,-2.00789 2.17325,-6.33076 0.661423,-13.1812 -1.4882,-6.82683 -3.66145,-14.3387 -6.82683,-22.4884 -3.00002,-8.17329 -6.33076,-15.8505 -9.9922,-23.0081 -3.49609,-7.15754 -6.33076,-12.0001 -8.33865,-14.5041l-18.9923 3.85042c-15.6852,23.4805 -31.8428,39.8271 -48.6854,48.9925 -16.819,9.33078 -33.331,14.008 -49.3232,14.008 -10.6772,0 -20.3387,-1.84253 -28.8427,-5.33862 -8.48038,-3.66145 -15.8269,-8.33865 -21.8269,-14.008 -6.00005,-5.66934 -10.4883,-12.0001 -13.6537,-18.8269 -3.189,-6.82683 -4.6772,-13.6773 -4.6772,-20.5041 0,-10.5119 3.16538,-19.8427 9.33078,-28.1577 6.1654,-8.33865 14.3387,-16.0159 24.4963,-23.3388 10.0158,-7.34651 21.4962,-14.5041 34.5121,-21.1655 12.8269,-6.66147 26.1498,-13.5119 39.8271,-20.6695 14.008,-7.15754 28.1577,-14.8348 42.4964,-23.0081 14.3387,-8.14967 27.3309,-17.5041 38.6696,-28.1577 11.504,-10.5119 20.6695,-22.6773 27.827,-36.1656 7.18116,-13.5119 10.8426,-29.3388 10.8426,-47.6697z"
           id="path111-9" />
      </glyph>
      <glyph
         unicode="Q"
         horiz-adv-x="600"
         id="glyph113-3">
        <path
           d="M480 307.339c0,22.4882 -2,44.6614 -6.17323,66.6614 -4,22 -9.82677,42.8346 -17.3228,62.5039 -7.33858,19.6693 -16.6772,38 -27.4961,54.6614 -10.8346,16.8346 -23.1811,31.3386 -36.8346,43.4961 -13.6693,12.1732 -28.6772,21.8425 -45.0079,28.8346 -16.1575,7.00787 -33.6693,10.5039 -52.1575,10.5039 -29.0079,0 -54.8346,-6.17323 -77.8425,-18.3307 -22.9921,-12.1732 -42.3307,-29.6693 -58.1575,-52.3307 -15.6693,-22.5039 -27.8425,-50 -36.3465,-82.1732 -8.48819,-32.3307 -12.6614,-68.3307 -12.6614,-108 0,-36.5039 5.00787,-70.9921 14.8346,-103.496 10,-32.6614 23.3386,-61.1654 40,-85.8425 16.8346,-24.4882 36.5039,-44 58.8346,-58.3307 22.5039,-14.3307 46.3307,-21.4961 71.3386,-21.4961 26.9921,0 51.8268,5.66929 74.4882,16.8346 22.5039,11.3386 42,28 58.5039,50.1732 16.5039,22 29.1654,49.6535 38.3307,82.4882 9.16535,32.8346 13.6693,70.8346 13.6693,113.843zm146.173 -364.346c-7.84252,-14.3307 -15.8425,-27.1654 -24,-38.3307 -8.17323,-11.3228 -16,-20.9921 -23.8425,-28.9921 -7.82677,-8 -15.3228,-14 -22.3307,-18.3307 -6.99213,-4.17323 -12.8346,-6.34646 -17.6693,-6.34646 -20.3307,0 -40.1575,5.00787 -59.8268,15.0079 -19.8425,9.82677 -39.3386,22 -58.8346,36.1732 -19.6693,14.1575 -39.0079,28.9921 -58.5039,44.4882 -19.3386,15.5118 -38.8346,29.0079 -58.3307,40.3307 -7.49606,-1.32283 -14.8346,-2 -22,-2 -35.8268,0 -69.0079,8.34646 -99.1654,25.0079 -30.3307,16.5039 -56.5039,39.0079 -78.3307,67.3386 -21.8425,28.3307 -38.8346,61.6693 -51.0079,99.6693 -12.1575,38.1575 -18.3307,78.6614 -18.3307,121.654 0,44.3465 7.16535,86.5039 21.4961,126.677 14.3307,40 33.8425,75.1654 58.6772,105.496 24.8346,30.3307 53.8268,54.3307 87.1654,72.3307 33.4961,17.8425 69.3228,26.8346 107.827,26.8346 40.3307,0 76,-8.83465 106.504,-26.6614 30.6614,-17.6693 56.5039,-41.1654 77.3386,-70.5039 20.8189,-29.3386 36.4882,-62.8346 47.1654,-100.504 10.4882,-37.8268 15.8268,-76.5039 15.8268,-116.331 0,-34.5039 -4.50394,-67.8268 -13.6693,-100 -9.16535,-32.3307 -21.8268,-62 -38.1575,-89.1654 -16.3465,-27.1654 -35.5118,-51.1654 -57.8425,-72 -22.3307,-20.8346 -46.5039,-37.1654 -72.6614,-48.8346 14.9921,-7.82677 29.8268,-16.6614 44.6614,-26.3307 14.8346,-9.84252 29.3386,-18.8346 43.4961,-27.3386 14.1732,-8.50394 27.8425,-15.6693 41.3386,-21.4961 13.3386,-5.84252 26,-8.83465 38,-8.83465 3.84252,0 8,0.661417 12.5039,2 4.33071,1.33858 9.33858,3.33858 14.8346,6.33071 5.49606,2.83465 11.8268,6.83465 18.9921,11.6693 7.16535,4.83465 15.6693,10.9921 25.5118,18.1732l13.1654 -17.1811z"
           id="path115-3" />
      </glyph>
      <glyph
         unicode="š"
         horiz-adv-x="386"
         id="glyph117-6">
        <path
           d="M342 138c0,-23.1654 -3.33858,-42.8346 -9.82677,-59.3386 -6.50394,-16.4882 -14.8346,-30.4882 -25.3386,-41.8268 -10.3307,-11.3386 -22,-20.5039 -34.6614,-27.3386 -12.6772,-6.83465 -25.1654,-12.1575 -37.5118,-15.6693 -12.4882,-3.65354 -24,-6 -34.9921,-7.16535 -10.8346,-1.16535 -19.4961,-1.66929 -25.6693,-1.66929 -15.4961,0 -34.3307,3.00787 -56.3307,8.83465 -22,5.84252 -43.8425,14.8346 -65.6693,27.0079 -2.33071,0.834646 -3.82677,6.17323 -4.66142,15.8268 -0.834646,9.66929 -1.00787,20.6772 -0.503937,33.1654 0.503937,12.6772 1.49606,25.1811 2.99213,37.8425 1.51181,12.8346 3.1811,22.8346 5.1811,30.3307l20.9921 -5.33858c0.661417,-13.6535 4.33071,-26.4882 10.8346,-38.6614 6.50394,-12 15.3386,-22.3307 26.1732,-31.1654 10.9921,-8.83465 23.8268,-15.8268 38.3307,-21.0079 14.4882,-5.16535 30.3307,-7.82677 47.3228,-7.82677 11.6693,0 22.5039,1.82677 32.3465,5.66929 9.82677,3.66929 18.3307,8.83465 25.4961,15.6693 7.16535,6.66142 12.6614,14.6614 16.6614,24.1575 3.84252,9.33858 5.84252,19.8425 5.84252,31.1654 0,13.1654 -3.51181,24.6772 -10.5039,34.8346 -7.00787,10 -16.1732,19.1654 -27.6693,27.5118 -11.3386,8.33071 -24.3307,16.1575 -38.8346,23.4961 -14.5039,7.32283 -29.3386,14.9921 -44.3307,22.6614 -13.6693,6.83465 -26.8346,14.1732 -39.6693,22 -12.6614,7.84252 -24,16.6614 -34,26.5039 -9.82677,9.66929 -17.8268,20.6614 -24,32.6614 -6,12.1732 -8.99213,26 -8.99213,41.6693 0,20.1732 4,38.1732 12.1575,54 8.17323,15.6693 19.0079,29.0079 32.5039,39.8268 13.4961,10.6772 28.9921,18.8346 46.3307,24.6772 17.4961,5.66929 35.4961,8.50394 54,8.50394 10.1732,0 21.3386,-0.834646 33.4961,-2.67717 12.1732,-1.82677 24.1732,-4.33071 36.1732,-7.66929 11.8268,-3.16535 22.9921,-7.16535 33.3386,-11.6535 10.4882,-4.50394 18.9921,-9.84252 25.4961,-15.6693 1.82677,-2 2.15748,-6.33071 0.661417,-13.1654 -1.49606,-6.83465 -3.66929,-14.3465 -6.83465,-22.5039 -2.99213,-8.17323 -6.33071,-15.8425 -10,-23.0079 -3.49606,-7.16535 -6.33071,-12 -8.33071,-14.4882l-18.9921 3.82677c-15.6693,23.4961 -31.8425,39.8268 -48.6772,49.0079 -16.8346,9.32283 -33.3228,14 -49.3228,14 -10.6772,0 -20.3465,-1.84252 -28.8346,-5.33858 -8.50394,-3.66929 -15.8425,-8.33071 -21.8425,-14 -6,-5.66929 -10.5039,-12 -13.6693,-18.8346 -3.16535,-6.83465 -4.66142,-13.6693 -4.66142,-20.5039 0,-10.5039 3.16535,-19.8268 9.33858,-28.1575 6.15748,-8.34646 14.3307,-16 24.4882,-23.3386 10,-7.33858 21.5118,-14.5039 34.5039,-21.1654 12.8346,-6.66142 26.1732,-13.4961 39.8425,-20.6614 14,-7.1811 28.1575,-14.8346 42.4882,-23.0079 14.3465,-8.17323 27.3386,-17.4961 38.6772,-28.1732 11.4961,-10.4882 20.6614,-22.6614 27.8268,-36.1575 7.16535,-13.4961 10.8346,-29.3386 10.8346,-47.6693zm-121.669 385.008l-52.1575 0 -129.008 174c2.33071,3.32283 4.33071,6.15748 6,8.33071 1.49606,2.33071 3.16535,4.33071 4.50394,5.82677 1.49606,1.66929 3.16535,3.16535 4.99213,4.50394 1.84252,1.16535 4,2.66142 6.50394,4.33071l134.331 -122.504 131.843 122.504c5.49606,-2.99213 9.49606,-5.82677 11.6693,-8.83465 2.33071,-2.83465 5.49606,-7.66929 9.32283,-14.1575l-128 -174z"
           id="path119-4" />
      </glyph>
      <glyph
         unicode="Č"
         horiz-adv-x="536"
         id="glyph121-9">
        <path
           d="M497.165 103.005c-20.8348,-22.0041 -40.6657,-40.6657 -59.8351,-55.843 -18.9923,-15.1655 -37.3349,-27.4963 -55.1579,-36.6617 -17.6694,-9.16543 -35.1735,-15.6615 -52.1697,-19.6655 -17.1734,-3.83861 -34.1696,-5.83469 -51.0004,-5.83469 -30.3309,0 -60.0005,6.83864 -89.1739,20.5041 -29.1616,13.6655 -55.3233,33.331 -78.4967,59.1619 -23.1616,25.6656 -41.835,57.1658 -55.9965,94.5007 -14.1733,37.3349 -21.3309,79.666 -21.3309,126.828 0,52.1697 7.99613,99.3433 23.8348,141.674 15.8269,42.331 37.3231,78.4967 64.3233,108.497 27.0002,30.0002 58.5005,53.1618 94.3354,69.3313 35.8349,16.3348 73.6659,24.5081 113.67,24.5081 35.1617,0 66.0005,-4.6772 92.67,-14.1733 26.4923,-9.49614 48.1657,-21.1655 65.1619,-34.9963 1.83072,-1.50001 1.33466,-4.83075 -1.50001,-9.6733 -3.00002,-4.9961 -7.00399,-10.5001 -12.0001,-16.6655 -4.9961,-6.1654 -10.3347,-12.3308 -16.1694,-18.4962 -5.66934,-6.1654 -10.5001,-11.3387 -14.3269,-15.1655l-17.1734 3.00002c-16.5001,15.1655 -36.1656,27.827 -58.9965,37.5003 -22.8309,9.82685 -49.0043,14.6694 -78.662,14.6694 -11.008,0 -23.1734,-2.00789 -36.3428,-6.1654 -13.1576,-4.00397 -26.4923,-10.5001 -39.8271,-19.1694 -13.3348,-8.83472 -26.1734,-20.3387 -38.5042,-34.5003 -12.3308,-14.1733 -23.327,-31.3349 -33.0003,-51.5083 -9.66149,-20.1616 -17.3269,-43.5003 -22.9962,-69.9927 -5.66934,-26.5041 -8.504,-56.6697 -8.504,-90.4968 0,-43.335 6.33076,-81.166 18.8387,-113.67 12.4962,-32.6695 28.6656,-59.6698 48.3311,-81.3313 19.6655,-21.6734 41.6696,-37.831 65.8352,-48.839 24.3309,-10.8308 48.0004,-16.3348 71.162,-16.3348 17.5041,0 40.5003,6.00005 68.8352,18.0001 28.3349,12.1655 60.3312,33.1656 96.1661,63.0005 1.66537,-0.661423 3.33073,-1.99608 5.17327,-4.16932 1.66537,-1.99608 3.49609,-4.32287 4.9961,-6.49611 1.66537,-2.32679 3.16538,-4.50004 4.50004,-6.66147 1.33466,-2.00789 2.32679,-3.67326 3.33073,-4.66539zm-170.836 575.993l-52.1579 0 -129.001 150.001c2.32679,3.33073 4.33468,6.00005 6.00005,8.33865 1.50001,2.32679 3.16538,4.15751 4.50004,5.83469 1.50001,1.66537 3.16538,3.16538 4.9961,4.50004 1.83072,1.15749 4.00397,2.6575 6.49611,4.32287l134.34 -102.993 131.836 102.993c5.49217,-3.00002 9.49614,-5.82288 11.6576,-8.8229 2.3386,-2.83467 5.50398,-7.67723 9.34259,-14.1733l-128.009 -150.001z"
           id="path123-0" />
      </glyph>
      <glyph
         unicode="ø"
         horiz-adv-x="502"
         id="glyph125-9">
        <path
           d="M389.011 222.167c0,19.4883 -2.50396,38.5042 -7.67723,56.8351 -5.17327,18.4962 -12.0001,35.5042 -20.3387,51.0004l-187.159 -247.514c13.1576,-13.6537 26.8349,-24.3309 41.1736,-31.9845 14.1497,-7.67723 27.9923,-11.504 40.9846,-11.504 23.0081,0 43.0161,4.32287 59.8351,12.9922 16.6773,8.504 30.4963,20.8348 41.3389,36.8507 10.8426,15.9923 18.9923,35.1499 24.1655,57.6619 5.17327,22.323 7.67723,47.6697 7.67723,75.662zm-275.01 8.66936c0,-19.8427 2.66931,-38.835 8.00794,-56.8351 5.315,-18.0001 12.4962,-35.0081 21.4962,-50.5043l187.49 248.01c-12.6615,13.6537 -26.1498,24.3309 -40.6539,31.9845 -14.5041,7.67723 -29.0081,11.504 -43.3468,11.504 -24.6616,0 -45.4964,-4.65358 -62.5044,-14.1733 -16.819,-9.49614 -30.6617,-22.323 -41.1499,-38.8113 -10.5119,-16.5119 -18.0001,-35.8349 -22.512,-58.3469 -4.48822,-22.4884 -6.82683,-46.6539 -6.82683,-72.8273zm348.003 233.175l-49.8429 -66.0005c16.6773,-20.5041 29.3388,-44.5043 38.3389,-71.8352 9.00007,-27.3309 13.5119,-57.1658 13.5119,-89.5046 0,-21.8269 -2.83467,-43.1814 -8.33865,-64.0163 -5.50398,-20.8112 -13.1812,-40.4885 -23.0081,-59.1501 -9.66149,-18.4962 -21.4962,-35.6696 -35.1735,-51.4965 -13.6537,-15.8505 -28.6538,-29.5042 -45.1657,-40.8428 -16.4883,-11.3387 -33.9924,-20.3387 -52.4886,-26.6695 -18.6616,-6.33076 -37.8428,-9.49614 -57.6619,-9.49614 -22.512,0 -43.3468,3.16538 -62.6698,9.33078 -19.1813,6.1654 -36.4964,14.8348 -52.1815,26.3388l-9.33078 -12.1655c-3.00002,-2.66931 -6.99218,-5.66934 -12.4962,-9.16543 -5.33862,-3.33073 -10.819,-6.82683 -16.6537,-10.1812 -5.83469,-3.33073 -11.6694,-6.49611 -17.3387,-9.16543 -5.66934,-2.66931 -10.5119,-4.65358 -14.3387,-6.00005l-14.1733 16.0159 48.8508 64.4887c-17.008,20.5041 -30.0002,44.5043 -39.1657,72.1659 -9.18905,27.4963 -13.6773,57.4965 -13.6773,90.1661 0,21.4962 2.66931,42.6618 8.00794,63.4966 5.48036,20.8348 12.8269,40.6775 22.4884,59.339 9.66149,18.8269 21.1655,36.0003 34.6774,51.8272 13.4883,15.8505 28.4884,29.5042 44.835,40.8428 16.4883,11.504 34.1577,20.3387 53.3154,26.8349 19.0159,6.49611 38.5042,9.82685 58.6776,9.82685 22.4884,0 43.4885,-3.16538 62.8351,-9.49614 19.323,-6.33076 36.9924,-15.3308 52.9847,-27.1656l10.1812 13.6773c4.32287,3.00002 8.83472,6.1654 14.008,9.49614 4.98429,3.49609 10.1576,6.82683 15.3308,9.9922 5.315,3.33073 10.4883,6.1654 15.8269,8.83472 5.17327,2.50396 9.9922,4.32287 14.6694,5.66934l15.1655 -15.9923z"
           id="path127-8" />
      </glyph>
      <glyph
         unicode="p"
         horiz-adv-x="529"
         id="glyph129-2">
        <path
           d="M425.011 207.663c0,28.3467 -3.35436,54.8272 -10.0158,79.3471 -6.66147,24.4963 -15.6615,45.6618 -26.6695,63.6619 -11.1497,18.0001 -24.0002,31.9845 -38.6696,42.1657 -14.6458,10.1576 -29.8113,15.1655 -45.4964,15.1655 -6.00005,0 -13.6537,-1.84253 -22.9844,-5.33862 -9.51976,-3.66145 -20.3387,-9.66149 -32.3388,-18.1655 -12.1655,-8.504 -24.9923,-19.8427 -38.6696,-33.9924 -13.8426,-14.3387 -27.827,-31.8428 -42.1657,-52.6776l0 -194.505c14.6694,-11.1497 28.3231,-20.1498 40.8428,-27.4963 12.6615,-7.15754 24.3309,-12.6615 35.3152,-16.819 10.8426,-4.01578 21.1655,-7.0158 31.016,-8.504 9.82685,-1.67718 19.1576,-2.50396 27.9923,-2.50396 17.5041,0 33.827,3.49609 48.6618,10.3229 14.8348,6.85045 27.6616,17.008 38.3389,30.3546 10.8426,13.3229 19.323,30.0002 25.4884,49.9846 6.1654,19.8427 9.3544,42.8271 9.3544,69.0005zm66.0005 32.5042c0,-18.8269 -2.50396,-38.3389 -7.34651,-58.1579 -4.84256,-19.8427 -11.6694,-39.1657 -20.008,-58.1816 -8.48038,-18.8269 -18.6616,-36.8271 -30.3309,-53.8351 -11.8347,-16.819 -24.6616,-31.6538 -38.5042,-44.15 -13.819,-12.5198 -28.4884,-22.512 -43.8192,-29.8349 -15.3308,-7.34651 -30.9924,-11.008 -47.0082,-11.008 -19.1576,0 -40.8192,5.33862 -64.9848,15.9923 -24.1655,10.6772 -47.835,26.0081 -71.0084,46.0161l0 -230.01c0,-5.17327 6.1654,-10.3229 18.3309,-15.4962 12.1655,-5.17327 33.6617,-9.9922 64.158,-14.6694l0 -20.8348 -223.821 0 0 21.0002c21.4962,5.17327 38.1735,10.1576 50.339,14.8348 12.0001,4.6772 18.0001,9.82685 18.0001,15.3308l0 529.847c0,12.1655 -0.685045,21.9923 -2.00789,29.8113 -1.32285,7.84258 -4.32287,14.008 -9.00007,18.8505 -4.6772,4.65358 -11.504,7.98431 -20.5041,10.1576 -9.00007,2.17325 -21.1655,3.49609 -36.8271,4.18114l0 19.6537c11.008,2.3386 21.6616,4.84256 31.6538,7.67723 10.1812,2.66931 19.8427,5.66934 29.3388,8.83472 9.49614,3.16538 18.8269,6.49611 28.016,10.3229 9.16543,3.66145 18.4962,7.84258 27.9923,12.4962l17.008 -17.1734 4.32287 -96.4968c16.323,19.512 32.6695,36.331 49.1579,50.6697 16.5119,14.3387 32.1735,26.1734 47.339,35.3389 15.0001,9.33078 28.8427,16.323 41.835,20.8348 12.8269,4.48822 24.0002,6.82683 33.4963,6.82683 22.1813,0 42.6618,-5.17327 61.6777,-15.6615 18.8269,-10.3229 35.1499,-25.512 48.9925,-45.1657 13.6773,-19.6773 24.3309,-43.8429 32.0081,-72.1659 7.6536,-28.3467 11.504,-60.3312 11.504,-95.8354z"
           id="path131-5" />
      </glyph>
      <glyph
         unicode="N"
         horiz-adv-x="648"
         id="glyph133-0">
        <path
           d="M24.1655 0l0 21.0002c24.1655,2.83467 42.0003,7.50006 53.5044,13.6655 11.4922,6.1654 17.3269,11.504 17.3269,16.1694l0 510.004c-10.6654,9.9922 -21.9923,17.6576 -33.9924,22.6655 -11.8347,4.9961 -24.1655,8.49219 -36.8389,10.5001l0 21.0002 103.501 0c4.83075,0 8.83472,-0.342522 12.0001,-1.1693 3.00002,-0.838589 6.1654,-2.50396 9.49614,-5.17327 3.16538,-2.6575 6.67328,-6.49611 10.5001,-11.4922 3.67326,-5.00791 8.66936,-11.8347 14.8348,-20.3387l320.506 -442.326 0 429.157c0,4.00397 -5.33862,9.17724 -15.8387,15.508 -10.6654,6.33076 -28.9963,11.3269 -55.0044,14.8348l0 21.0002 200.671 0 0 -21.0002c-23.5041,-3.34255 -41.1617,-8.00794 -52.9965,-14.1733 -11.8347,-6.1654 -17.8348,-11.4922 -17.8348,-16.1694l0 -578.662c-16.5001,1.99608 -29.5042,5.16146 -39.0003,9.83866 -9.33078,4.50004 -16.0041,9.49614 -19.9962,15.0001l-340.999 474.831 0 -433.834c0,-4.00397 5.49217,-9.00007 16.323,-15.1655 11.008,-6.1654 29.0081,-11.1733 54.5083,-14.6694l0 -21.0002 -200.671 0z"
           id="path135-8" />
      </glyph>
      <glyph
         unicode="K"
         horiz-adv-x="578"
         id="glyph137-9">
        <path
           d="M24.1655 0l0 21.0002c22.1577,4.48822 39.4964,9.49614 51.9925,14.8348 12.5198,5.33862 18.8505,10.3229 18.8505,15.0001l0 513.004c0,3.8268 -6.00005,8.66936 -17.8348,14.5041 -11.8347,5.83469 -29.5042,11.1497 -53.0083,15.6615l0 21.0002 219.663 0 0 -21.0002c-22.1577,-4.51185 -39.4964,-9.66149 -51.9925,-15.1655 -12.4962,-5.50398 -18.8269,-10.5119 -18.8269,-15.1655l0 -248.506 199.655 235.325c7.51187,8.83472 12.1655,15.8505 14.1733,21.0002 1.98427,5.33862 1.32285,9.33078 -2.00789,12.3308 -3.16538,2.83467 -8.83472,5.00791 -17.008,6.51974 -8.14967,1.4882 -18.4962,2.64569 -31.3231,3.66145l0 21.0002 205.159 0 0 -21.0002c-10.4883,-1.34647 -19.6537,-2.66931 -27.827,-3.8268 -8.17329,-1.34647 -15.4962,-3.00002 -21.9923,-5.17327 -6.49611,-2.17325 -12.4962,-4.84256 -17.8348,-8.17329 -5.33862,-3.16538 -10.5119,-7.48825 -15.3308,-13.1576l-213.828 -236.175 235.821 -265.656c5.83469,-6.51974 12.0001,-11.504 18.6616,-15.1655 6.85045,-3.51971 13.8426,-6.00005 21.4962,-7.51187 7.67723,-1.4882 15.6852,-2.17325 23.6695,-2.00789 8.17329,0.165356 16.5119,0.685045 25.0159,1.67718l3.33073 -21.0002c-19.1813,-6.1654 -38.5042,-11.8347 -57.8508,-17.008 -19.323,-5.14965 -36.8271,-7.81896 -52.4886,-7.81896 -9.33078,0 -17.8348,1.4882 -25.1577,4.32287 -7.18116,3.00002 -14.1733,8.504 -20.6695,16.6773l-243.663 297.829 0 -261.002c0,-3.99216 5.83469,-8.83472 17.4805,-14.5041 11.8347,-5.66934 29.5042,-10.8426 53.339,-15.3308l0 -21.0002 -219.663 0z"
           id="path139-4" />
      </glyph>
      <glyph
         unicode="m"
         horiz-adv-x="803"
         id="glyph141-6">
        <path
           d="M579.17 0l0 21.0002c23.3388,6.1654 40.4885,11.504 51.4965,16.1576 10.8426,4.51185 16.323,9.00007 16.323,13.6773l0 258.167c0,19.8427 -0.992134,36.331 -3.16538,49.4886 -2.14962,13.1812 -5.315,23.5041 -9.82685,31.016 -4.32287,7.48825 -9.9922,12.8269 -17.008,15.8269 -7.15754,3.16538 -15.4962,4.6772 -25.323,4.6772 -10.6772,0 -22.1577,-3.00002 -34.1577,-9.00007 -12.0001,-6.00005 -24.5199,-14.6694 -37.1814,-25.8427 -12.6615,-11.3387 -25.4884,-24.9923 -38.5042,-41.0082 -12.8269,-16.1576 -25.4884,-34.3231 -37.8192,-54.4965l0 -228.829c0,-4.6772 5.00791,-9.16543 15.1655,-13.5119 9.9922,-4.32287 27.9923,-9.82685 53.6697,-16.323l0 -21.0002 -209.671 0 0 21.0002c23.3388,6.1654 40.4885,11.504 51.4965,16.1576 10.8426,4.51185 16.3466,9.00007 16.3466,13.6773l0 258.167c0,19.8427 -1.01576,36.331 -3.00002,49.4886 -1.84253,13.1812 -5.00791,23.5041 -9.51976,31.016 -4.32287,7.48825 -9.9922,12.8269 -17.1497,15.8269 -7.0158,3.16538 -15.4962,4.6772 -25.6774,4.6772 -22.1577,0 -45.3311,-11.3387 -69.662,-34.1814 -24.3309,-22.8191 -50.339,-54.8272 -78.0006,-96.1661l0 -228.829c0,-5.00791 6.1654,-9.9922 18.3309,-15.1655 12.1655,-5.17327 28.8427,-10.1812 50.0083,-14.6694l0 -21.0002 -209.671 0 0 21.0002c21.4962,5.50398 38.1735,10.4883 50.339,14.8348 12.0001,4.48822 18.0001,9.33078 18.0001,15.0001l0 296.176c0,12.9922 -0.519689,23.3151 -1.67718,30.827 -1.15749,7.48825 -4.15751,13.1576 -8.83472,17.3387 -4.65358,3.99216 -11.6694,6.99218 -20.6695,9.00007 -9.16543,1.98427 -21.4962,3.8268 -37.1578,5.83469l0 19.6537c12.3308,2.00789 23.6695,4.34649 34.1577,7.15754 10.3465,2.66931 20.3387,5.83469 29.6695,9.00007 9.49614,3.35436 18.4962,7.0158 27.1656,10.8426 8.504,3.99216 17.1734,8.00794 26.0081,12.3308l17.008 -17.1734 5.315 -111.828c14.6694,21.4962 29.5042,40.3468 44.5043,56.5044 15.0001,15.9923 29.8349,29.5042 44.5043,40.3232 14.5041,10.6772 28.6538,18.6852 42.4964,24.1892 13.6773,5.315 26.3388,7.98431 38.0082,7.98431 15.6615,0 30.0002,-1.81891 43.3232,-5.66934 13.1812,-3.66145 24.4963,-9.9922 34.1814,-18.9923 9.66149,-9.00007 17.1497,-20.8348 22.6537,-35.5042 5.50398,-14.5041 8.33865,-32.8349 8.33865,-54.6618l0.330711 -10.1576c13.6773,20.4805 27.827,38.4806 42.331,54.0004 14.6694,15.3308 29.3388,28.4884 43.6775,39.0003 14.4804,10.6536 28.6538,18.4962 42.4964,24.0002 13.819,5.315 26.8349,7.98431 38.835,7.98431 15.6615,0 30.0002,-2.17325 43.1578,-6.33076 13.1576,-4.32287 24.4963,-10.8426 34.1577,-19.4883 9.68512,-8.83472 17.1734,-20.008 22.6773,-33.5199 5.50398,-13.4883 8.33865,-29.3152 8.33865,-47.646l0 -311.176c0,-4.51185 4.98429,-9.00007 15.1655,-13.5119 9.9922,-4.32287 27.9923,-9.82685 53.6697,-16.323l0 -21.0002 -209.671 0z"
           id="path143-4" />
      </glyph>
      <glyph
         unicode="Y"
         horiz-adv-x="594"
         id="glyph145-9">
        <path
           d="M176.009 0l0 21.0002c29.4805,6.1654 50.3154,12.4962 62.1501,18.8269 11.8347,6.33076 17.8348,11.8347 17.8348,16.3466l0 206.151c-12.0001,26.3388 -25.6537,53.8351 -40.9846,82.5125 -15.3545,28.6538 -31.016,56.5044 -46.8429,83.5046 -15.9923,27.0002 -31.4884,52.1579 -46.4886,75.4967 -14.8348,23.1498 -28.1813,42.6618 -39.52,58.3233 -3.00002,3.49609 -6.33076,7.0158 -9.9922,10.1812 -3.66145,3.33073 -8.504,6.1654 -14.3387,8.64574 -6.00005,2.3386 -13.3229,4.34649 -21.9923,5.83469 -8.83472,1.51182 -20.008,2.17325 -33.6617,2.17325l-2.00789 21.0002c19.1576,2.50396 38.3389,4.84256 57.6619,6.82683 19.1813,2.17325 35.5042,3.16538 49.1815,3.16538 15.0001,0 27.6616,-6.33076 38.1499,-18.9923 12.0001,-15.6615 25.0159,-34.1577 39.0003,-55.4886 14.008,-21.3309 28.016,-43.8429 42.0003,-67.5123 14.008,-23.8348 27.6853,-48.1657 41.0082,-73.3234 13.3229,-25.0159 25.6774,-49.3468 37.1578,-72.662l130.678 229.821c5.00791,8.504 3.49609,15.1655 -4.51185,20.008 -7.98431,4.81894 -24.4963,9.00007 -49.6539,12.1655l0 21.0002 193.324 0 0 -21.0002c-22.323,-4.18114 -39.4964,-8.504 -51.4965,-13.0159 -11.8347,-4.32287 -20.008,-10.6536 -24.6616,-19.1576l-164.009 -297.829 0 -207.828c0,-2.00789 1.34647,-4.34649 4.18114,-7.18116 2.64569,-2.66931 7.32289,-5.66934 13.6537,-9.00007 6.33076,-3.16538 14.6694,-6.49611 24.827,-9.66149 10.3465,-3.33073 23.1734,-6.49611 38.3389,-9.33078l0 -21.0002 -238.986 0z"
           id="path147-9" />
      </glyph>
      <glyph
         unicode="Ň"
         horiz-adv-x="649"
         id="glyph149-0">
        <path
           d="M24.1732 0l0 21.0079c24.1575,2.8189 42,7.49606 53.4961,13.6535 11.4961,6.17323 17.3386,11.5118 17.3386,16.1732l0 510c-10.6772,10 -22,17.6693 -34,22.6614 -11.8425,5.00787 -24.1732,8.50394 -36.8346,10.5039l0 21.0079 103.496 0c4.83465,0 8.83465,-0.346457 12,-1.1811 2.99213,-0.818898 6.15748,-2.48819 9.49606,-5.16535 3.16535,-2.66142 6.66142,-6.48819 10.5039,-11.4961 3.66929,-4.99213 8.66142,-11.8268 14.8346,-20.3307l320.504 -442.331 0 429.165c0,4 -5.33858,9.16535 -15.8425,15.4961 -10.6614,6.33071 -28.9921,11.3386 -54.9921,14.8346l0 21.0079 200.661 0 0 -21.0079c-23.4961,-3.33858 -41.1654,-8 -53.0079,-14.1732 -11.8268,-6.15748 -17.8268,-11.4961 -17.8268,-16.1575l0 -578.677c-16.5039,2 -29.4961,5.1811 -38.9921,9.84252 -9.33858,4.50394 -16,9.49606 -20,14.9921l-341.008 474.835 0 -433.827c0,-4 5.49606,-9.00787 16.3307,-15.1654 11.0079,-6.17323 29.0079,-11.1654 54.5039,-14.6614l0 -21.0079 -200.661 0zm327.165 679.008l-52.1732 0 -128.992 150c2.33071,3.32283 4.33071,6 6,8.33071 1.49606,2.33071 3.16535,4.15748 4.48819,5.82677 1.51181,1.66929 3.16535,3.16535 5.00787,4.50394 1.82677,1.16535 4,2.66142 6.50394,4.33071l134.331 -102.992 131.827 102.992c5.49606,-2.99213 9.49606,-5.82677 11.6693,-8.83465 2.33071,-2.83465 5.49606,-7.66929 9.33858,-14.1575l-128 -150z"
           id="path151-5" />
      </glyph>
      <glyph
         unicode="H"
         horiz-adv-x="603"
         id="glyph153-3">
        <path
           d="M282.168 594.005c-20.5041,-4.51185 -36.8271,-9.66149 -49.3232,-15.1655 -12.3544,-5.50398 -19.0159,-10.5119 -20.008,-15.1655l-29.6695 -219.663 271.49 0 30.1656 219.663c0.685045,3.99216 -3.99216,8.83472 -14.1497,14.6694 -10.0158,5.83469 -25.3467,11.1497 -45.8508,15.6615l2.00789 21.0002 201.167 0 -3.00002 -21.0002c-20.5041,-4.51185 -36.9924,-9.66149 -49.3232,-15.1655 -12.3308,-5.50398 -18.8505,-10.5119 -19.512,-15.0001l-71.3391 -513.004c-0.661423,-3.99216 4.18114,-8.83472 14.1733,-14.5041 10.1812,-5.66934 25.6774,-10.8426 46.8429,-15.3308l-2.83467 -21.0002 -200.175 0 3.33073 21.0002c20.5041,4.48822 36.8507,9.49614 48.8508,14.8348 12.0001,5.50398 18.4962,10.4883 18.9923,15.0001l34.3231 249.167 -271.49 0 -33.827 -249.167c-0.8504,-3.99216 3.66145,-8.66936 13.9844,-14.5041 10.1812,-5.66934 25.6774,-10.8426 46.1815,-15.3308l-3.00002 -21.0002 -200.175 0 3.00002 21.0002c20.5041,4.48822 36.8271,9.49614 49.1579,14.8348 12.5198,5.33862 19.0159,10.3229 19.6773,15.0001l71.1738 513.004c0.661423,3.8268 -4.01578,8.66936 -14.1733,14.5041 -9.9922,5.83469 -25.6774,11.1497 -46.8429,15.6615l3.00002 21.0002 200.175 0 -3.00002 -21.0002z"
           id="path155-8" />
      </glyph>
      <glyph
         unicode="Þ"
         horiz-adv-x="522"
         id="glyph157-2">
        <path
           d="M23.6695 0l0 21.0002c22.1577,4.48822 39.6617,9.49614 52.3232,14.8348 12.6851,5.33862 19.0159,10.3229 19.0159,15.0001l0 513.004c0,3.8268 -6.00005,8.66936 -18.0001,14.5041 -12.1655,5.83469 -29.8349,11.1497 -53.339,15.6615l0 21.0002 234.829 0 0 -21.0002c-16.6537,-2.83467 -30.4963,-5.66934 -41.5043,-8.33865 -11.1497,-2.50396 -19.8191,-5.00791 -26.5041,-7.48825 -6.49611,-2.50396 -10.9843,-4.84256 -13.6537,-7.34651 -2.50396,-2.50396 -3.8268,-4.84256 -3.8268,-6.99218l0 -68.8352c20.4805,2.00789 45.8271,3.00002 75.8274,3.00002 35.3389,0 67.158,-3.66145 95.5047,-11.1733 28.4884,-7.48825 52.654,-18.6616 72.662,-33.331 20.1734,-14.6694 35.6696,-32.6695 46.6539,-54.1658 10.8426,-21.4962 16.3466,-46.3232 16.3466,-74.3392 0,-22.4884 -3.16538,-42.9925 -9.49614,-61.654 -6.33076,-18.4962 -14.8348,-35.0081 -25.512,-49.5122 -10.4883,-14.5041 -22.6537,-27.0002 -36.4964,-37.6538 -13.6773,-10.6772 -27.827,-19.3466 -42.6618,-26.3388 -14.8348,-6.99218 -29.6695,-12.3308 -44.5043,-15.6615 -14.8348,-3.49609 -28.6774,-5.17327 -41.3389,-5.17327 -15.0001,0 -29.1498,1.32285 -42.331,3.99216 -13.3229,2.50396 -25.323,6.68509 -36.4964,12.1655l-11.3387 35.0081c13.8426,-6.1654 26.8349,-10.1576 39.4964,-11.6694 12.5198,-1.65356 24.5199,-2.50396 35.8349,-2.50396 15.0001,0 30.6853,3.00002 47.0082,8.83472 16.1576,5.83469 31.1577,14.5041 44.835,26.0081 13.819,11.6694 24.9923,26.1734 33.827,43.4885 8.83472,17.5041 13.1812,37.6775 13.1812,60.8509 0,27.0002 -4.84256,50.15 -14.5041,69.3313 -9.49614,19.1576 -22.6773,34.8192 -39.331,47.15 -16.6773,12.1655 -36.0003,21.1655 -58.1816,26.8349 -22.323,5.66934 -45.8271,8.504 -70.9848,8.504 -16.3466,0 -32.3388,-0.330711 -48.0004,-0.992134l0 -405.169c0,-2.00789 1.32285,-3.99216 3.8268,-6.33076 2.66931,-2.3386 7.15754,-4.84256 13.4883,-7.34651 6.33076,-2.66931 15.0001,-5.14965 26.1734,-7.81896 11.008,-2.66931 24.9923,-5.33862 42.0003,-8.33865l0 -21.0002 -234.829 0z"
           id="path159-6" />
      </glyph>
      <glyph
         unicode="g"
         horiz-adv-x="487"
         id="glyph161-8">
        <path
           d="M336.995 292.845c0,17.3151 -2.83467,33.6617 -8.504,49.1579 -5.83469,15.4962 -14.1497,29.0081 -25.4884,40.6539 -11.1733,11.504 -25.1577,20.6695 -42.0003,27.3545 -16.8427,6.66147 -36.1656,9.9922 -57.9926,9.9922 -8.17329,0 -17.1734,-2.17325 -27.1656,-6.33076 -9.85047,-4.34649 -19.1813,-10.5119 -28.016,-18.6616 -8.83472,-8.17329 -16.1576,-18.3545 -21.9923,-30.8506 -5.83469,-12.3308 -8.83472,-26.5041 -8.83472,-42.4964 0,-17.3387 2.66931,-33.6617 8.00794,-49.1579 5.48036,-15.4962 13.6537,-28.8427 24.4963,-40.3468 10.9843,-11.315 24.827,-20.5041 41.5043,-27.1656 16.819,-6.66147 36.8271,-9.9922 60.0005,-9.9922 9.33078,0 19.323,2.00789 29.4805,6.1654 10.3465,3.99216 19.6773,10.1576 27.8506,18.4962 8.31503,8.33865 15.1655,18.4962 20.6695,30.6617 5.315,12.0001 7.98431,26.1734 7.98431,42.52zm-84.166 -294.853c-12.3308,1.18111 -23.8348,2.66931 -34.1577,4.34649 -10.5119,1.65356 -20.1734,3.33073 -29.3388,5.33862 -23.3388,-12.6851 -41.835,-24.0002 -55.3233,-34.1814 -13.3466,-9.9922 -23.5041,-19.1576 -30.3309,-27.1656 -6.85045,-7.81896 -11.1733,-15.1655 -13.0159,-21.6616 -1.81891,-6.49611 -2.66931,-12.3308 -2.66931,-17.5041 0,-13.6537 4.51185,-26.6695 13.6773,-38.835 9.00007,-12.3308 21.3309,-22.8191 36.4964,-31.8191 15.3308,-8.83472 33.0003,-16.0159 53.1736,-21.5199 20.1498,-5.315 41.3153,-7.98431 63.3312,-7.98431 21.8269,0 41.6696,3.00002 59.5044,8.83472 17.8348,5.83469 33.1656,13.819 45.8271,24.1655 12.6615,10.1576 22.4884,22.4884 29.5042,36.6617 6.99218,14.008 10.4883,29.6695 10.4883,46.4886 0,9.16543 -2.17325,17.5041 -6.33076,25.1813 -4.15751,7.6536 -11.8347,14.6694 -22.8427,20.8348 -11.1497,6.1654 -26.1498,11.6694 -45.1657,16.4883 -18.9923,5.00791 -43.3232,9.00007 -72.8273,12.3308zm152.174 315.168c0,-25.1577 -5.66934,-48.0004 -16.8427,-68.6698 -11.3387,-20.6458 -25.9845,-38.4806 -44.15,-53.3154 -18.3545,-14.8348 -39.0003,-26.3388 -62.0084,-34.6774 -23.1734,-8.33865 -46.6775,-12.4962 -70.347,-12.4962l-1.98427 0c-15.6615,-12.9922 -26.3388,-23.8348 -32.1735,-32.5042 -5.83469,-8.504 -8.83472,-13.819 -8.83472,-15.8269 0,-3.8268 1.67718,-7.67723 5.17327,-11.504 3.33073,-3.66145 9.66149,-7.32289 18.9923,-10.6772 9.33078,-3.49609 22.0159,-6.82683 38.3389,-10.3229 16.323,-3.33073 37.1578,-6.49611 62.5044,-9.49614 35.5042,-3.8268 64.8194,-9.66149 87.8275,-17.5041 23.1734,-7.84258 41.5043,-16.8427 54.9926,-27.1656 13.6773,-10.1576 23.1734,-21.1655 28.512,-32.8349 5.33862,-11.8347 8.00794,-23.3388 8.00794,-34.6538 0,-18.0001 -3.35436,-35.0081 -10.1812,-51.0004 -6.82683,-16.1812 -16.1576,-31.016 -27.827,-44.6696 -11.6694,-13.6773 -25.512,-26.0081 -41.5043,-37.1814 -15.8269,-10.9843 -32.8349,-20.5041 -51.0004,-28.3231 -18.3309,-7.67723 -37.1578,-13.8426 -56.6697,-18.0001 -19.323,-4.18114 -38.6696,-6.33076 -57.8272,-6.33076 -15.3308,0 -31.1577,0.992134 -47.339,3.16538 -16.1576,2.17325 -32.3388,5.50398 -48.1657,9.9922 -15.9923,4.51185 -30.9924,10.3465 -45.1657,17.3387 -14.1733,6.99218 -26.5041,15.4962 -37.3231,25.323 -10.6772,10.0158 -19.1813,21.1655 -25.512,33.8507 -6.33076,12.4962 -9.49614,26.6459 -9.49614,42.6618 0,8.504 1.4882,17.3387 4.6772,26.6695 3.00002,9.16543 9.33078,19.1576 18.6616,30.0002 9.49614,10.6536 22.6537,22.323 39.4964,34.6538 16.8427,12.3308 39.331,26.0081 67.3234,41.0082 -21.1655,7.48825 -35.8349,15.9923 -43.9846,25.323 -8.17329,9.49614 -12.1655,19.0159 -12.1655,28.8427 0,2.50396 0.826778,6.00005 2.48033,10.4883 1.51182,4.34649 4.84256,9.68512 10.0158,16.0159 4.98429,6.33076 12.1655,13.4883 21.3309,21.6616 9.33078,8.17329 21.4962,17.3387 36.331,27.827 -16.4883,4.51185 -31.4884,11.1733 -45.0004,19.8427 -13.4883,8.504 -25.1577,18.9923 -34.6774,31.1577 -9.66149,12.3308 -17.1497,26.1734 -22.4884,41.6696 -5.33862,15.3308 -8.00794,32.3388 -8.00794,50.5043 0,23.8348 5.33862,46.3232 16.1812,67.6541 10.6536,21.3545 24.827,40.0161 42.331,55.843 17.6694,15.6615 37.6538,28.3231 60.0005,37.5121 22.4884,9.33078 45.4964,13.9844 69.3313,13.9844 19.4883,0 37.8192,-2.83467 54.8272,-8.33865 17.1734,-5.48036 32.6695,-13.3229 46.6775,-23.3151 16.819,1.4882 32.1499,3.66145 45.8271,6.33076 13.6537,2.50396 26.0081,5.33862 36.8271,8.14967 10.8426,3.00002 20.6695,6.00005 29.0081,8.83472 8.504,3.00002 16.1576,5.66934 23.0081,8.33865l9.82685 -14.6694c-4.01578,-9.16543 -7.67723,-17.5041 -11.3387,-25.1577 -3.49609,-7.67723 -9.00007,-15.4962 -16.4883,-23.6695 -12.5198,-2.3386 -24.5199,-3.99216 -36.52,-5.33862 -11.8347,-1.32285 -25.1577,-2.3386 -40.1578,-3.00002 8.33865,-12.3308 15.0001,-25.4884 19.6773,-39.4964 4.65358,-14.008 6.99218,-28.8191 6.99218,-44.5043z"
           id="path163-0" />
      </glyph>
      <glyph
         unicode="V"
         horiz-adv-x="649"
         id="glyph165-7">
        <path
           d="M629.828 594.005c-21.9923,-4.16932 -39.331,-8.33865 -51.9925,-12.508 -12.4962,-3.99216 -20.3387,-10.6654 -23.6695,-19.6655l-186.994 -533.331c-2.50396,-7.16935 -7.00399,-13.3348 -13.3348,-18.3309 -6.50793,-5.00791 -13.3348,-9.33078 -20.8348,-12.6733 -7.50006,-3.49609 -14.8348,-6.1654 -22.0041,-8.16148 -7.16935,-1.83072 -12.8269,-3.33073 -16.9962,-4.33468l-214.832 576.831c-3.33073,8.33865 -10.5001,15.1655 -21.8388,20.5041 -11.1615,5.16146 -27.0002,9.00007 -47.4925,11.6694l0 21.0002 212.328 0 0 -21.0002c-25.9963,-2.00789 -43.8311,-5.33862 -53.5044,-10.004 -9.49614,-4.66539 -12.4962,-11.8347 -9.00007,-21.1655l172.336 -464 164.163 462.996c3.5079,9.33078 -0.496067,16.3348 -12.0001,20.6695 -11.6576,4.33468 -30.6617,8.16148 -57.3312,11.504l0 21.0002 202.998 0 0 -21.0002z"
           id="path167-9" />
      </glyph>
      <glyph
         unicode="E"
         horiz-adv-x="461"
         id="glyph169-5">
        <path
           d="M417.995 119.174c-6.49611,-28.3467 -13.1576,-52.8429 -19.8191,-73.6777 -6.68509,-20.8348 -11.8347,-36.0003 -15.3545,-45.4964l-382.822 0 3.00002 21.0002c20.5041,4.48822 36.8271,9.49614 49.1579,14.8348 12.5198,5.33862 19.0159,10.3229 19.6773,15.0001l71.1738 513.004c0.661423,3.8268 -4.01578,8.66936 -14.1733,14.5041 -9.9922,5.83469 -25.6774,11.1497 -46.8429,15.6615l3.00002 21.0002 359.837 0 12.1655 -12.1655c-1.65356,-8.33865 -3.66145,-17.5041 -6.00005,-27.4963 -2.50396,-10.0158 -5.33862,-20.1734 -8.33865,-30.1656 -3.16538,-10.1812 -6.33076,-19.6773 -9.49614,-28.8427 -3.33073,-9.16543 -6.33076,-16.8427 -9.33078,-23.0081l-21.0002 0c1.67718,15.0001 2.3386,27.4963 2.00789,37.3468 -0.330711,9.9922 -1.67718,18.0001 -4.01578,24.0002 -2.14962,6.00005 -5.315,10.1576 -9.16543,12.6615 -3.99216,2.50396 -8.83472,3.66145 -14.6458,3.66145l-163.678 0 -28.8427 -211.986 182.671 0 9.85047 -13.6773c-3.35436,-4.51185 -7.0158,-9.16543 -11.008,-14.1733 -4.18114,-4.81894 -8.33865,-9.66149 -12.6615,-14.3151 -4.51185,-4.6772 -8.83472,-9.18905 -13.0159,-13.1812 -4.15751,-4.15751 -7.98431,-7.6536 -11.1497,-10.4883 -5.33862,5.48036 -10.8426,9.9922 -16.6773,13.3229 -5.83469,3.49609 -13.1576,6.1654 -21.6616,8.17329 -8.66936,1.98427 -19.3466,3.33073 -31.8428,4.15751 -12.4962,0.826778 -27.827,1.18111 -46.1578,1.18111l-33.6617 0 -33.1656 -244.679c-0.685045,-5.00791 -0.165356,-9.33078 1.4882,-12.9922 1.67718,-3.85042 5.50398,-7.0158 11.6694,-9.85047 6.1654,-2.64569 15.1655,-4.81894 26.8349,-6.33076 11.8347,-1.4882 27.3309,-2.14962 46.8429,-2.14962l59.1501 0c13.6773,0 25.1813,0.826778 34.6774,2.48033 9.49614,1.51182 18.0001,5.17327 25.6537,11.008 7.67723,5.66934 15.0001,14.008 22.1813,24.9923 7.15754,11.1733 15.3308,26.3388 24.4963,45.52l18.9923 -8.83472z"
           id="path171-2" />
      </glyph>
      <glyph
         unicode="u"
         horiz-adv-x="529"
         id="glyph173-9">
        <path
           d="M522.169 39.8271c-12.0001,-7.81896 -23.5041,-15.1655 -34.6774,-21.8269 -10.9843,-6.66147 -21.3309,-12.4962 -30.6617,-17.3387 -9.49614,-4.81894 -17.8348,-8.66936 -24.9923,-11.504 -7.0158,-2.83467 -12.4962,-4.15751 -16.5119,-4.15751 -11.315,0 -20.5041,7.51187 -27.6616,22.6773 -7.15754,15.1655 -11.6694,39.6617 -13.6537,73.1581 -20.1734,-20.1734 -38.6696,-36.6617 -55.5122,-49.1579 -16.8427,-12.5198 -32.3388,-22.1813 -46.4886,-29.0081 -14.1733,-6.82683 -27.1656,-11.504 -39.1657,-14.008 -11.8347,-2.50396 -23.0081,-3.66145 -33.5199,-3.66145 -15.3308,0 -30.0002,2.17325 -43.9846,6.33076 -14.008,4.34649 -26.3388,12.0001 -37.1814,23.1734 -10.6536,11.3387 -19.323,26.6695 -25.6537,46.3232 -6.33076,19.512 -9.49614,44.6696 -9.49614,75.1659l0 211.348c0,15.4962 -0.519689,27.6616 -1.51182,36.331 -0.992134,8.66936 -3.49609,15.1655 -7.48825,19.4883 -4.18114,4.51185 -10.3465,7.51187 -18.8505,9.16543 -8.48038,1.67718 -20.1498,3.16538 -35.1499,4.84256l0 19.4883c11.6694,1.34647 22.6537,3.00002 33.0003,5.00791 10.1576,2.00789 20.1498,4.15751 29.6695,6.82683 9.66149,2.50396 19.323,5.66934 28.9845,9.00007 9.82685,3.51971 20.008,7.34651 30.6617,11.504l13.6773 -18.9923 0 -286.845c0,-22.8191 1.67718,-41.835 5.17327,-57.1658 3.33073,-15.3308 8.31503,-27.4963 14.6694,-36.6617 6.33076,-9.00007 14.1497,-15.4962 23.4805,-19.4883 9.33078,-3.85042 19.8427,-5.83469 31.6774,-5.83469 10.3229,0 21.1655,1.4882 32.0081,4.65358 10.9843,3.00002 22.323,8.00794 33.827,14.6694 11.6694,6.66147 23.8348,15.3308 36.4964,25.8427 12.6615,10.6536 26.3388,23.5041 40.6775,38.835l0 219.332c0,14.6694 -0.685045,26.3152 -2.17325,35.1499 -1.51182,8.83472 -4.6772,15.6852 -9.49614,20.5041 -5.00791,5.00791 -11.8347,8.33865 -20.8348,10.3465 -8.83472,1.98427 -20.8348,3.16538 -35.8349,3.8268l0 19.6537c23.3388,2.83467 45.8271,7.51187 67.3234,13.6773 21.4962,6.1654 41.1736,12.3308 59.339,18.4962l14.6694 -18.9923 0 -326.176c0,-20.1498 0.661423,-36.6617 2.17325,-49.3232 1.4882,-12.6615 4.48822,-20.6695 9.00007,-24.0002 3.99216,-2.66931 10.6536,-3.16538 20.1498,-1.67718 9.33078,1.51182 22.3466,5.83469 39.0003,13.0159l4.84256 -22.0159z"
           id="path175-2" />
      </glyph>
      <glyph
         unicode="Ł"
         horiz-adv-x="475"
         id="glyph177-3">
        <path
           d="M460.669 119.162c-2.66931,-28.3349 -6.00005,-52.8311 -10.004,-73.6659 -4.16932,-20.8348 -7.50006,-36.0003 -10.1694,-45.4964l-416.33 0 0 21.0002c22.1695,4.50004 39.4964,9.49614 52.0043,14.8348 12.4962,5.32681 18.8269,10.3347 18.8269,15.0001l0 209.328 -61.9966 -31.3349 -13.1694 10.8426c1.00394,3.00002 2.3386,6.49611 4.33468,10.6654 1.99608,4.33468 4.16932,8.49219 6.67328,12.8269 2.32679,4.16932 4.83075,8.00794 7.32289,11.6694 2.3386,3.49609 4.6772,6.33076 6.50793,8.33865l50.3272 25.323 0 255.345c0,3.8268 -6.00005,8.65755 -17.8348,14.4922 -11.8229,5.83469 -29.4924,11.1733 -52.9965,15.6734l0 21.0002 219.663 0 0 -21.0002c-22.1577,-4.50004 -39.4964,-9.6733 -51.9925,-15.1655 -12.508,-5.50398 -18.8387,-10.5001 -18.8387,-15.0001l0 -216.344 135.674 68.8352 12.8269 -12.1655c-2.66931,-5.83469 -6.49611,-12.9922 -11.504,-21.4962 -5.16146,-8.504 -9.82685,-15.4962 -14.4922,-21.0002l-122.505 -61.9966 0 -219.51c0,-5.82288 1.33466,-10.9961 4.16932,-15.4962 2.66931,-4.33468 7.50006,-7.99613 14.3387,-11.1615 6.82683,-3.00002 16.1576,-5.50398 27.827,-7.00399 11.8347,-1.66537 26.6695,-2.50396 44.5043,-2.50396l69.8273 0c15.0001,0 27.5081,0.838589 37.831,2.50396 10.1694,1.50001 19.3348,5.16146 27.0002,10.9961 7.84258,5.66934 15.0001,14.008 21.3427,25.0041 6.33076,11.1615 12.9922,26.327 19.8309,45.4964l21.0002 -8.83472z"
           id="path179-8" />
      </glyph>
      <glyph
         unicode="S"
         horiz-adv-x="438"
         id="glyph181-3">
        <path
           d="M425.507 584.839c1.32285,-1.01576 1.32285,-3.16538 0,-6.49611 -1.34647,-3.51971 -3.33073,-7.51187 -6.00005,-12.0001 -2.83467,-4.6772 -6.1654,-9.51976 -10.3465,-14.6694 -3.99216,-5.17327 -8.14967,-10.1812 -12.4962,-14.8348 -4.15751,-4.84256 -8.17329,-9.00007 -11.8347,-12.4962 -3.8268,-3.68507 -6.82683,-6.00005 -9.00007,-7.34651l-14.3387 2.83467c-5.48036,7.84258 -11.6694,15.3308 -18.4962,22.3466 -6.82683,6.99218 -14.3387,13.1576 -22.4884,18.8269 -8.00794,5.50398 -16.6773,9.82685 -25.512,13.1576 -9.00007,3.16538 -18.3309,4.84256 -28.1577,4.84256 -17.5041,0 -33.1656,-2.83467 -46.8429,-8.504 -13.6537,-5.66934 -25.1577,-12.9922 -34.4885,-21.9923 -9.16543,-9.00007 -16.3466,-19.0159 -21.1655,-30.0002 -4.84256,-11.1733 -7.34651,-22.0159 -7.34651,-32.6695 0,-7.18116 1.18111,-14.6694 3.49609,-22.512 2.17325,-7.81896 7.0158,-15.9923 14.1733,-24.3309 7.18116,-8.504 17.3387,-17.5041 30.4963,-27.1656 13.1812,-9.66149 30.6853,-20.008 52.5122,-30.9924 25.8191,-13.3466 47.6697,-26.0081 65.5045,-38.0082 18.0001,-12.1655 32.4806,-24.4963 43.4885,-37.3231 11.1733,-13.0159 19.1576,-26.6695 24.0002,-41.3389 4.84256,-14.6694 7.34651,-30.9924 7.34651,-49.3232 0,-30.5199 -6.35438,-59.6698 -19.0159,-87.355 -12.8269,-27.6616 -30.0002,-51.9925 -51.6618,-73.1581 -21.6616,-21.1655 -46.8429,-38.0082 -75.662,-50.5043 -28.8427,-12.4962 -59.339,-18.8269 -91.6779,-18.8269 -12.3308,0 -26.5041,2.17325 -42.1657,6.33076 -15.8269,4.18114 -30.827,9.82685 -45.0004,16.6773 -14.1497,6.82683 -25.9845,14.3151 -35.6696,22.8191 -9.49614,8.504 -14.3151,17.008 -14.3151,25.3467 0,3.99216 1.98427,9.66149 5.83469,17.1497 3.8268,7.51187 8.48038,15.0001 13.819,22.6773 5.50398,7.67723 11.1733,14.1733 17.1734,19.6773 6.00005,5.48036 11.1733,8.31503 15.3308,8.31503 3.99216,0 8.66936,-3.99216 14.1733,-12.0001 5.50398,-7.81896 12.8269,-16.6537 21.8269,-26.5041 8.83472,-9.66149 20.008,-18.6616 33.1656,-26.4805 13.1576,-8.00794 29.3388,-12.0001 48.3311,-12.0001 19.8427,0 38.1735,3.33073 55.1579,9.9922 17.008,6.66147 31.8428,15.8269 44.5043,27.3309 12.6851,11.504 22.6773,25.1577 29.8349,40.8428 7.34651,15.6615 11.008,32.5042 11.008,50.6697 0,13.4883 -2.00789,25.8191 -5.83469,37.4885 -3.8268,11.504 -10.6772,22.6773 -20.5041,33.6617 -9.66149,10.8426 -22.6537,21.6616 -38.835,32.5042 -16.1576,10.6772 -36.6617,21.8269 -61.3233,33.6617 -21.3309,10.0158 -39.0003,20.8348 -53.0083,32.3388 -14.008,11.6694 -24.827,23.3388 -32.8349,35.1735 -7.98431,12.0001 -13.4883,24.0002 -16.819,36.4964 -3.16538,12.3308 -4.84256,24.3309 -4.84256,36.1656 0,21.3309 5.00791,42.6618 14.8348,63.8273 9.9922,21.1655 24.0002,40.1814 42.0003,56.6697 18.0001,16.6773 39.8271,30.1656 65.3391,40.5121 25.6537,10.4883 54.1658,15.6615 85.6542,15.6615 23.5041,0 45.1657,-4.51185 65.1737,-13.5119 20.1734,-9.00007 38.0082,-19.4883 53.5044,-31.6538z"
           id="path183-2" />
      </glyph>
      <glyph
         unicode=" "
         horiz-adv-x="200"
         id="glyph185-6" />
      <glyph
         unicode="P"
         horiz-adv-x="522"
         id="glyph187-4">
        <path
           d="M24.1655 0l0 21.0002c22.1577,4.48822 39.4964,9.49614 51.9925,14.8348 12.5198,5.50398 18.8505,10.3229 18.8505,15.0001l0 530.343c-12.0001,-1.67718 -24.0002,-3.35436 -35.8349,-5.17327 -12.0001,-1.84253 -23.5041,-3.66145 -35.0081,-5.50398l-4.32287 30.1656c15.6615,4.32287 32.6459,8.17329 51.0004,11.8347 18.3309,3.49609 37.4885,6.66147 57.4965,9.16543 19.8191,2.66931 39.9924,4.6772 60.3312,6.1654 20.3387,1.51182 40.4885,2.17325 60.4965,2.17325 35.1735,0 66.9927,-3.66145 95.3393,-11.1733 28.3231,-7.48825 52.4886,-18.6616 72.662,-33.331 20.008,-14.6694 35.5042,-32.6695 46.4886,-54.1658 10.8426,-21.4962 16.3466,-46.3232 16.3466,-74.3392 0,-22.4884 -3.16538,-42.9925 -9.49614,-61.654 -6.33076,-18.5198 -14.8348,-35.0081 -25.512,-49.5122 -10.4883,-14.5041 -22.6537,-27.0002 -36.4964,-37.6538 -13.6773,-10.6772 -27.827,-19.3466 -42.6618,-26.3388 -14.8348,-6.99218 -29.6695,-12.3308 -44.5043,-15.6615 -14.8348,-3.51971 -28.6774,-5.17327 -41.3389,-5.17327 -30.6617,0 -57.0004,4.84256 -78.8274,14.6694l-11.3387 36.8271c13.8426,-6.00005 26.8349,-9.9922 39.4964,-11.8347 12.5198,-1.81891 24.5199,-2.66931 35.8349,-2.66931 15.0001,0 30.6853,3.00002 47.0082,8.83472 16.1576,5.83469 31.1577,14.6694 44.835,26.3388 13.819,11.6694 24.9923,26.1734 33.827,43.4885 8.83472,17.1734 13.1812,37.3468 13.1812,60.5202 0,26.6459 -4.84256,49.6539 -14.5041,68.8116 -9.49614,19.1813 -22.6773,34.8428 -39.331,47.1736 -16.6773,12.1655 -36.0003,21.1655 -58.1816,27.0002 -22.323,5.83469 -45.8271,8.83472 -70.9848,8.83472 -8.17329,0 -16.3466,0 -24.3545,-0.165356 -7.98431,-0.165356 -15.8269,-0.496067 -23.6459,-0.826778l0 -537.17c0,-2.00789 1.32285,-4.15751 3.8268,-6.33076 2.66931,-2.3386 7.15754,-4.84256 13.4883,-7.34651 6.33076,-2.66931 15.0001,-5.315 26.1734,-7.81896 11.008,-2.66931 24.9923,-5.33862 42.0003,-8.33865l0 -21.0002 -234.333 0z"
           id="path189-9" />
      </glyph>
      <glyph
         unicode="Š"
         horiz-adv-x="476"
         id="glyph191-8">
        <path
           d="M432 184c0,-14.6614 -2,-29.6693 -5.82677,-44.9921 -4,-15.3386 -9.84252,-30.3465 -17.8425,-45.1811 -8,-14.8189 -17.8268,-28.8189 -29.8268,-42.1575 -11.8425,-13.1654 -25.8425,-24.6614 -41.8425,-34.3307 -16.1575,-9.84252 -34.3307,-17.6693 -54.6614,-23.5118 -20.3307,-5.82677 -42.8346,-8.83465 -67.1654,-8.83465 -10.8346,0 -22.5039,1.1811 -35.1654,3.51181 -12.6614,2.15748 -25.6693,5.49606 -39.0079,9.49606 -13.3228,4.17323 -26.6614,9.16535 -39.8268,15.0079 -13.1654,6 -25.4961,12.6614 -36.8346,20.1575 -2.33071,1.33858 -4,6.83465 -5.16535,16.6614 -1.16535,9.84252 -1.66929,21.3386 -1.66929,34.5039 0,13.1654 0.503937,26.5039 1.49606,40.1732 1.00787,13.6693 2.67717,24.9921 5.33858,33.8268l20 -2.50394c7.49606,-19.1654 16.8346,-35.8268 28,-49.8268 11.3386,-14 23.6693,-25.6693 37.3386,-34.8346 13.6693,-9.33858 28.4882,-16.1575 44.1575,-20.5039 15.8425,-4.48819 32,-6.66142 48.5039,-6.66142 14.6614,0 29.4961,3.00787 44.1732,9.00787 14.8346,6 28.1575,14.3307 39.8268,24.6614 11.6693,10.5039 21.3386,22.5039 28.8346,36.3307 7.49606,13.8268 11.1654,28.6614 11.1654,44.3307 0,19.8425 -4.33071,36.8346 -13.1654,51.1654 -8.83465,14.3307 -20.3307,27.0079 -34.3307,38.1732 -14.1732,10.9921 -30.3307,20.9921 -48.6772,29.8268 -18.1575,8.67717 -36.8189,17.5118 -55.8268,26.3307 -18.9921,8.83465 -37.6693,18 -55.8268,27.8425 -18.3465,9.66929 -34.5039,21.1654 -48.6772,34.1575 -14,13.0079 -25.4961,28 -34.3307,45.1811 -8.83465,16.9921 -13.1654,37.4961 -13.1654,61.3228 0,10 1.49606,21.0079 4.33071,32.6772 3.00787,11.6535 7.66929,23.4961 14.1732,35.1654 6.66142,11.6535 14.9921,22.9921 25.1654,33.8268 10.3307,11.0079 22.6614,20.6614 37.1654,28.8346 14.5039,8.33071 31.1654,14.9921 50.1732,19.8268 18.8189,4.83465 40.1575,7.33858 64,7.33858 14.6614,0 29.3228,-1.16535 44.1575,-3.33858 14.8346,-2.33071 28.6614,-5.32283 41.4961,-9.32283 13.0079,-3.84252 24.6772,-8.50394 35.0079,-14 10.5039,-5.51181 18.5039,-11.5118 24.5039,-18 2.15748,-1.84252 2.33071,-5.66929 0.15748,-11.5118 -2.15748,-5.65354 -5.32283,-11.8268 -9.82677,-18.4882 -4.33071,-6.67717 -9.16535,-13.1654 -14.5039,-19.6693 -5.49606,-6.50394 -10.1732,-11.6693 -14,-15.1654l-17.6693 2.83465c-9.16535,10.8346 -18.6614,19.8268 -28.6614,27.1654 -9.84252,7.32283 -20,13.1654 -30.3307,17.8268 -10.3307,4.50394 -20.5039,7.84252 -30.6772,9.66929 -10,2 -19.6535,3.00787 -28.8346,3.00787 -18.3307,0 -33.8268,-2.67717 -46.8189,-8 -12.8346,-5.51181 -23.5118,-12.3465 -31.8425,-20.8346 -8.33071,-8.50394 -14.3307,-17.8425 -18.3307,-27.8425 -3.82677,-10.1575 -5.82677,-19.8268 -5.82677,-28.8346 0,-15.3228 4.33071,-28.9921 13.1654,-40.8346 8.83465,-12 20.3307,-22.8346 34.6614,-32.8346 14.5039,-10 30.8346,-19.3228 49.1654,-28.1575 18.5039,-8.66142 37.3386,-18 56.5039,-27.4961 19.1654,-9.66929 38,-20 56.5039,-31.1654 18.3307,-11.0079 34.8189,-23.6693 49.1654,-38 14.3307,-14.3465 25.8268,-30.8346 34.6614,-49.1811 8.83465,-18.4882 13.1654,-39.6535 13.1654,-63.8268zm-161.669 495.008l-52.1575 0 -129.008 150c2.33071,3.32283 4.33071,6 6,8.33071 1.49606,2.33071 3.16535,4.15748 4.50394,5.82677 1.49606,1.66929 3.16535,3.16535 4.99213,4.50394 1.84252,1.16535 4,2.66142 6.50394,4.33071l134.331 -102.992 131.843 102.992c5.49606,-2.99213 9.49606,-5.82677 11.6693,-8.83465 2.33071,-2.83465 5.49606,-7.66929 9.32283,-14.1575l-128 -150z"
           id="path193-3" />
      </glyph>
      <glyph
         unicode="a"
         horiz-adv-x="459"
         id="glyph195-7">
        <path
           d="M171.669 48c19.4961,0 40.3307,5.00787 62.3307,14.8346 22,10 45.3386,25.6693 70,47.1654l0 126.504c-27.3386,-4.50394 -49.8268,-9.00787 -67.6693,-13.1654 -17.6693,-4.33071 -32.1575,-8.50394 -43.6693,-13.0079 -11.3228,-4.33071 -20.4882,-8.99213 -27.3228,-13.8268 -6.83465,-5.00787 -12.8346,-10.1732 -18,-15.6693 -8.50394,-8.83465 -15.3386,-18.8346 -20.5039,-30 -5.16535,-11.3386 -7.82677,-24.5039 -7.82677,-39.8268 0,-13.0079 2,-23.6693 5.82677,-31.6693 4,-8.17323 8.66142,-14.6772 14.1732,-19.3386 5.49606,-4.66142 11.3228,-8 17.3228,-9.49606 6,-1.66929 11.1654,-2.50394 15.3386,-2.50394zm280 -8.66142c-27.6693,-19.1654 -50.5039,-33.0079 -68.5039,-41.5118 -18,-8.48819 -31.6693,-12.8346 -40.6614,-12.8346 -10.8346,0 -19.6693,7.51181 -26.8346,22.5039 -7.16535,15.0079 -11.0079,35.6693 -11.6693,62 -14.6614,-14.6614 -29.3386,-27.3228 -44,-38 -14.5039,-10.8346 -28.8346,-19.6693 -42.8346,-26.4882 -14,-6.83465 -27.3386,-11.8425 -39.8268,-15.1811 -12.5039,-3.16535 -24,-4.83465 -34.3307,-4.83465 -11.8425,0 -23.8425,2 -36.1732,5.84252 -12.3307,4 -23.4961,10.1732 -33.4961,18.6614 -9.84252,8.33071 -18,19.3386 -24.5039,32.6772 -6.50394,13.3228 -9.82677,29.4961 -9.82677,48.3307 0,24.8346 4.33071,45.4961 12.9921,62.1575 8.50394,16.6772 18.8346,31.0079 31.0079,43.0079 7.65354,7.82677 16.6614,15.1654 26.4882,22.1575 10,7.00787 23.1654,13.8425 39.5118,20.3465 16.4882,6.48819 36.9921,12.6614 61.8268,18.6614 24.6614,5.82677 55.8268,11.4961 93.1654,16.9921l0 69.0079c0,10.9921 -1.33858,21.3386 -3.82677,30.9921 -2.67717,9.66929 -7.00787,17.8425 -13.3386,24.8346 -6.17323,7.00787 -14.5039,12.5039 -25.0079,16.1732 -10.6614,3.82677 -23.8268,5.49606 -39.8268,5.16535 -10.5039,-0.330709 -20.6614,-2.17323 -30.8346,-5.33858 -10,-3.32283 -18.8346,-7.82677 -26.3307,-13.6535 -7.49606,-5.84252 -13.3386,-12.8346 -17.4961,-20.8346 -4.33071,-8 -6,-16.8346 -5.00787,-26.5039 0.330709,-3.00787 -2.99213,-6.33071 -10,-10 -6.99213,-3.84252 -15.3228,-7.16535 -24.8346,-10.1732 -9.66929,-2.83465 -18.9921,-5.16535 -28.3307,-6.83465 -9.33858,-1.49606 -15.8268,-1.82677 -19.8268,-0.834646l-6.83465 19.0079c7.49606,16.3307 18.8346,31.8268 34.1575,46.8346 15.3386,14.9921 32.8346,28.1575 52.5039,39.6693 19.6693,11.3228 40.5039,20.4882 62.5039,27.3228 22,6.83465 43.1654,10.3465 63.8268,10.3465 35.6693,0 63.1654,-9.33858 82.5039,-28.1732 19.3386,-18.6614 29.0079,-45.0079 29.0079,-78.5039l0 -276.157c0,-13.6693 1.82677,-23.5118 5.32283,-29.3386 3.66929,-5.82677 8.33071,-8.83465 14.1732,-8.83465 4.66142,0 10.5039,0.834646 17.6693,2.50394 7.16535,1.49606 17.1654,5.16535 30.1575,10.6614l7.33858 -21.8268z"
           id="path197-1" />
      </glyph>
      <glyph
         unicode="r"
         horiz-adv-x="396"
         id="glyph199-0">
        <path
           d="M375.496 451.008c3.00787,-1.84252 4.33071,-7.66929 4.17323,-17.0079 -0.173228,-9.33858 -1.49606,-20.1732 -3.84252,-32.5039 -2.48819,-12.3307 -5.65354,-24.9921 -9.49606,-38.1575 -4,-13.0079 -7.82677,-23.8425 -11.8268,-32.6772l-21.0079 0c-1.82677,13.0079 -4.66142,24.1732 -8.33071,33.1654 -3.49606,9.1811 -7.66929,16.3465 -12.3307,21.8425 -4.83465,5.33858 -10,9.16535 -15.6693,11.6693 -5.66929,2.48819 -11.6693,3.66929 -17.8268,3.66929 -7.16535,0 -15.5118,-3.00787 -25.1654,-9.00787 -9.51181,-6 -19.5118,-15.4961 -29.5118,-28.3307 -10.1575,-13.0079 -20.1575,-29.4961 -30,-49.4961 -10,-20 -18.8346,-43.8425 -26.6614,-71.6693l0 -191.669c0,-4.83465 6.17323,-10 18.3307,-15.1654 12.1732,-5.16535 33.6693,-10 64.1732,-14.6614l0 -21.0079 -223.843 0 0 21.0079c21.5118,4.8189 38.1732,9.65354 50.3465,14.3307 12,4.83465 18,10 18,15.4961l0 284.331c0,10.6614 -0.346457,19.8425 -1.00787,27.1654 -0.661417,7.33858 -1.49606,13.1654 -2.50394,17.8425 -0.834646,4.48819 -2.15748,8 -3.66929,10.6614 -1.32283,2.66142 -2.8189,4.66142 -4,6.33071 -2.33071,2.33071 -4.8189,4.17323 -7.65354,5.66929 -2.67717,1.49606 -6.34646,2.66142 -10.6772,3.66929 -4.48819,0.992126 -9.66929,1.66929 -15.8268,2.15748 -6.33071,0.503937 -13.8425,1.00787 -23.0079,1.66929l0 19.6693c21.1654,5.49606 41.8425,11.0079 62.1732,16.8346 20.3307,5.66929 38.6614,12.9921 54.8346,22.1732l16.9921 -17.1811 6.34646 -110.819c8.8189,18 18.3307,34.6614 28.6614,50.3307 10.1575,15.6693 21.1654,29.1654 32.8346,40.8346 11.8268,11.4961 24,20.4882 36.8346,26.9921 12.9921,6.50394 26.3307,9.84252 40.3307,9.84252 10.5039,0 21.6693,-1.33858 33.6693,-3.84252 12.1575,-2.66142 24.1575,-7.33858 36.1575,-14.1575z"
           id="path201-7" />
      </glyph>
      <glyph
         unicode="o"
         horiz-adv-x="502"
         id="glyph203-6">
        <path
           d="M387.995 222.167c0,25.6774 -4.15751,50.1736 -12.6615,73.4888 -8.504,23.1734 -19.323,43.6775 -32.6695,61.5123 -13.3229,17.6694 -28.4884,31.8428 -45.3311,42.1657 -16.8427,10.4883 -33.6617,15.6615 -50.1736,15.6615 -24.827,0 -45.4964,-4.65358 -62.5044,-14.1733 -16.819,-9.49614 -30.4963,-22.323 -40.6539,-38.8113 -10.1576,-16.5119 -17.6694,-35.8349 -22.1577,-58.3469 -4.51185,-22.4884 -6.85045,-46.6539 -6.85045,-72.8273 0,-25.6774 4.51185,-50.1736 13.6773,-73.5124 9.00007,-23.1498 20.5041,-43.6539 34.3231,-61.158 13.8426,-17.6694 29.0081,-31.4884 45.6618,-41.835 16.5119,-10.1576 32.3388,-15.3308 47.1736,-15.3308 23.1734,0 43.0161,4.32287 59.5044,12.9922 16.6773,8.504 30.3309,20.8348 41.0082,36.8507 10.6536,15.9923 18.6616,35.1499 23.8348,57.6619 5.14965,22.323 7.81896,47.6697 7.81896,75.662zm76.0163 14.6694c0,-21.8269 -2.83467,-43.1814 -8.33865,-64.1816 -5.50398,-20.8112 -13.1812,-40.4885 -23.0081,-59.1501 -9.66149,-18.4962 -21.4962,-35.6696 -35.1735,-51.4965 -13.6537,-15.8505 -28.6538,-29.5042 -45.1657,-40.8428 -16.323,-11.3387 -33.827,-20.3387 -52.4886,-26.6695 -18.4962,-6.33076 -37.6775,-9.49614 -57.6619,-9.49614 -30.8506,0 -58.843,5.83469 -83.67,17.6694 -25.0159,11.6694 -46.3468,27.827 -64.0163,48.3311 -17.8112,20.5041 -31.4884,45.0004 -41.1499,73.3234 -9.49614,28.3467 -14.3387,59.1737 -14.3387,92.3393 0,21.4962 2.66931,42.8271 8.00794,63.6619 5.48036,20.8348 12.9922,40.6775 22.4884,59.339 9.66149,18.8269 21.1655,36.0003 34.6774,51.8272 13.4883,15.8505 28.4884,29.5042 45.0004,40.8428 16.4883,11.3387 34.1577,20.3387 53.15,26.8349 19.1813,6.49611 38.6696,9.82685 59.0083,9.82685 30.4963,0 58.3233,-5.83469 83.1739,-17.6694 24.9923,-11.6694 46.3232,-27.827 63.9926,-48.4964 17.8348,-20.8348 31.5121,-45.3311 41.1736,-73.6541 9.49614,-28.3467 14.3387,-59.1737 14.3387,-92.3393z"
           id="path205-4" />
      </glyph>
      </font>
</defs>
</svg>
